G04 ================== begin FILE IDENTIFICATION RECORD ==================*
G04 Layout Name:  Adaptor_V111.brd*
G04 Film Name:    ADAPTOR_ver1.1.1_BOTTOM.art*
G04 File Format:  Gerber RS274X*
G04 File Origin:  Cadence Allegro 17.2-S052*
G04 Origin Date:  Fri Mar 21 16:15:59 2025*
G04 *
G04 Layer:  BOARD GEOMETRY/DESIGN_OUTLINE*
G04 Layer:  ETCH/BOTTOM*
G04 Layer:  PIN/BOTTOM*
G04 Layer:  VIA CLASS/BOTTOM*
G04 *
G04 Offset:    (0.0000 0.0000)*
G04 Mirror:    No*
G04 Mode:      Positive*
G04 Rotation:  0*
G04 FullContactRelief:  No*
G04 UndefLineWidth:     0.1270*
G04 ================== end FILE IDENTIFICATION RECORD ====================*
%FSLAX25Y25*MOMM*%
%IR0*IPPOS*OFA0.00000B0.00000*MIA0B0*SFA1.00000B1.00000*%
%ADD13C,.5*%
%ADD11C,.6096*%
%ADD15C,2.*%
%ADD16R,2.X2.*%
%ADD14C,5.301*%
%ADD12C,1.0008*%
%ADD18R,1.65X1.65*%
%ADD17C,1.65*%
%ADD10C,6.35*%
%ADD19C,.434*%
%ADD20C,.127*%
%ADD31C,.7544*%
%ADD29C,2.4004*%
%ADD24C,2.3044*%
%ADD30C,5.7014*%
%ADD28C,2.2544*%
%ADD27C,2.5084*%
%ADD23C,2.1584*%
%ADD25C,2.6544*%
%ADD22C,1.8552*%
%ADD21C,3.985*%
%ADD26C,5.9554*%
G75*
%LPD*%
G75*
G36*
G01X5120000Y8780000D02*
X8680000D01*
G02X8780000Y8680000I0J-100000D01*
G01Y5120000D01*
G02X8680000Y5020000I-100000J0D01*
G01X7880000D01*
G03X7780000Y4920000I0J-100000D01*
G01Y3880000D01*
G03X7880000Y3780000I100000J0D01*
G01X8680000D01*
G02X8780000Y3680000I0J-100000D01*
G01Y120000D01*
G02X8680000Y20000I-100000J0D01*
G01X7820000D01*
G02X7720000Y120000I0J100000D01*
G01Y920000D01*
G03X7620000Y1020000I-100000J0D01*
G01X6380000D01*
G03X6280000Y920000I0J-100000D01*
G01Y120000D01*
G02X6180000Y20000I-100000J0D01*
G01X2620000D01*
G02X2520000Y120000I0J100000D01*
G01Y920000D01*
G03X2420000Y1020000I-100000J0D01*
G01X1180000D01*
G03X1080000Y920000I0J-100000D01*
G01Y120000D01*
G02X980000Y20000I-100000J0D01*
G01X120000D01*
G02X20000Y120000I0J100000D01*
G01Y3680000D01*
G02X120000Y3780000I100000J0D01*
G01X920000D01*
G03X1020000Y3880000I0J100000D01*
G01Y4920000D01*
G03X920000Y5020000I-100000J0D01*
G01X120000D01*
G02X20000Y5120000I0J100000D01*
G01Y8680000D01*
G02X120000Y8780000I100000J0D01*
G01X3680000D01*
G02X3780000Y8680000I0J-100000D01*
G01Y7880000D01*
G03X3880000Y7780000I100000J0D01*
G01X4920000D01*
G03X5020000Y7880000I0J100000D01*
G01Y8680000D01*
G02X5120000Y8780000I100000J0D01*
G37*
%LPC*%
G75*
G36*
G01X5200000Y8700000D02*
X6249580D01*
Y8700420D01*
X7040420D01*
Y8700000D01*
X7830000D01*
G02X7930000Y8600000I0J-100000D01*
G01Y8580000D01*
X7960000Y8550000D01*
X8250000D01*
X8300000Y8500000D01*
Y8330000D01*
X8400000Y8230000D01*
X8600000D01*
G02X8700000Y8130000I0J-100000D01*
G01Y5200000D01*
G02X8600000Y5100000I-100000J0D01*
G01X7800000D01*
G03X7700000Y5000000I0J-100000D01*
G01Y3800000D01*
G03X7800000Y3700000I100000J0D01*
G01X8600000D01*
G02X8700000Y3600000I0J-100000D01*
G01Y690000D01*
G02X8602020Y590020I-100000J0D01*
G01X8599980Y589980D01*
X8570000Y560000D01*
Y320000D01*
X8500000Y250000D01*
X8260000D01*
X8220000Y210000D01*
Y200000D01*
G02X8120000Y100000I-100000J0D01*
G01X7900000D01*
G02X7800000Y200000I0J100000D01*
G01Y1000000D01*
G03X7700000Y1100000I-100000J0D01*
G01X6300000D01*
G03X6200000Y1000000I0J-100000D01*
G01Y200000D01*
G02X6100000Y100000I-100000J0D01*
G01X2700000D01*
G02X2600000Y200000I0J100000D01*
G01Y1000000D01*
G03X2500000Y1100000I-100000J0D01*
G01X1100000D01*
G03X1000000Y1000000I0J-100000D01*
G01Y200000D01*
G02X900000Y100000I-100000J0D01*
G01X700000D01*
G02X600000Y200000I0J100000D01*
G01Y210000D01*
X570000Y240000D01*
X330000D01*
X240000Y330000D01*
Y600000D01*
X230000Y610000D01*
X200000D01*
G02X100000Y710000I0J100000D01*
G01Y3600000D01*
G02X200000Y3700000I100000J0D01*
G01X1000000D01*
G03X1100000Y3800000I0J100000D01*
G01Y5000000D01*
G03X1000000Y5100000I-100000J0D01*
G01X200000D01*
G02X100000Y5200000I0J100000D01*
G01Y6090000D01*
G02X200000Y6190000I100000J0D01*
G01X850000D01*
G03X950000Y6290000I0J100000D01*
G01Y6990000D01*
G03X850000Y7090000I-100000J0D01*
G01X200000D01*
G02X100000Y7190000I0J100000D01*
G01Y8140000D01*
G02X200000Y8240000I100000J0D01*
G01X600000D01*
X620000Y8260000D01*
Y8450000D01*
X720000Y8550000D01*
X1000000D01*
X1020000Y8570000D01*
Y8600000D01*
G02X1120000Y8700000I100000J0D01*
G01X3600000D01*
G02X3700000Y8600000I0J-100000D01*
G01Y7800000D01*
G03X3800000Y7700000I100000J0D01*
G01X5000000D01*
G03X5100000Y7800000I0J100000D01*
G01Y8600000D01*
G02X5200000Y8700000I100000J0D01*
G37*
G54D21*
X500000Y6640000D03*
%LPD*%
G75*
G36*
G01X1000420Y6491150D02*
G02X1017760Y6498330I10159J-5D01*
G01X1039980Y6476110D01*
Y5446130D01*
G03X1040590Y5433580I130021J30D01*
G01X1041170Y5427630D01*
G03X1070030Y5357810I129407J12616D01*
G01X1073760Y5353260D01*
G03X1082370Y5343750I100574J82403D01*
G01X1283640Y5142480D01*
G03X1293020Y5133970I91953J91929D01*
G01X1297680Y5130140D01*
G03X1367410Y5101200I82560J100448D01*
G01X1373360Y5100610D01*
G03X1386100Y5099980I12784J129392D01*
G01X2120000D01*
Y3130000D01*
X2550000Y2700000D01*
X2950000D01*
X4600000Y1050000D01*
Y150420D01*
X2700000D01*
G02X2650420Y200000I0J49580D01*
G01Y1000000D01*
G03X2500000Y1150420I-150420J0D01*
G01X1100000D01*
G03X949580Y1000000I0J-150420D01*
G01Y200000D01*
G02X900000Y150420I-49580J0D01*
G01X700000D01*
G02X662570Y167480I0J49591D01*
G03X758220Y408000I-254579J240520D01*
G03X408000Y758220I-350220J0D01*
G01X407990D01*
G03X173480Y668110I5J-350222D01*
G02X150420Y710000I26518J41890D01*
G01Y3600000D01*
G02X200000Y3649580I49580J0D01*
G01X1000000D01*
G03X1150420Y3800000I0J150420D01*
G01Y5000000D01*
G03X1000000Y5150420I-150420J0D01*
G01X200000D01*
G02X150420Y5200000I0J49580D01*
G01Y6090000D01*
G02X200000Y6139580I49580J0D01*
G01X850000D01*
G03X1000420Y6290000I0J150420D01*
G01Y6491150D01*
G37*
G36*
G01X5200000Y8649580D02*
X6249580D01*
Y8566380D01*
G02X6231900Y8559550I-10158J-2D01*
G03X6152000Y8594920I-79900J-72561D01*
G03Y8379080I0J-107920D01*
G03X6231900Y8414450I0J107931D01*
G02X6249580Y8407620I7522J-6828D01*
G01Y8322880D01*
G02X6232340Y8315590I-10160J-4D01*
G03X6152000Y8348220I-80340J-82590D01*
G03Y8117780I0J-115220D01*
G03X6232340Y8150410I0J115220D01*
G02X6249580Y8143120I7080J-7286D01*
G01Y7950880D01*
X5808700Y7510000D01*
X3160000D01*
X2120000Y6470000D01*
Y5360020D01*
X1433860D01*
X1300020Y5493860D01*
Y6529880D01*
G03X1299370Y6542820I-130018J-45D01*
G01X1299360Y6542920D01*
G03X1261930Y6621920I-129375J-12930D01*
G01X1151930Y6731920D01*
G03X1072930Y6769350I-91930J-91945D01*
G01X1072730Y6769370D01*
G03X1059790Y6770020I-12985J-129368D01*
G01X1000420D01*
Y6990000D01*
G03X850000Y7140420I-150420J0D01*
G01X200000D01*
G02X150420Y7190000I0J49580D01*
G01Y8140000D01*
G02X200000Y8189580I49580J0D01*
G01X512200D01*
G03X798000Y8041780I285800J202425D01*
G03X1148220Y8392000I0J350220D01*
G03X1071580Y8610650I-350219J0D01*
G02X1120000Y8649580I48420J-10647D01*
G01X3600000D01*
G02X3649580Y8600000I0J-49580D01*
G01Y7800000D01*
G03X3800000Y7649580I150420J0D01*
G01X5000000D01*
G03X5150420Y7800000I0J150420D01*
G01Y8600000D01*
G02X5200000Y8649580I49580J0D01*
G37*
G36*
G01X7040420D02*
X7830000D01*
G02X7874230Y8622390I0J-49569D01*
G03X7787780Y8392000I263771J-230390D01*
G03X8138000Y8041780I350220J0D01*
G03X8416450Y8179580I0J350229D01*
G01X8600000D01*
G02X8649580Y8130000I0J-49580D01*
G01Y5200000D01*
G02X8600000Y5150420I-49580J0D01*
G01X7800000D01*
G03X7649580Y5000000I0J-150420D01*
G01Y3800000D01*
G03X7800000Y3649580I150420J0D01*
G01X8600000D01*
G02X8649580Y3600000I0J-49580D01*
G01Y690000D01*
G02X8649230Y684120I-49567J0D01*
G02X8632650Y677510I-10088J1204D01*
G03X8409000Y758220I-223650J-269516D01*
G03X8058780Y408000I0J-350220D01*
G03X8148790Y173590I350222J-6D01*
G02X8146720Y158240I-7548J-6797D01*
G02X8120000Y150420I-26726J41758D01*
G01X7900000D01*
G02X7850420Y200000I0J49580D01*
G01Y204930D01*
G02X7864470Y214310I10158J-3D01*
G03X7900000Y207240I35520J85692D01*
G03Y392760I0J92760D01*
G03X7864470Y385690I-10J-92762D01*
G02X7850420Y395070I-3892J9383D01*
G01Y1000000D01*
G03X7700000Y1150420I-150420J0D01*
G01X6300000D01*
G03X6149580Y1000000I0J-150420D01*
G01Y200000D01*
G02X6100000Y150420I-49580J0D01*
G01X5000000D01*
Y740000D01*
X3023510Y2716490D01*
G02X3030700Y2733830I7188J7180D01*
G01X4943850D01*
G03X5035790Y2771910I0J130030D01*
G01X5292040Y3028160D01*
G03X5330120Y3120100I-91950J91940D01*
G01Y3420360D01*
X5330220Y3420860D01*
G03X5332820Y3447000I-130120J26142D01*
G03X5067380I-132720J0D01*
G03X5069980Y3420860I132720J2D01*
G01X5070080Y3420360D01*
Y3173960D01*
X4889990Y2993870D01*
X2746130D01*
X2550000Y3190000D01*
Y4620000D01*
X2870000Y4940000D01*
X6350000D01*
X7030000Y5620000D01*
Y5658700D01*
X7040420Y5669120D01*
Y8649580D01*
G37*
G36*
G01X6560420Y8650000D02*
X6990000D01*
Y8569280D01*
G02X6973490Y8561350I-10159J0D01*
G03X6914000Y8582220I-59490J-74353D01*
G03Y8391780I0J-95220D01*
G03X6973490Y8412650I0J95223D01*
G02X6990000Y8404720I6351J-7930D01*
G01Y8324440D01*
G02X6973900Y8316200I-10160J2D01*
G03X6914000Y8335520I-59900J-83197D01*
G03Y8130480I0J-102520D01*
G03X6973900Y8149800I0J102517D01*
G02X6990000Y8141560I5940J-8242D01*
G01Y5690000D01*
X6380000Y5080000D01*
X4318400D01*
G02X4311220Y5097340I5J10159D01*
G01X4491940Y5278060D01*
G03X4530020Y5370000I-91950J91940D01*
G01Y5670000D01*
G03X4269980I-130020J0D01*
G01Y5423860D01*
X4146140Y5300020D01*
X2889980D01*
X2360000Y5830000D01*
Y6580000D01*
X3200000Y7420000D01*
X5790000D01*
X6300000Y7930000D01*
Y8059580D01*
X6560420D01*
Y8164440D01*
G02X6578640Y8170620I10159J-3D01*
G03X6660000Y8130480I81360J62385D01*
G03Y8335520I0J102520D01*
G03X6578640Y8295380I0J-102525D01*
G02X6560420Y8301560I-8061J6183D01*
G01Y8431250D01*
G02X6579200Y8436620I10160J-7D01*
G03X6660000Y8391780I80800J50379D01*
G03Y8582220I0J95220D01*
G03X6579200Y8537380I0J-95219D01*
G02X6560420Y8542750I-8620J5377D01*
G01Y8650000D01*
G37*
G36*
G01X6510000Y8710000D02*
Y8110000D01*
X6310000D01*
Y8710000D01*
X6510000D01*
G37*
%LPC*%
G75*
G36*
G01X1048870Y2479220D02*
G02X1019590Y2525000I21149J45780D01*
G02X1120430I50420J0D01*
G02X1091150Y2479220I-50429J0D01*
G03Y2460780I4255J-9220D01*
G02X1120430Y2415000I-21149J-45780D01*
G02X1019590I-50420J0D01*
G02X1048870Y2460780I50429J0D01*
G03Y2479220I-4255J9220D01*
G37*
G36*
G01X7306780Y8150500D02*
Y8315500D01*
G02X7339500Y8348220I32720J0D01*
G01X7504500D01*
G02X7537220Y8315500I0J-32720D01*
G01Y8150500D01*
G02X7504500Y8117780I-32720J0D01*
G01X7339500D01*
G02X7306780Y8150500I0J32720D01*
G37*
G36*
G01X3467180Y4300000D02*
Y4500000D01*
G02X3499900Y4532720I32720J0D01*
G01X3699900D01*
G02X3732620Y4500000I0J-32720D01*
G01Y4300000D01*
G02X3699900Y4267280I-32720J0D01*
G01X3499900D01*
G02X3467180Y4300000I0J32720D01*
G37*
G36*
G01X3461780Y3347000D02*
Y3547000D01*
G02X3499900Y3585120I38120J0D01*
G01X3699900D01*
G02X3738020Y3547000I0J-38120D01*
G01Y3347000D01*
G02X3699900Y3308880I-38120J0D01*
G01X3499900D01*
G02X3461780Y3347000I0J38120D01*
G37*
G36*
G01X5958870Y2479220D02*
G02X5929590Y2525000I21149J45780D01*
G02X6030430I50420J0D01*
G02X6001150Y2479220I-50429J0D01*
G03Y2460780I4255J-9220D01*
G02X6030430Y2415000I-21149J-45780D01*
G02X5929590I-50420J0D01*
G02X5958870Y2460780I50429J0D01*
G03Y2479220I-4255J9220D01*
G37*
G36*
G01X3479880Y5770000D02*
G02X3499900Y5790020I20020J0D01*
G01X3699900D01*
G02X3719920Y5770000I0J-20020D01*
G01Y5570000D01*
G02X3699900Y5549980I-20020J0D01*
G01X3499900D01*
G02X3479880Y5570000I0J20020D01*
G01Y5770000D01*
G37*
G54D31*
X3590010Y6775000D03*
Y6885000D03*
G54D29*
X4800050Y5670000D03*
X5200100D03*
G54D24*
X5898000Y8233000D03*
X7168000D03*
X7422000Y8487000D03*
G54D30*
X3099770Y5670000D03*
X5700230D03*
G54D28*
X3999950D03*
G54D27*
X4800050Y3447000D03*
G54D23*
X5898000Y8487000D03*
X7168000D03*
G54D25*
X4400000Y3447000D03*
X3999950D03*
X5200100Y4400000D03*
X4800050D03*
X4400000D03*
X3999950D03*
G54D22*
X800000Y840000D03*
X600000Y7800000D03*
X8360000Y7760000D03*
G54D26*
X3099770Y3447000D03*
X5700230D03*
Y4400000D03*
X3099770D03*
%LPD*%
G75*
G54D10*
X408000Y408000D03*
X500000Y6640000D03*
X798000Y8392000D03*
X8138000D03*
X8409000Y408000D03*
G54D20*
G01X0Y100000D02*
Y3700000D01*
G02X100000Y3800000I100000J0D01*
G01X900000D01*
G03X1000000Y3900000I0J100000D01*
G01Y4900000D01*
G03X900000Y5000000I-100000J0D01*
G01X100000D01*
G02X0Y5100000I0J100000D01*
G01Y8700000D01*
G02X100000Y8800000I100000J0D01*
G01X3700000D01*
G02X3800000Y8700000I0J-100000D01*
G01Y7900000D01*
G03X3900000Y7800000I100000J0D01*
G01X4900000D01*
G03X5000000Y7900000I0J100000D01*
G01Y8700000D01*
G02X5100000Y8800000I100000J0D01*
G01X8700000D01*
G02X8800000Y8700000I0J-100000D01*
G01Y5100000D01*
G02X8700000Y5000000I-100000J0D01*
G01X7900000D01*
G03X7800000Y4900000I0J-100000D01*
G01Y3900000D01*
G03X7900000Y3800000I100000J0D01*
G01X8700000D01*
G02X8800000Y3700000I0J-100000D01*
G01Y100000D01*
G02X8700000Y0I-100000J0D01*
G01X7800000D01*
G02X7700000Y100000I0J100000D01*
G01Y900000D01*
G03X7600000Y1000000I-100000J0D01*
G01X6400000D01*
G03X6300000Y900000I0J-100000D01*
G01Y100000D01*
G02X6200000Y0I-100000J0D01*
G01X2600000D01*
G02X2500000Y100000I0J100000D01*
G01Y900000D01*
G03X2400000Y1000000I-100000J0D01*
G01X1200000D01*
G03X1100000Y900000I0J-100000D01*
G01Y100000D01*
G02X1000000Y0I-100000J0D01*
G01X100000D01*
G02X0Y100000I0J100000D01*
G54D11*
X60000Y140000D03*
Y640000D03*
Y540000D03*
Y440000D03*
Y740000D03*
Y340000D03*
Y240000D03*
Y1040000D03*
Y940000D03*
Y840000D03*
Y1140000D03*
Y1240000D03*
Y1340000D03*
Y1440000D03*
Y2040000D03*
Y1840000D03*
Y1740000D03*
Y1640000D03*
Y1940000D03*
Y1540000D03*
Y2740000D03*
Y2240000D03*
Y2140000D03*
Y2340000D03*
Y2440000D03*
Y2540000D03*
Y2640000D03*
Y2940000D03*
Y2840000D03*
Y3140000D03*
Y3240000D03*
Y3040000D03*
Y3340000D03*
Y3440000D03*
Y3540000D03*
Y3640000D03*
Y5340000D03*
Y5240000D03*
Y5140000D03*
Y5840000D03*
Y5740000D03*
Y5640000D03*
Y5940000D03*
Y5440000D03*
Y5540000D03*
Y6040000D03*
Y6640000D03*
Y6540000D03*
Y6440000D03*
Y6340000D03*
Y6140000D03*
Y6240000D03*
Y7040000D03*
Y6940000D03*
Y6840000D03*
Y7140000D03*
Y7240000D03*
Y7340000D03*
Y6740000D03*
Y7940000D03*
Y7640000D03*
Y7740000D03*
Y7840000D03*
Y7540000D03*
Y7440000D03*
Y8640000D03*
Y8540000D03*
Y8440000D03*
Y8340000D03*
Y8040000D03*
Y8140000D03*
Y8240000D03*
X160000Y60000D03*
X260000D03*
X360000D03*
X460000D03*
X760000D03*
X660000D03*
X560000D03*
X160000Y140000D03*
X200000Y800000D03*
X400000D03*
X600000D03*
X800000Y200000D03*
Y600000D03*
X410000Y160000D03*
X220000Y230000D03*
Y570000D03*
X160000Y410000D03*
X410000Y640000D03*
X600000Y570000D03*
X590000Y220000D03*
X640000Y410000D03*
X200000Y1200000D03*
X400000D03*
X600000D03*
X200000Y1600000D03*
X400000D03*
Y2000000D03*
X200000D03*
X400000Y2400000D03*
X200000D03*
X400000Y2800000D03*
X200000D03*
X400000Y3000000D03*
Y3400000D03*
X200000D03*
Y3000000D03*
X160000Y3740000D03*
X360000D03*
X460000D03*
X560000D03*
X660000D03*
X760000D03*
X260000D03*
X160000Y5060000D03*
X660000D03*
X760000D03*
X560000D03*
X460000D03*
X360000D03*
X260000D03*
X600000Y5400000D03*
X200000D03*
Y5800000D03*
X600000D03*
X680900Y6450100D03*
X730900Y6640100D03*
X500900Y6390100D03*
X310900Y6460100D03*
X660000Y6240000D03*
X760000D03*
X160000D03*
X260000D03*
X360000D03*
X460000D03*
X560000D03*
X160000Y6340000D03*
X260000D03*
X760000Y6360000D03*
X160000Y6440000D03*
X690900Y6800100D03*
X310900D03*
X500900Y6870100D03*
X550000Y7040000D03*
X450000D03*
X350000D03*
X250000D03*
X150000D03*
X750000D03*
X650000D03*
X150000Y6940000D03*
X250000D03*
X750000D03*
X150000Y6840000D03*
X800000Y7400000D03*
X400000D03*
Y7600000D03*
Y7800000D03*
X800000D03*
Y8630000D03*
X550000Y8400000D03*
X610000Y8220000D03*
X800000Y8150000D03*
X610000Y8560000D03*
X460000Y8640000D03*
X360000D03*
X260000D03*
X160000D03*
X460000Y8540000D03*
X360000D03*
X260000D03*
X160000D03*
X460000Y8440000D03*
X360000D03*
X260000D03*
X160000D03*
X460000Y8340000D03*
X360000D03*
X260000D03*
X160000D03*
X560000Y8640000D03*
X160000Y8740000D03*
X260000D03*
X360000D03*
X460000D03*
X560000D03*
X760000D03*
X660000D03*
X860000Y60000D03*
X960000D03*
X1040000Y460000D03*
Y560000D03*
Y660000D03*
Y760000D03*
Y160000D03*
Y260000D03*
Y360000D03*
X1340000Y1060000D03*
X1240000D03*
X1140000D03*
X1440000D03*
X1040000Y960000D03*
Y860000D03*
X918500Y2214500D03*
Y2334500D03*
Y2434500D03*
Y2534500D03*
X1060000Y3840000D03*
Y3940000D03*
Y4040000D03*
X860000Y3740000D03*
X960000D03*
X1060000Y4340000D03*
Y4140000D03*
Y4240000D03*
Y4440000D03*
Y4540000D03*
Y4640000D03*
Y4940000D03*
Y4840000D03*
Y4740000D03*
X860000Y5060000D03*
X960000D03*
X1000000Y5400000D03*
Y5800000D03*
X860000Y6240000D03*
Y6360000D03*
Y6470000D03*
X1200000Y7000000D03*
X850000Y7040000D03*
Y6940000D03*
Y6830000D03*
X1200000Y7400000D03*
Y7800000D03*
Y8200000D03*
Y8600000D03*
X1030000Y8400000D03*
X980000Y8210000D03*
X990000Y8560000D03*
X860000Y8740000D03*
X960000D03*
X1260000D03*
X1160000D03*
X1060000D03*
X1360000D03*
X2040000Y1060000D03*
X1540000D03*
X1640000D03*
X1940000D03*
X1840000D03*
X1740000D03*
X1953100Y1649100D03*
X1808500Y2604500D03*
Y2684500D03*
X1718500D03*
X1618500D03*
X1600000Y3800000D03*
Y4200000D03*
Y4600000D03*
X2000000Y4200000D03*
Y4600000D03*
X1600000Y5000000D03*
X2000000D03*
X1600000Y5403200D03*
X2000000Y5400000D03*
Y5800000D03*
X1600000D03*
X2000000Y6200000D03*
X1600000Y6600000D03*
Y7000000D03*
X2000000D03*
Y7400000D03*
X1600000D03*
Y7800000D03*
X2000000D03*
Y8200000D03*
X1600000D03*
Y8600000D03*
X2000000D03*
X1460000Y8740000D03*
X1860000D03*
X1960000D03*
X2060000D03*
X1760000D03*
X1660000D03*
X1560000D03*
X2760000Y60000D03*
X2660000D03*
X2560000Y460000D03*
Y560000D03*
Y660000D03*
Y760000D03*
Y160000D03*
Y260000D03*
Y360000D03*
X2440000Y1060000D03*
X2340000D03*
X2240000D03*
X2140000D03*
X2560000Y960000D03*
Y860000D03*
X2768500Y1994500D03*
X2678500D03*
X2768500Y1614500D03*
X2678500D03*
X2688500Y2484500D03*
X2768500Y2124500D03*
X2678500D03*
X2600000Y6000000D03*
Y5600000D03*
Y6400000D03*
X2400000Y7800000D03*
Y7400000D03*
Y8200000D03*
Y8600000D03*
X2160000Y8740000D03*
X2260000D03*
X2360000D03*
X2460000D03*
X2560000D03*
X2760000D03*
X2660000D03*
X2960000Y60000D03*
X3060000D03*
X3160000D03*
X2860000D03*
X3360000D03*
X3260000D03*
X2800000Y200000D03*
Y600000D03*
X3000000Y400000D03*
Y800000D03*
X3400000Y400000D03*
Y800000D03*
Y1200000D03*
X3000000D03*
X3400000Y1600000D03*
X3000000D03*
Y2000000D03*
X2858500Y1994500D03*
Y1614500D03*
X3000000Y2400000D03*
X2778500Y2484500D03*
X2868500D03*
X2858500Y2124500D03*
X3250000Y3300000D03*
X3100000Y3240000D03*
X2950000Y3300000D03*
X3250000Y3600000D03*
X3310000Y3450000D03*
X2950000Y3600000D03*
X3100000Y3660000D03*
X2890000Y3450000D03*
X3000000Y4000000D03*
X3400000D03*
X3000000Y3800000D03*
X3400000D03*
X3250000Y4550000D03*
X3310000Y4400000D03*
X3250000Y4250000D03*
X2950000Y4550000D03*
X3100000Y4610000D03*
Y4190000D03*
X2950000Y4250000D03*
X2890000Y4400000D03*
Y5670000D03*
X2950000Y5520000D03*
X3100000Y5460000D03*
X3250000Y5520000D03*
X3310000Y5670000D03*
X3250000Y5820000D03*
X3100000Y5880000D03*
X2950000Y5820000D03*
X3000000Y6400000D03*
Y6800000D03*
X3400000Y7200000D03*
X2800000Y7600000D03*
Y7800000D03*
X3200000D03*
X3400000D03*
Y8000000D03*
X3200000D03*
Y8200000D03*
X2800000D03*
Y8600000D03*
X3200000D03*
X3400000Y8200000D03*
X2860000Y8740000D03*
X3060000D03*
X3160000D03*
X3260000D03*
X2960000D03*
X3360000D03*
X3460000Y60000D03*
X3560000D03*
X3660000D03*
X4060000D03*
X3960000D03*
X3860000D03*
X3760000D03*
X3700000Y210000D03*
X3800000Y400000D03*
Y800000D03*
Y1200000D03*
Y1600000D03*
Y4000000D03*
Y3800000D03*
Y4200000D03*
X3428500Y6684500D03*
Y6564500D03*
Y6784500D03*
Y6884500D03*
Y7004500D03*
X3600000Y7800000D03*
Y8000000D03*
X3840000Y7740000D03*
X3940000D03*
X4040000D03*
X3740000Y7840000D03*
Y7940000D03*
X3600000Y8200000D03*
Y8600000D03*
X3740000Y8240000D03*
Y8140000D03*
Y8340000D03*
Y8440000D03*
Y8540000D03*
Y8640000D03*
Y8040000D03*
X3460000Y8740000D03*
X3560000D03*
X3660000D03*
X4160000Y60000D03*
X4260000D03*
X4360000D03*
X4560000D03*
X4660000D03*
X4460000D03*
X4200000Y4000000D03*
X4600000D03*
X4200000Y3800000D03*
Y4200000D03*
X4600000D03*
X4460000Y6010000D03*
X4200000Y5800000D03*
Y5600000D03*
X4128500Y7034500D03*
X4228500D03*
X4318500D03*
Y6954500D03*
X4540000Y7740000D03*
X4640000D03*
X4440000D03*
X4340000D03*
X4240000D03*
X4140000D03*
X4760000Y60000D03*
X4860000D03*
X5360000D03*
X5260000D03*
X5160000D03*
X5060000D03*
X4960000D03*
X5200000Y400000D03*
Y800000D03*
Y1200000D03*
X4800000D03*
X5200000Y2400000D03*
X4800000D03*
X5200000Y2800000D03*
X5000000Y4000000D03*
Y4200000D03*
X5188500Y6024500D03*
X5278500D03*
X5368500D03*
X5188500Y6404500D03*
X5278500D03*
X5368500D03*
X5188500Y6534500D03*
X5278500D03*
X5368500D03*
X5378500Y6894500D03*
X5288500D03*
X5198500D03*
X5200000Y8000000D03*
X4940000Y7740000D03*
X4840000D03*
X4740000D03*
X5060000Y7840000D03*
Y7940000D03*
X5200000Y8400000D03*
Y8200000D03*
X5060000Y8640000D03*
Y8140000D03*
Y8040000D03*
Y8240000D03*
Y8340000D03*
Y8440000D03*
Y8540000D03*
X5360000Y8740000D03*
X5260000D03*
X5160000D03*
X5460000Y60000D03*
X5560000D03*
X5760000D03*
X5860000D03*
X5960000D03*
X5660000D03*
X5790000Y200000D03*
X5600000Y800000D03*
Y400000D03*
X6000000D03*
Y800000D03*
X5600000Y1200000D03*
X6000000D03*
X5818500Y2564500D03*
Y2464500D03*
Y2364500D03*
Y2244500D03*
X5600000Y2400000D03*
X5850000Y3300000D03*
X5700000Y3240000D03*
X5550000Y3300000D03*
X6000000Y3200000D03*
X5600000Y2800000D03*
X5550000Y3600000D03*
X5700000Y3660000D03*
X5850000Y3600000D03*
X5910000Y3450000D03*
X5490000D03*
X5400000Y4000000D03*
X5550000Y4550000D03*
X5700000Y4610000D03*
X5850000Y4550000D03*
X5910000Y4400000D03*
X5850000Y4250000D03*
X5700000Y4190000D03*
X5550000Y4250000D03*
X5490000Y4400000D03*
X6000000Y4200000D03*
Y5200000D03*
X5910000Y5670000D03*
X5850000Y5520000D03*
X5700000Y5460000D03*
X5550000Y5520000D03*
X5490000Y5670000D03*
X5600000Y6200000D03*
X6000000D03*
Y6600000D03*
X5600000D03*
Y7000000D03*
X6000000D03*
X5600000Y8000000D03*
X5400000D03*
X5600000Y8400000D03*
X5400000Y8200000D03*
X5600000D03*
X5400000Y8400000D03*
X5460000Y8740000D03*
X5560000D03*
X5660000D03*
X5860000D03*
X5960000D03*
X5760000D03*
X6060000Y60000D03*
X6160000D03*
X6240000Y660000D03*
Y760000D03*
Y460000D03*
Y260000D03*
Y160000D03*
Y360000D03*
Y560000D03*
X6460000Y1060000D03*
X6560000D03*
X6660000D03*
X6360000D03*
X6240000Y960000D03*
Y860000D03*
X6400000Y1200000D03*
X6528500Y2674500D03*
X6628500D03*
X6400000Y3200000D03*
Y3600000D03*
Y4000000D03*
X6200000Y4400000D03*
X6400000Y5800000D03*
Y5400000D03*
Y6600000D03*
Y6200000D03*
Y7000000D03*
Y7400000D03*
X6060000Y8740000D03*
X6160000D03*
X6660000D03*
X6560000D03*
X6460000D03*
X6360000D03*
X6260000D03*
X6760000Y1060000D03*
X7360000D03*
X6960000D03*
X7260000D03*
X7160000D03*
X7060000D03*
X6860000D03*
X6800000Y1200000D03*
X7200000D03*
X6863100Y1639100D03*
X6718500Y2594500D03*
Y2674500D03*
X7200000Y3200000D03*
X6800000D03*
X7200000Y3600000D03*
X6800000D03*
X7200000Y4000000D03*
X6800000D03*
Y4400000D03*
X7200000D03*
Y4800000D03*
X6800000Y5800000D03*
Y6600000D03*
Y6200000D03*
Y7000000D03*
Y7200000D03*
Y7400000D03*
X6760000Y8740000D03*
X6860000D03*
X7060000D03*
X7160000D03*
X7260000D03*
X6960000D03*
X7360000D03*
X7860000Y60000D03*
X7960000D03*
X7760000Y660000D03*
Y760000D03*
Y460000D03*
Y260000D03*
Y160000D03*
Y360000D03*
Y560000D03*
X8000000Y800000D03*
Y400000D03*
X7460000Y1060000D03*
X7560000D03*
X7660000D03*
X7760000Y960000D03*
Y860000D03*
X7600000Y1200000D03*
X8000000D03*
Y1600000D03*
Y2000000D03*
X7768500Y1984500D03*
X7678500D03*
X7588500D03*
X7768500Y1604500D03*
X7678500D03*
X7588500D03*
X7768500Y2114500D03*
X7678500D03*
X7590000Y2110000D03*
X8000000Y2400000D03*
X7598500Y2474500D03*
X7688500D03*
X7778500D03*
X8000000Y2800000D03*
Y3200000D03*
X7600000D03*
X7740000Y3860000D03*
Y3960000D03*
Y4060000D03*
X7940000Y3740000D03*
X7840000D03*
X8000000Y3600000D03*
X7600000D03*
Y4000000D03*
X7740000Y4360000D03*
Y4160000D03*
Y4260000D03*
Y4460000D03*
Y4560000D03*
Y4660000D03*
X7600000Y4400000D03*
X7740000Y4960000D03*
Y4860000D03*
Y4760000D03*
X7940000Y5060000D03*
X7840000D03*
X7600000Y4800000D03*
Y5200000D03*
X8000000D03*
Y5600000D03*
Y6000000D03*
X7400000D03*
X7600000D03*
X8000000Y6400000D03*
X7400000D03*
X7600000D03*
X8000000Y6800000D03*
Y7200000D03*
X7400000D03*
Y6800000D03*
X7600000D03*
Y7200000D03*
X8000000Y7600000D03*
Y8000000D03*
X7600000D03*
Y7600000D03*
X7400000D03*
Y8000000D03*
X7890000Y8400000D03*
X7950000Y8560000D03*
Y8220000D03*
X7460000Y8740000D03*
X7860000D03*
X7960000D03*
X7760000D03*
X7660000D03*
X7560000D03*
X8160000Y60000D03*
X8260000D03*
X8360000D03*
X8060000D03*
X8460000D03*
X8660000D03*
X8560000D03*
X8660000Y140000D03*
X8420000Y160000D03*
X8230000Y230000D03*
Y570000D03*
X8170000Y410000D03*
X8420000Y640000D03*
X8610000Y570000D03*
X8600000Y220000D03*
X8650000Y410000D03*
X8400000Y800000D03*
Y1200000D03*
Y2000000D03*
Y2400000D03*
Y2800000D03*
Y3200000D03*
X8640000Y3740000D03*
X8140000D03*
X8240000D03*
X8340000D03*
X8440000D03*
X8540000D03*
X8040000D03*
X8400000Y3600000D03*
X8640000Y5060000D03*
X8440000D03*
X8540000D03*
X8340000D03*
X8240000D03*
X8140000D03*
X8040000D03*
X8400000Y5200000D03*
Y5600000D03*
Y6000000D03*
Y6200000D03*
Y6400000D03*
Y6800000D03*
Y7200000D03*
Y7600000D03*
Y8000000D03*
X8370000Y8400000D03*
X8320000Y8210000D03*
X8330000Y8560000D03*
X8140000Y8630000D03*
Y8150000D03*
X8660000Y8640000D03*
X8560000D03*
X8460000D03*
X8660000Y8530000D03*
X8560000D03*
X8660000Y8440000D03*
X8560000D03*
X8660000Y8340000D03*
X8560000D03*
X8060000Y8740000D03*
X8260000D03*
X8360000D03*
X8460000D03*
X8160000D03*
X8560000D03*
X8660000D03*
X8740000Y140000D03*
Y240000D03*
Y340000D03*
Y740000D03*
Y440000D03*
Y540000D03*
Y640000D03*
Y1440000D03*
Y1340000D03*
Y1240000D03*
Y1140000D03*
Y840000D03*
Y940000D03*
Y1040000D03*
Y1540000D03*
Y1940000D03*
Y1640000D03*
Y1740000D03*
Y1840000D03*
Y2040000D03*
Y2640000D03*
Y2540000D03*
Y2440000D03*
Y2340000D03*
Y2140000D03*
Y2240000D03*
Y2740000D03*
Y3140000D03*
Y2840000D03*
Y2940000D03*
Y3040000D03*
Y3240000D03*
Y3340000D03*
Y3640000D03*
Y3540000D03*
Y3440000D03*
Y5140000D03*
Y5240000D03*
Y5340000D03*
Y6040000D03*
Y5540000D03*
Y5440000D03*
Y5940000D03*
Y5640000D03*
Y5740000D03*
Y5840000D03*
Y6240000D03*
Y6140000D03*
Y6340000D03*
Y6440000D03*
Y6540000D03*
Y6640000D03*
Y6740000D03*
Y7340000D03*
Y7240000D03*
Y7140000D03*
Y6840000D03*
Y6940000D03*
Y7040000D03*
Y7440000D03*
Y7540000D03*
Y7840000D03*
Y7740000D03*
Y7640000D03*
Y7940000D03*
Y8240000D03*
Y8140000D03*
Y8040000D03*
Y8340000D03*
Y8440000D03*
Y8540000D03*
Y8640000D03*
G54D12*
X800000Y840000D03*
X600000Y7800000D03*
X7900000Y300000D03*
X8360000Y7760000D03*
G54D13*
X1070010Y2525000D03*
Y2415000D03*
X3590010Y6885000D03*
Y6775000D03*
X5980010Y2525000D03*
Y2415000D03*
G54D14*
X3099770Y3447000D03*
Y4400000D03*
Y5670000D03*
X5700230Y3447000D03*
Y4400000D03*
Y5670000D03*
G54D15*
G01X2490010Y4940010D02*
X2200020Y5230000D01*
X1386190D01*
X1380240Y5230590D01*
X1375580Y5234420D01*
X1174310Y5435690D01*
X1170580Y5440240D01*
X1170000Y5446190D01*
Y6529880D01*
X1169990Y6529980D01*
X1059990Y6639980D01*
X1059790Y6640000D01*
X500000D01*
G01X2490010Y4940010D02*
X2300000Y4750000D01*
Y3180010D01*
X2616160Y2863850D01*
X4943850D01*
X5200100Y3120100D01*
Y3447000D01*
G01X4400000Y5670000D02*
Y5370000D01*
X4200000Y5170000D01*
X2720000D01*
X2490010Y4940010D01*
X3999950Y3447000D03*
Y4400000D03*
Y5670000D03*
X4400000Y3447000D03*
Y4400000D03*
Y5670000D03*
X5200100Y3447000D03*
X4800050D03*
X5200100Y4400000D03*
X4800050D03*
X5200100Y5670000D03*
X4800050D03*
G54D16*
X3599900Y3447000D03*
Y4400000D03*
Y5670000D03*
G54D17*
X5898000Y8487000D03*
Y8233000D03*
X6152000Y8487000D03*
Y8233000D03*
X6406000Y8487000D03*
Y8233000D03*
X6660000Y8487000D03*
Y8233000D03*
X6914000Y8487000D03*
Y8233000D03*
X7168000Y8487000D03*
Y8233000D03*
X7422000Y8487000D03*
G54D18*
Y8233000D03*
G54D19*
G01X1070010Y2525000D02*
Y2580500D01*
G01X1014510Y2525000D02*
X1070010D01*
G01D02*
X1125510D01*
G01X1070010Y2359500D02*
Y2415000D01*
G01X1014510D02*
X1070010D01*
G01D02*
X1125510D01*
G01X3999950Y5552200D02*
Y5670000D01*
G01D02*
Y5787800D01*
G01X3882150Y5670000D02*
X3999950D01*
G01D02*
X4117750D01*
G01X3590010Y6719500D02*
Y6775000D01*
G01X3534510D02*
X3590010D01*
G01D02*
X3645510D01*
G01X3534510Y6885000D02*
X3590010D01*
G01D02*
X3645510D01*
G01X3590010Y6732200D02*
Y6775000D01*
G01D02*
Y6817800D01*
G01X3547210Y6775000D02*
X3590010D01*
G01D02*
X3632810D01*
G01X3590010Y6842200D02*
Y6885000D01*
G01D02*
Y6927800D01*
G01X3547210Y6885000D02*
X3590010D01*
G01D02*
X3632810D01*
G01X4669550Y3447000D02*
X4800050D01*
G01Y3316500D02*
Y3447000D01*
G01D02*
Y3577500D01*
G01Y3447000D02*
X4930550D01*
G01X5980010Y2359500D02*
Y2415000D01*
G01X5924510D02*
X5980010D01*
G01D02*
X6035510D01*
G01X5980010Y2525000D02*
Y2580500D01*
G01X5924510Y2525000D02*
X5980010D01*
G01D02*
X6035510D01*
G01X5898000Y8374000D02*
Y8487000D01*
G01D02*
Y8600000D01*
G01X5785000Y8487000D02*
X5898000D01*
G01D02*
X6011000D01*
G01X6152000Y8374000D02*
Y8487000D01*
G01D02*
Y8600000D01*
G01X6039000Y8487000D02*
X6152000D01*
G01X6660000Y8386700D02*
Y8487000D01*
G01D02*
Y8587300D01*
G01Y8487000D02*
X6760300D01*
G01X6914000Y8386700D02*
Y8487000D01*
G01D02*
Y8587300D01*
G01X6813700Y8487000D02*
X6914000D01*
G01X7168000Y8374000D02*
Y8487000D01*
G01D02*
Y8600000D01*
G01Y8487000D02*
X7281000D01*
M02*
