G04 ================== begin FILE IDENTIFICATION RECORD ==================*
G04 Layout Name:  Adaptor_V120.brd*
G04 Film Name:    ADAPTOR_ver120_SMASK_TOP.art*
G04 File Format:  Gerber RS274X*
G04 File Origin:  Cadence Allegro 17.2-S052*
G04 Origin Date:  Thu Apr 10 18:36:39 2025*
G04 *
G04 Layer:  BOARD GEOMETRY/DESIGN_OUTLINE*
G04 Layer:  PIN/SOLDERMASK_TOP*
G04 Layer:  PACKAGE GEOMETRY/SOLDERMASK_TOP*
G04 Layer:  BOARD GEOMETRY/SOLDERMASK_TOP*
G04 *
G04 Offset:    (0.0000 0.0000)*
G04 Mirror:    No*
G04 Mode:      Positive*
G04 Rotation:  0*
G04 FullContactRelief:  No*
G04 UndefLineWidth:     0.1270*
G04 ================== end FILE IDENTIFICATION RECORD ====================*
%FSLAX25Y25*MOMM*%
%IR0*IPPOS*OFA0.00000B0.00000*MIA0B0*SFA1.00000B1.00000*%
%ADD19R,2.4X.3*%
%ADD16C,.27*%
%ADD14C,.6016*%
%ADD18C,.2546*%
%ADD13R,.9652X1.0414*%
%ADD12R,1.0414X.9652*%
%ADD17R,.25X.6*%
%ADD24C,2.4*%
%ADD20R,.45X.7*%
%ADD23C,5.5*%
%ADD25R,2.4X2.4*%
%ADD11C,1.1506*%
%ADD26C,1.85*%
%ADD27R,1.85X1.85*%
%ADD10C,6.55*%
%ADD15R,.5516X.4016*%
%ADD21R,1.8796X2.54*%
%ADD22R,2.2504X1.7958*%
%ADD28C,.127*%
G75*
%LPD*%
G75*
G36*
G01X5120000Y8780000D02*
X8680000D01*
G02X8780000Y8680000I0J-100000D01*
G01Y5120000D01*
G02X8680000Y5020000I-100000J0D01*
G01X7880000D01*
G03X7780000Y4920000I0J-100000D01*
G01Y3880000D01*
G03X7880000Y3780000I100000J0D01*
G01X8680000D01*
G02X8780000Y3680000I0J-100000D01*
G01Y120000D01*
G02X8680000Y20000I-100000J0D01*
G01X7820000D01*
G02X7720000Y120000I0J100000D01*
G01Y920000D01*
G03X7620000Y1020000I-100000J0D01*
G01X6380000D01*
G03X6280000Y920000I0J-100000D01*
G01Y120000D01*
G02X6180000Y20000I-100000J0D01*
G01X2620000D01*
G02X2520000Y120000I0J100000D01*
G01Y920000D01*
G03X2420000Y1020000I-100000J0D01*
G01X1180000D01*
G03X1080000Y920000I0J-100000D01*
G01Y120000D01*
G02X980000Y20000I-100000J0D01*
G01X120000D01*
G02X20000Y120000I0J100000D01*
G01Y3680000D01*
G02X120000Y3780000I100000J0D01*
G01X920000D01*
G03X1020000Y3880000I0J100000D01*
G01Y4920000D01*
G03X920000Y5020000I-100000J0D01*
G01X120000D01*
G02X20000Y5120000I0J100000D01*
G01Y8680000D01*
G02X120000Y8780000I100000J0D01*
G01X3680000D01*
G02X3780000Y8680000I0J-100000D01*
G01Y7880000D01*
G03X3880000Y7780000I100000J0D01*
G01X4920000D01*
G03X5020000Y7880000I0J100000D01*
G01Y8680000D01*
G02X5120000Y8780000I100000J0D01*
G37*
%LPC*%
G75*
G36*
G01X5100000Y7800000D02*
Y8600000D01*
G02X5200000Y8700000I100000J0D01*
G01X7830000D01*
G02X7930000Y8600000I0J-100000D01*
G01Y8580000D01*
X7960000Y8550000D01*
X8250000D01*
X8300000Y8500000D01*
Y8330000D01*
X8400000Y8230000D01*
X8600000D01*
G02X8700000Y8130000I0J-100000D01*
G01Y5200000D01*
G02X8600000Y5100000I-100000J0D01*
G01X7800000D01*
G03X7700000Y5000000I0J-100000D01*
G01Y3800000D01*
G03X7800000Y3700000I100000J0D01*
G01X8600000D01*
G02X8700000Y3600000I0J-100000D01*
G01Y690000D01*
G02X8600000Y590000I-100000J0D01*
G01X8570000Y560000D01*
Y320000D01*
X8500000Y250000D01*
X8260000D01*
X8220000Y210000D01*
Y200000D01*
G02X8120000Y100000I-100000J0D01*
G01X7900000D01*
G02X7800000Y200000I0J100000D01*
G01Y1000000D01*
G03X7700000Y1100000I-100000J0D01*
G01X6300000D01*
G03X6200000Y1000000I0J-100000D01*
G01Y200000D01*
G02X6100000Y100000I-100000J0D01*
G01X2700000D01*
G02X2600000Y200000I0J100000D01*
G01Y1000000D01*
G03X2500000Y1100000I-100000J0D01*
G01X1100000D01*
G03X1000000Y1000000I0J-100000D01*
G01Y200000D01*
G02X900000Y100000I-100000J0D01*
G01X700000D01*
G02X600000Y200000I0J100000D01*
G01Y210000D01*
X570000Y240000D01*
X330000D01*
X240000Y330000D01*
Y600000D01*
X230000Y610000D01*
X200000D01*
G02X100000Y710000I0J100000D01*
G01Y3600000D01*
G02X200000Y3700000I100000J0D01*
G01X1000000D01*
G03X1100000Y3800000I0J100000D01*
G01Y5000000D01*
G03X1000000Y5100000I-100000J0D01*
G01X200000D01*
G02X100000Y5200000I0J100000D01*
G01Y6090000D01*
G02X200000Y6190000I100000J0D01*
G01X850000D01*
G03X950000Y6290000I0J100000D01*
G01Y6990000D01*
G03X850000Y7090000I-100000J0D01*
G01X200000D01*
G02X100000Y7190000I0J100000D01*
G01Y8140000D01*
G02X200000Y8240000I100000J0D01*
G01X600000D01*
X620000Y8260000D01*
Y8450000D01*
X720000Y8550000D01*
X1000000D01*
X1020000Y8570000D01*
Y8600000D01*
G02X1120000Y8700000I100000J0D01*
G01X3600000D01*
G02X3700000Y8600000I0J-100000D01*
G01Y7800000D01*
G03X3800000Y7700000I100000J0D01*
G01X5000000D01*
G03X5100000Y7800000I0J100000D01*
G37*
%LPD*%
G75*
G36*
G01X1019210Y2548740D02*
X1021750Y2551280D01*
X1118270D01*
X1120810Y2548740D01*
Y2391260D01*
X1118270Y2388720D01*
X1021750D01*
X1019210Y2391260D01*
Y2548740D01*
G37*
G36*
G01X1459000Y2134500D02*
X1429000D01*
X1424000Y2139500D01*
Y2154500D01*
X1429000Y2159500D01*
X1484000D01*
X1489000Y2154500D01*
Y2104500D01*
X1484000Y2099500D01*
X1464000D01*
X1459000Y2104500D01*
Y2134500D01*
G37*
G36*
G01X1629000D02*
Y2104500D01*
X1624000Y2099500D01*
X1604000D01*
X1599000Y2104500D01*
Y2154500D01*
X1604000Y2159500D01*
X1659000D01*
X1664000Y2154500D01*
Y2139500D01*
X1659000Y2134500D01*
X1629000D01*
G37*
G36*
G01Y2304500D02*
X1659000D01*
X1664000Y2299500D01*
Y2284500D01*
X1659000Y2279500D01*
X1604000D01*
X1599000Y2284500D01*
Y2334500D01*
X1604000Y2339500D01*
X1624000D01*
X1629000Y2334500D01*
Y2304500D01*
G37*
G36*
G01X1459000D02*
Y2334500D01*
X1464000Y2339500D01*
X1484000D01*
X1489000Y2334500D01*
Y2284500D01*
X1484000Y2279500D01*
X1429000D01*
X1424000Y2284500D01*
Y2299500D01*
X1429000Y2304500D01*
X1459000D01*
G37*
G36*
G01X1560000Y2820000D02*
Y2960000D01*
X1740000D01*
Y2820000D01*
X1560000D01*
G37*
G36*
G01X3969000Y6484500D02*
X3939000D01*
X3934000Y6489500D01*
Y6504500D01*
X3939000Y6509500D01*
X3994000D01*
X3999000Y6504500D01*
Y6454500D01*
X3994000Y6449500D01*
X3974000D01*
X3969000Y6454500D01*
Y6484500D01*
G37*
G36*
G01Y6654500D02*
Y6684500D01*
X3974000Y6689500D01*
X3994000D01*
X3999000Y6684500D01*
Y6634500D01*
X3994000Y6629500D01*
X3939000D01*
X3934000Y6634500D01*
Y6649500D01*
X3939000Y6654500D01*
X3969000D01*
G37*
G36*
G01X3539210Y6908740D02*
X3541750Y6911280D01*
X3638270D01*
X3640810Y6908740D01*
Y6751260D01*
X3638270Y6748720D01*
X3541750D01*
X3539210Y6751260D01*
Y6908740D01*
G37*
G36*
G01X4139000Y6484500D02*
Y6454500D01*
X4134000Y6449500D01*
X4114000D01*
X4109000Y6454500D01*
Y6504500D01*
X4114000Y6509500D01*
X4169000D01*
X4174000Y6504500D01*
Y6489500D01*
X4169000Y6484500D01*
X4139000D01*
G37*
G36*
G01Y6654500D02*
X4169000D01*
X4174000Y6649500D01*
Y6634500D01*
X4169000Y6629500D01*
X4114000D01*
X4109000Y6634500D01*
Y6684500D01*
X4114000Y6689500D01*
X4134000D01*
X4139000Y6684500D01*
Y6654500D01*
G37*
G36*
G01X4090000Y7170000D02*
Y7310000D01*
X4270000D01*
Y7170000D01*
X4090000D01*
G37*
G36*
G01X5929210Y2548740D02*
X5931750Y2551280D01*
X6028270D01*
X6030810Y2548740D01*
Y2391260D01*
X6028270Y2388720D01*
X5931750D01*
X5929210Y2391260D01*
Y2548740D01*
G37*
G36*
G01X6369000Y2124500D02*
X6339000D01*
X6334000Y2129500D01*
Y2144500D01*
X6339000Y2149500D01*
X6394000D01*
X6399000Y2144500D01*
Y2094500D01*
X6394000Y2089500D01*
X6374000D01*
X6369000Y2094500D01*
Y2124500D01*
G37*
G36*
G01X6539000D02*
Y2094500D01*
X6534000Y2089500D01*
X6514000D01*
X6509000Y2094500D01*
Y2144500D01*
X6514000Y2149500D01*
X6569000D01*
X6574000Y2144500D01*
Y2129500D01*
X6569000Y2124500D01*
X6539000D01*
G37*
G36*
G01Y2294500D02*
X6569000D01*
X6574000Y2289500D01*
Y2274500D01*
X6569000Y2269500D01*
X6514000D01*
X6509000Y2274500D01*
Y2324500D01*
X6514000Y2329500D01*
X6534000D01*
X6539000Y2324500D01*
Y2294500D01*
G37*
G36*
G01X6369000D02*
Y2324500D01*
X6374000Y2329500D01*
X6394000D01*
X6399000Y2324500D01*
Y2274500D01*
X6394000Y2269500D01*
X6339000D01*
X6334000Y2274500D01*
Y2289500D01*
X6339000Y2294500D01*
X6369000D01*
G37*
G36*
G01X6450000Y2810000D02*
Y2950000D01*
X6630000D01*
Y2810000D01*
X6450000D01*
G37*
G54D10*
X408000Y408000D03*
X500000Y6640000D03*
X798000Y8392000D03*
X8138000D03*
X8409000Y408000D03*
G54D11*
X800000Y840000D03*
X600000Y7800000D03*
X7900000Y300000D03*
X8360000Y7760000D03*
G54D20*
X1700000Y2890000D03*
X1600000D03*
X4230000Y7240000D03*
X4130000D03*
X6590000Y2880000D03*
X6490000D03*
G54D21*
X2772290Y1799500D03*
X2195710D03*
X2772290Y2299500D03*
X2195710D03*
X4705710Y6209500D03*
Y6709500D03*
X5282290Y6209500D03*
Y6709500D03*
X7105710Y1789500D03*
Y2289500D03*
X7682290Y1789500D03*
Y2289500D03*
G54D12*
X1241900Y1756200D03*
X1394300D03*
X1178400Y2251500D03*
X1026000D03*
X1521300Y1756200D03*
X1673700D03*
X1800700D03*
X1953100D03*
X3123800Y210000D03*
X3276200D03*
X3423800D03*
X3576200D03*
X3688400Y6601500D03*
X3536000D03*
X3751900Y6106200D03*
X3904300D03*
X4031300D03*
X4423800Y210000D03*
X4576200D03*
X4123800D03*
X4276200D03*
X4183700Y6106200D03*
X4310700D03*
X4463100D03*
X5203800Y210000D03*
X5356200D03*
X5503800D03*
X5656200D03*
X5936000Y2241500D03*
X6151900Y1746200D03*
X6304300D03*
X6431300D03*
X6583700D03*
X6088400Y2241500D03*
X6710700Y1746200D03*
X6863100D03*
G54D22*
X2678000Y2760000D03*
X2262000D03*
X4772000Y7160000D03*
X5188000D03*
X7172000Y2740000D03*
X7588000D03*
G54D13*
X1388500Y2498300D03*
Y2650700D03*
X1954000Y2013300D03*
X1820000Y2013800D03*
X1814000Y2343300D03*
Y2495700D03*
X1954000Y2165700D03*
X1518500Y2498300D03*
Y2650700D03*
X1820000Y2166200D03*
X3898500Y6848300D03*
Y7000700D03*
X4028500Y6848300D03*
Y7000700D03*
X4324000Y6693300D03*
X4464000Y6515700D03*
Y6363300D03*
X4330000Y6516200D03*
Y6363800D03*
X4324000Y6845700D03*
X6294000Y2493300D03*
Y2645700D03*
X6424000Y2493300D03*
Y2645700D03*
X6864000Y2003300D03*
X6734000D03*
X6724000Y2333300D03*
Y2485700D03*
X6864000Y2155700D03*
X6734000D03*
G54D23*
X3099770Y3447000D03*
Y4400000D03*
Y5670000D03*
X5700230Y3447000D03*
Y4400000D03*
Y5670000D03*
G54D14*
X1070010Y2525000D03*
Y2415000D03*
X3590010Y6885000D03*
Y6775000D03*
X5980010Y2525000D03*
Y2415000D03*
G54D15*
X1167510Y2535000D03*
Y2470000D03*
Y2405000D03*
X972510D03*
Y2470000D03*
Y2535000D03*
X3687510Y6895000D03*
Y6830000D03*
Y6765000D03*
X3492510D03*
Y6830000D03*
Y6895000D03*
X5882510Y2405000D03*
Y2470000D03*
Y2535000D03*
X6077510D03*
Y2470000D03*
Y2405000D03*
G54D24*
X3999950Y3447000D03*
Y4400000D03*
Y5670000D03*
X4400000Y3447000D03*
Y4400000D03*
Y5670000D03*
X5200100Y3447000D03*
X4800050D03*
X5200100Y4400000D03*
X4800050D03*
X5200100Y5670000D03*
X4800050D03*
G54D25*
X3599900Y3447000D03*
Y4400000D03*
Y5670000D03*
G54D16*
X1474000Y2294500D03*
Y2144500D03*
X3984000Y6644500D03*
Y6494500D03*
X6384000Y2284500D03*
Y2134500D03*
G54D26*
X5898000Y8487000D03*
Y8233000D03*
X6152000Y8487000D03*
Y8233000D03*
X6406000Y8487000D03*
Y8233000D03*
X6660000Y8487000D03*
Y8233000D03*
X6914000Y8487000D03*
Y8233000D03*
X7168000Y8487000D03*
Y8233000D03*
X7422000Y8487000D03*
G54D17*
X1521500Y2309500D03*
X1566500D03*
Y2129500D03*
X1521500D03*
X4031500Y6659500D03*
Y6479500D03*
X4076500Y6659500D03*
Y6479500D03*
X6431500Y2299500D03*
X6476500D03*
Y2119500D03*
X6431500D03*
G54D27*
X7422000Y8233000D03*
G54D18*
X1619000Y2294500D03*
Y2144500D03*
X4129000Y6644500D03*
Y6494500D03*
X6529000Y2284500D03*
Y2134500D03*
G54D28*
G01X0Y100000D02*
Y3700000D01*
G02X100000Y3800000I100000J0D01*
G01X900000D01*
G03X1000000Y3900000I0J100000D01*
G01Y4900000D01*
G03X900000Y5000000I-100000J0D01*
G01X100000D01*
G02X0Y5100000I0J100000D01*
G01Y8700000D01*
G02X100000Y8800000I100000J0D01*
G01X3700000D01*
G02X3800000Y8700000I0J-100000D01*
G01Y7900000D01*
G03X3900000Y7800000I100000J0D01*
G01X4900000D01*
G03X5000000Y7900000I0J100000D01*
G01Y8700000D01*
G02X5100000Y8800000I100000J0D01*
G01X8700000D01*
G02X8800000Y8700000I0J-100000D01*
G01Y5100000D01*
G02X8700000Y5000000I-100000J0D01*
G01X7900000D01*
G03X7800000Y4900000I0J-100000D01*
G01Y3900000D01*
G03X7900000Y3800000I100000J0D01*
G01X8700000D01*
G02X8800000Y3700000I0J-100000D01*
G01Y100000D01*
G02X8700000Y0I-100000J0D01*
G01X7800000D01*
G02X7700000Y100000I0J100000D01*
G01Y900000D01*
G03X7600000Y1000000I-100000J0D01*
G01X6400000D01*
G03X6300000Y900000I0J-100000D01*
G01Y100000D01*
G02X6200000Y0I-100000J0D01*
G01X2600000D01*
G02X2500000Y100000I0J100000D01*
G01Y900000D01*
G03X2400000Y1000000I-100000J0D01*
G01X1200000D01*
G03X1100000Y900000I0J-100000D01*
G01Y100000D01*
G02X1000000Y0I-100000J0D01*
G01X100000D01*
G02X0Y100000I0J100000D01*
G54D19*
X1544000Y2244500D03*
Y2194500D03*
X4054000Y6594500D03*
Y6544500D03*
X6454000Y2234500D03*
Y2184500D03*
M02*
