G04 ================== begin FILE IDENTIFICATION RECORD ==================*
G04 Layout Name:  Adaptor_V111.brd*
G04 Film Name:    ADAPTOR_ver1.1.1_TOP.art*
G04 File Format:  Gerber RS274X*
G04 File Origin:  Cadence Allegro 17.2-S052*
G04 Origin Date:  Fri Mar 21 16:15:59 2025*
G04 *
G04 Layer:  BOARD GEOMETRY/DESIGN_OUTLINE*
G04 Layer:  ETCH/TOP*
G04 Layer:  PIN/TOP*
G04 Layer:  VIA CLASS/TOP*
G04 *
G04 Offset:    (0.0000 0.0000)*
G04 Mirror:    No*
G04 Mode:      Positive*
G04 Rotation:  0*
G04 FullContactRelief:  No*
G04 UndefLineWidth:     0.1270*
G04 ================== end FILE IDENTIFICATION RECORD ====================*
%FSLAX25Y25*MOMM*%
%IR0*IPPOS*OFA0.00000B0.00000*MIA0B0*SFA1.00000B1.00000*%
%ADD20R,2.4X.3*%
%ADD15C,.5*%
%ADD17C,.27*%
%ADD19C,.2546*%
%ADD11C,.6096*%
%ADD25C,2.*%
%ADD16R,.45X.3*%
%ADD18R,.25X.6*%
%ADD21R,.35X.6*%
%ADD26R,2.X2.*%
%ADD24C,5.301*%
%ADD12C,1.0008*%
%ADD28R,1.65X1.65*%
%ADD27C,1.65*%
%ADD10C,6.35*%
%ADD22R,1.8796X2.54*%
%ADD14R,.8128X.889*%
%ADD13R,.889X.8128*%
%ADD23R,2.1488X1.6967*%
%ADD29C,.3*%
%ADD30C,.4*%
%ADD31C,.23*%
%ADD32C,.434*%
%ADD33C,.58*%
%ADD34C,.3048*%
%ADD35C,.127*%
%ADD36C,4.025*%
%ADD40C,2.5084*%
%ADD39C,2.6544*%
%ADD37C,1.8552*%
%ADD38C,5.9554*%
G75*
%LPD*%
G75*
G36*
G01X8680000Y8780000D02*
G02X8780000Y8680000I0J-100000D01*
G01Y5120000D01*
G02X8680000Y5020000I-100000J0D01*
G01X7880000D01*
G03X7780000Y4920000I0J-100000D01*
G01Y3880000D01*
G03X7880000Y3780000I100000J0D01*
G01X8680000D01*
G02X8780000Y3680000I0J-100000D01*
G01Y120000D01*
G02X8680000Y20000I-100000J0D01*
G01X7820000D01*
G02X7720000Y120000I0J100000D01*
G01Y920000D01*
G03X7620000Y1020000I-100000J0D01*
G01X6380000D01*
G03X6280000Y920000I0J-100000D01*
G01Y120000D01*
G02X6180000Y20000I-100000J0D01*
G01X2620000D01*
G02X2520000Y120000I0J100000D01*
G01Y920000D01*
G03X2420000Y1020000I-100000J0D01*
G01X1180000D01*
G03X1080000Y920000I0J-100000D01*
G01Y120000D01*
G02X980000Y20000I-100000J0D01*
G01X120000D01*
G02X20000Y120000I0J100000D01*
G01Y3680000D01*
G02X120000Y3780000I100000J0D01*
G01X920000D01*
G03X1020000Y3880000I0J100000D01*
G01Y4920000D01*
G03X920000Y5020000I-100000J0D01*
G01X120000D01*
G02X20000Y5120000I0J100000D01*
G01Y8680000D01*
G02X120000Y8780000I100000J0D01*
G01X3680000D01*
G02X3780000Y8680000I0J-100000D01*
G01Y7880000D01*
G03X3880000Y7780000I100000J0D01*
G01X4920000D01*
G03X5020000Y7880000I0J100000D01*
G01Y8680000D01*
G02X5120000Y8780000I100000J0D01*
G01X8680000D01*
G37*
%LPC*%
G75*
G36*
G01X5100000Y8600000D02*
G02X5200000Y8700000I100000J0D01*
G01X7830000D01*
G02X7930000Y8600000I0J-100000D01*
G01Y8580000D01*
X7960000Y8550000D01*
X8250000D01*
X8300000Y8500000D01*
Y8330000D01*
X8400000Y8230000D01*
X8600000D01*
G02X8700000Y8130000I0J-100000D01*
G01Y5200000D01*
G02X8600000Y5100000I-100000J0D01*
G01X7800000D01*
G03X7700000Y5000000I0J-100000D01*
G01Y3800000D01*
G03X7800000Y3700000I100000J0D01*
G01X8600000D01*
G02X8700000Y3600000I0J-100000D01*
G01Y690000D01*
G02X8602020Y590020I-100000J0D01*
G01X8599980Y589980D01*
X8570000Y560000D01*
Y320000D01*
X8500000Y250000D01*
X8260000D01*
X8220000Y210000D01*
Y200000D01*
G02X8120000Y100000I-100000J0D01*
G01X7900000D01*
G02X7800000Y200000I0J100000D01*
G01Y1000000D01*
G03X7700000Y1100000I-100000J0D01*
G01X6300000D01*
G03X6200000Y1000000I0J-100000D01*
G01Y200000D01*
G02X6100000Y100000I-100000J0D01*
G01X2700000D01*
G02X2600000Y200000I0J100000D01*
G01Y1000000D01*
G03X2500000Y1100000I-100000J0D01*
G01X1100000D01*
G03X1000000Y1000000I0J-100000D01*
G01Y200000D01*
G02X900000Y100000I-100000J0D01*
G01X700000D01*
G02X600000Y200000I0J100000D01*
G01Y210000D01*
X570000Y240000D01*
X330000D01*
X240000Y330000D01*
Y600000D01*
X230000Y610000D01*
X200000D01*
G02X100000Y710000I0J100000D01*
G01Y3600000D01*
G02X200000Y3700000I100000J0D01*
G01X1000000D01*
G03X1100000Y3800000I0J100000D01*
G01Y5000000D01*
G03X1000000Y5100000I-100000J0D01*
G01X200000D01*
G02X100000Y5200000I0J100000D01*
G01Y6090000D01*
G02X200000Y6190000I100000J0D01*
G01X850000D01*
G03X950000Y6290000I0J100000D01*
G01Y6990000D01*
G03X850000Y7090000I-100000J0D01*
G01X200000D01*
G02X100000Y7190000I0J100000D01*
G01Y8140000D01*
G02X200000Y8240000I100000J0D01*
G01X600000D01*
X620000Y8260000D01*
Y8450000D01*
X720000Y8550000D01*
X1000000D01*
X1020000Y8570000D01*
Y8600000D01*
G02X1120000Y8700000I100000J0D01*
G01X3600000D01*
G02X3700000Y8600000I0J-100000D01*
G01Y7800000D01*
G03X3790840Y7700420I100000J0D01*
G01X5009160D01*
G03X5100000Y7800000I-9160J99580D01*
G01Y8600000D01*
G37*
G54D36*
X500000Y6640000D03*
%LPD*%
G75*
G36*
G01X1000000Y3649580D02*
G03X1111860Y3699440I0J150408D01*
G02X1129580Y3692650I7559J-6790D01*
G01Y3680880D01*
X489580Y3040880D01*
Y1679120D01*
X859120Y1309580D01*
X2320880D01*
X2391280Y1379980D01*
X2509280D01*
X3072140Y817120D01*
Y347840D01*
G03X3073630Y335730I50019J8D01*
G01X3073780Y335120D01*
Y293190D01*
X3069830Y292290D01*
G03X3036630Y250640I9525J-41650D01*
G01Y169360D01*
G03X3037220Y162270I42721J-14D01*
G02X3027200Y150420I-10017J-1691D01*
G01X2700000D01*
G02X2650420Y200000I0J49580D01*
G01Y1000000D01*
G03X2500000Y1150420I-150420J0D01*
G01X1100000D01*
G03X949580Y1000000I0J-150420D01*
G01Y200000D01*
G02X900000Y150420I-49580J0D01*
G01X700000D01*
G02X662570Y167480I0J49591D01*
G03X758220Y408000I-254579J240520D01*
G03X408000Y758220I-350220J0D01*
G03X173480Y668110I-5J-350222D01*
G02X150420Y710000I26518J41890D01*
G01Y3600000D01*
G02X200000Y3649580I49580J0D01*
G01X1000000D01*
G37*
G36*
G01X2327660Y6576350D02*
G02X2345000Y6569170I7182J-7185D01*
G01Y5066300D01*
X2109580Y4830880D01*
Y3940880D01*
X1099580Y2930880D01*
Y2582390D01*
G02X1086170Y2572760I-10160J-4D01*
G03X1070010Y2575420I-16160J-47758D01*
G03X1033630Y2559910I0J-50421D01*
G02X1017360Y2562100I-7336J7031D01*
G03X995010Y2575420I-22350J-12091D01*
G01X950010D01*
G03X924590Y2550000I0J-25420D01*
G01Y2520000D01*
G03X931570Y2502500I25428J0D01*
G03X924590Y2485000I18448J-17500D01*
G01Y2455000D01*
G03X931570Y2437500I25428J0D01*
G03X924590Y2420000I18448J-17500D01*
G01Y2390000D01*
G03X950010Y2364580I25420J0D01*
G01X995010D01*
G03X1017360Y2377900I0J25411D01*
G02X1033630Y2380090I8934J-4841D01*
G03X1070010Y2364580I36380J34911D01*
G03X1086170Y2367240I0J50418D01*
G02X1099580Y2357610I3250J-9626D01*
G01Y2317510D01*
G03X1098570Y2316080I34381J-25355D01*
G02X1084520Y2313310I-8419J5688D01*
G03X1070450Y2317560I-14070J-21165D01*
G01X981550D01*
G03X956130Y2292140I0J-25420D01*
G01Y2210860D01*
G03X981550Y2185440I25420J0D01*
G01X1070450D01*
G03X1084520Y2189690I0J25415D01*
G02X1098570Y2186920I5631J-8458D01*
G03X1099580Y2185490I35391J23925D01*
G01Y1692120D01*
X1147620Y1644080D01*
X1289380D01*
X1325530Y1680230D01*
X1328890Y1678340D01*
G03X1349850Y1672840I20968J37218D01*
G01X1438750D01*
G03X1457800Y1677320I5J42721D01*
G03X1476850Y1672840I19045J38241D01*
G01X1565750D01*
G03X1594130Y1683630I0J42718D01*
G02X1600870I3370J-3802D01*
G03X1629250Y1672840I28380J31928D01*
G01X1718150D01*
G03X1737200Y1677320I5J42721D01*
G03X1756250Y1672840I19045J38241D01*
G01X1845150D01*
G03X1880530Y1691620I0J42717D01*
G02X1894580Y1694390I8419J-5688D01*
G03X1908650Y1690140I14070J21165D01*
G01X1997550D01*
G03X2022970Y1715560I0J25420D01*
G01Y1796840D01*
G03X1997550Y1822260I-25420J0D01*
G01X1908650D01*
G03X1894580Y1818010I0J-25415D01*
G02X1880530Y1820780I-5631J8458D01*
G03X1845150Y1839560I-35380J-23937D01*
G01X1756250D01*
G03X1737200Y1835080I-5J-42721D01*
G03X1718150Y1839560I-19045J-38241D01*
G01X1713830D01*
X1712600Y1842860D01*
G03X1703060Y1857700I-38899J-14520D01*
G01X1702350Y1858410D01*
G02X1705940Y1867080I3593J3591D01*
G01X1927700D01*
G03X1957060Y1879240I0J41524D01*
G01X1983360Y1905540D01*
G03X1994580Y1926130I-29364J29353D01*
G01X1994640D01*
G03X2022740Y1936670I0J42728D01*
G02X2039580Y1929020I6681J-7653D01*
G01Y1530880D01*
X2019120Y1510420D01*
X950880D01*
X710420Y1750880D01*
Y2939120D01*
X1390420Y3619120D01*
Y5639120D01*
X2327660Y6576350D01*
G37*
G36*
G01X5720000Y8260000D02*
X5790000Y8330000D01*
X6200000D01*
X6250000Y8280000D01*
Y8060000D01*
X5710420Y7520420D01*
X4559120D01*
X4558700Y7520000D01*
X3200000D01*
X1340000Y5660000D01*
Y3640000D01*
X660000Y2960000D01*
Y1730000D01*
X930000Y1460000D01*
X2040000D01*
X2090000Y1510000D01*
Y1770000D01*
X2294750D01*
Y1664860D01*
X2370000D01*
Y1430000D01*
X2300000Y1360000D01*
X880000D01*
X540000Y1700000D01*
Y3020000D01*
X1180000Y3660000D01*
Y5710000D01*
X3120000Y7650000D01*
X5460000D01*
X5720000Y7910000D01*
Y8260000D01*
G37*
G36*
G01X1120000Y8649580D02*
X3600000D01*
G02X3649580Y8600000I0J-49580D01*
G01Y7800000D01*
G03X3675060Y7716240I150411J0D01*
G02X3666620Y7700420I-8438J-5660D01*
G01X3099120D01*
X1129580Y5730880D01*
Y5107350D01*
G02X1111860Y5100560I-10161J0D01*
G03X1000000Y5150420I-111860J-100548D01*
G01X200000D01*
G02X150420Y5200000I0J49580D01*
G01Y6090000D01*
G02X200000Y6139580I49580J0D01*
G01X850000D01*
G03X1000420Y6290000I0J150420D01*
G01Y6990000D01*
G03X850000Y7140420I-150420J0D01*
G01X200000D01*
G02X150420Y7190000I0J49580D01*
G01Y8140000D01*
G02X200000Y8189580I49580J0D01*
G01X512200D01*
G03X798000Y8041780I285800J202425D01*
G03X1148220Y8392000I0J350220D01*
G03X1071580Y8610650I-350219J0D01*
G02X1120000Y8649580I48420J-10647D01*
G37*
G36*
G01X1664500Y2209480D02*
Y2179520D01*
X1595710D01*
X1595690Y2179500D01*
X1579800D01*
G03X1579000Y2179520I-900J-19997D01*
G01X1554000D01*
G03X1553200Y2179500I100J-20017D01*
G01X1534800D01*
G03X1534000Y2179520I-900J-19997D01*
G01X1509000D01*
G03X1508200Y2179500I100J-20017D01*
G01X1496380D01*
X1495180Y2180210D01*
G03X1474000Y2186020I-21180J-35700D01*
G03X1451700Y2179520I5J-41519D01*
G01X1420710D01*
X1420690Y2179500D01*
X1409500D01*
X1400000Y2170000D01*
Y2060000D01*
X1290000Y1950000D01*
Y1716000D01*
X1268500Y1694500D01*
X1168500D01*
X1150000Y1713000D01*
Y2910000D01*
X1200000Y2960000D01*
X1620000D01*
Y2830000D01*
X1310000D01*
X1290000Y2810000D01*
X1288500D01*
Y2431500D01*
X1400000Y2320000D01*
Y2220000D01*
X1410500Y2209500D01*
X1423200D01*
G03X1424000Y2209480I900J19997D01*
G01X1664500D01*
G37*
G36*
G01X1019210Y2391260D02*
Y2548740D01*
X1021750Y2551280D01*
X1118270D01*
X1120810Y2548740D01*
Y2391260D01*
X1118270Y2388720D01*
X1021750D01*
X1019210Y2391260D01*
G37*
G36*
G01X1346950Y2736050D02*
X1854950D01*
X1893050Y2697950D01*
Y2456650D01*
X1880350Y2443950D01*
X1864820D01*
Y2444920D01*
X1765080D01*
X1740650Y2469350D01*
Y2596350D01*
X1727950Y2609050D01*
X1346950D01*
Y2736050D01*
G37*
G36*
G01X850000Y2120000D02*
Y2630000D01*
X1070000D01*
Y2590000D01*
X1110000Y2550000D01*
Y2390000D01*
X1070000Y2350000D01*
Y2120000D01*
X850000D01*
G37*
G36*
G01X1338920Y2779580D02*
X1898080D01*
Y2428840D01*
G02X1881530Y2420950I-10158J6D01*
G03X1878580Y2423130I-26841J-33236D01*
G02X1875810Y2437180I5688J8419D01*
G03X1880060Y2451250I-21165J14070D01*
G01Y2540150D01*
G03X1854640Y2565570I-25420J0D01*
G01X1773360D01*
G03X1747940Y2540150I0J-25420D01*
G01Y2451250D01*
G03X1752190Y2437180I25415J0D01*
G02X1749420Y2423130I-8458J-5631D01*
G03X1730680Y2389670I23937J-35384D01*
G01X1730460Y2384820D01*
X1667800D01*
G03X1651040Y2381290I-6J-41521D01*
G01X1647850Y2379880D01*
X1642810Y2384920D01*
X1585190D01*
X1580360Y2380100D01*
G02X1563020Y2387280I-7182J7184D01*
G01Y2403690D01*
G03X1562920Y2406530I-41519J-40D01*
G02X1567050Y2411870I5069J346D01*
G03X1601860Y2453850I-7908J41980D01*
G01Y2542750D01*
G03X1583080Y2578130I-42717J0D01*
G02X1580310Y2592180I5688J8419D01*
G03X1584560Y2606250I-21165J14070D01*
G01Y2695150D01*
G03X1559140Y2720570I-25420J0D01*
G01X1477860D01*
G03X1460460Y2713680I0J-25416D01*
G02X1446540I-6960J7403D01*
G03X1429140Y2720570I-17400J-18526D01*
G01X1347860D01*
G03X1344640Y2720370I-37J-25422D01*
G01X1344320Y2720320D01*
X1338920D01*
Y2779580D01*
G37*
G36*
G01X5030000Y5780000D02*
X5110000Y5860000D01*
X5270000D01*
X5360000Y5770000D01*
Y5440000D01*
X4920000Y5000000D01*
X2570000D01*
X2330000Y4760000D01*
Y3930000D01*
X1440000Y3040000D01*
Y2980000D01*
X1460000Y2960000D01*
Y2950000D01*
X1430000Y2920000D01*
X1210000D01*
X1190000Y2940000D01*
Y2950000D01*
X2160000Y3920000D01*
Y4810000D01*
X2469580Y5119580D01*
X4830880D01*
X4851300Y5140000D01*
X4860000D01*
X5030000Y5310000D01*
Y5780000D01*
G37*
G36*
G01X1629000Y2304500D02*
X1659000D01*
X1664000Y2299500D01*
Y2284500D01*
X1659000Y2279500D01*
X1604000D01*
X1599000Y2284500D01*
Y2334500D01*
X1604000Y2339500D01*
X1624000D01*
X1629000Y2334500D01*
Y2304500D01*
G37*
G36*
G01X1534000Y2259480D02*
G03X1534800Y2259500I-100J20017D01*
G01X1553200D01*
G03X1554000Y2259480I900J19997D01*
G01X1579000D01*
G03X1579800Y2259500I-100J20017D01*
G01X1595690D01*
X1595710Y2259480D01*
X1596650D01*
X1597850Y2258770D01*
G03X1619000Y2252980I21150J35734D01*
G03X1641300Y2259480I-5J41519D01*
G01X1667290D01*
X1667310Y2259500D01*
X1948500D01*
Y2830000D01*
X1680000D01*
Y2960000D01*
X2370000D01*
Y2434140D01*
X2294750D01*
Y2164860D01*
X2370000D01*
Y1934140D01*
X2294750D01*
Y1664860D01*
X2370000D01*
Y1554500D01*
X2090000D01*
Y2093000D01*
X2058500Y2124500D01*
X1735500D01*
X1690000Y2170000D01*
Y2229500D01*
X1684520D01*
Y2229520D01*
X1430000D01*
Y2259480D01*
X1492290D01*
X1492310Y2259500D01*
X1508200D01*
G03X1509000Y2259480I900J19997D01*
G01X1534000D01*
G37*
G36*
G01X1459000Y2134500D02*
X1429000D01*
X1424000Y2139500D01*
Y2154500D01*
X1429000Y2159500D01*
X1484000D01*
X1489000Y2154500D01*
Y2104500D01*
X1484000Y2099500D01*
X1464000D01*
X1459000Y2104500D01*
Y2134500D01*
G37*
G36*
G01Y2304500D02*
X1429000D01*
X1424000Y2299500D01*
Y2284500D01*
X1429000Y2279500D01*
X1484000D01*
X1489000Y2284500D01*
Y2334500D01*
X1484000Y2339500D01*
X1464000D01*
X1459000Y2334500D01*
Y2304500D01*
G37*
G36*
G01X1629000Y2134500D02*
X1659000D01*
X1664000Y2139500D01*
Y2154500D01*
X1659000Y2159500D01*
X1604000D01*
X1599000Y2154500D01*
Y2104500D01*
X1604000Y2099500D01*
X1624000D01*
X1629000Y2104500D01*
Y2134500D01*
G37*
G36*
G01X1490420Y3019120D02*
X2327660Y3856350D01*
G02X2345000Y3849170I7182J-7185D01*
G01Y3295000D01*
X2752400Y2887600D01*
G02X2745220Y2870260I-7184J-7182D01*
G01X2570560D01*
G03X2545140Y2844840I0J-25420D01*
G01Y2675160D01*
G03X2570560Y2649740I25420J0D01*
G01X2785440D01*
G03X2810860Y2675160I0J25420D01*
G01Y2804610D01*
G02X2828200Y2811800I10160J2D01*
G01X4025000Y1615000D01*
Y150420D01*
X3655130D01*
G02X3645280Y163090I-3J10161D01*
G03X3646070Y169360I-24628J6288D01*
G01Y250640D01*
G03X3620650Y276060I-25420J0D01*
G01X3531750D01*
G03X3517680Y271810I0J-25415D01*
G02X3503630Y274580I-5631J8458D01*
G03X3468250Y293360I-35380J-23937D01*
G01X3379350D01*
G03X3350000Y281680I0J-42716D01*
G03X3320650Y293360I-29350J-31036D01*
G01X3231750D01*
G03X3203370Y282570I0J-42718D01*
G02X3196630I-3370J3802D01*
G03X3177770Y292290I-28388J-31925D01*
G01X3173820Y293190D01*
Y343930D01*
G03X3173570Y348950I-50021J25D01*
G01X3173350Y351130D01*
G03X3172310Y357390I-49765J-5051D01*
G01X3172180Y357960D01*
Y837840D01*
G03X3157530Y873210I-50023J0D01*
G01X2565370Y1465370D01*
G03X2530000Y1480020I-35370J-35373D01*
G01X2420420D01*
Y1664860D01*
X2653850D01*
X2655210Y1661900D01*
G03X2678310Y1647080I23100J10593D01*
G01X2866270D01*
G03X2891690Y1672500I0J25420D01*
G01Y1926500D01*
G03X2866270Y1951920I-25420J0D01*
G01X2678310D01*
G03X2655210Y1937100I0J-25413D01*
G01X2653850Y1934140D01*
X2420420D01*
Y2164860D01*
X2653850D01*
X2655210Y2161900D01*
G03X2678310Y2147080I23100J10593D01*
G01X2866270D01*
G03X2891690Y2172500I0J25420D01*
G01Y2426500D01*
G03X2866270Y2451920I-25420J0D01*
G01X2678310D01*
G03X2655210Y2437100I0J-25413D01*
G01X2653850Y2434140D01*
X2420420D01*
Y3010420D01*
X1490420D01*
Y3019120D01*
G37*
G36*
G01X1640000Y2950000D02*
X1570000D01*
Y2830000D01*
X1640000D01*
X1620000Y2850000D01*
X1640000Y2870000D01*
X1620000Y2890000D01*
X1640000Y2910000D01*
X1620000Y2930000D01*
X1640000Y2950000D01*
G37*
G36*
G01X1680000D02*
X1730000D01*
Y2830000D01*
X1680000D01*
X1660000Y2850000D01*
X1680000Y2870000D01*
X1660000Y2890000D01*
X1680000Y2910000D01*
X1660000Y2930000D01*
X1680000Y2950000D01*
G37*
G36*
G01X6370000Y4840000D02*
X7060000Y5530000D01*
Y8340000D01*
X7080000Y8360000D01*
X7230000D01*
X7280000Y8310000D01*
Y5460000D01*
X6520000Y4700000D01*
X2930000D01*
X2760000Y4530000D01*
Y3320000D01*
X4590000Y1490000D01*
X6970000D01*
X7000000Y1520000D01*
Y1700000D01*
X7204750D01*
Y1654860D01*
X7280000D01*
Y1370000D01*
X7210000Y1300000D01*
X4590000D01*
X2560000Y3330000D01*
Y4590000D01*
X2809980Y4839980D01*
X5314950D01*
G03X5316220Y4840000I-74J45019D01*
G01X6370000D01*
G37*
G36*
G01X4690000Y5740000D02*
X4730000Y5780000D01*
X4890000D01*
X4930000Y5740000D01*
Y5290000D01*
X4810000Y5170000D01*
X2230000D01*
Y5360000D01*
X4580000D01*
X4690000Y5470000D01*
Y5740000D01*
G37*
G36*
G01X3200000Y7420000D02*
X4479580D01*
Y7370420D01*
X3619580D01*
Y6942380D01*
G02X3606170Y6932760I-10160J6D01*
G03X3590010Y6935420I-16160J-47758D01*
G03X3553630Y6919910I0J-50421D01*
G02X3537360Y6922100I-7336J7031D01*
G03X3515010Y6935420I-22350J-12091D01*
G01X3470010D01*
G03X3444590Y6910000I0J-25420D01*
G01Y6880000D01*
G03X3451570Y6862500I25428J0D01*
G03X3444590Y6845000I18448J-17500D01*
G01Y6815000D01*
G03X3451570Y6797500I25428J0D01*
G03X3444590Y6780000I18448J-17500D01*
G01Y6750000D01*
G03X3470010Y6724580I25420J0D01*
G01X3515010D01*
G03X3537360Y6737900I0J25411D01*
G02X3553630Y6740090I8934J-4841D01*
G03X3590010Y6724580I36380J34911D01*
G03X3606170Y6727240I0J50418D01*
G02X3619580Y6717620I3250J-9626D01*
G01Y6677230D01*
G03X3608570Y6666080I24377J-35082D01*
G02X3594520Y6663310I-8419J5688D01*
G03X3580450Y6667560I-14070J-21165D01*
G01X3491550D01*
G03X3466130Y6642140I0J-25420D01*
G01Y6560860D01*
G03X3491550Y6535440I25420J0D01*
G01X3580450D01*
G03X3594520Y6539690I0J25415D01*
G02X3608570Y6536920I5631J-8458D01*
G03X3619580Y6525770I35387J23932D01*
G01Y6390880D01*
X3399580Y6170880D01*
Y5774510D01*
G02X3379860Y5771070I-10160J3D01*
G03X3099770Y5967770I-280090J-101066D01*
G03X2802000Y5670000I0J-297770D01*
G03X2925150Y5428810I297761J0D01*
G02X2919190Y5410420I-5960J-8229D01*
G01X2629580D01*
X2395420Y5644580D01*
Y6615420D01*
X3200000Y7420000D01*
G37*
G36*
G01X4841050Y2130820D02*
X3790820Y3181050D01*
Y3601050D01*
X3731050Y3660820D01*
X3468950D01*
X3409180Y3601050D01*
Y3138950D01*
X4658950Y1889180D01*
X6009180D01*
Y1649180D01*
X6250820D01*
Y1657930D01*
G02X6256320Y1662990I5081J-4D01*
G03X6259850Y1662840I3577J42568D01*
G01X6348760D01*
G03X6367800Y1667320I-5J42721D01*
G03X6386840Y1662840I19045J38241D01*
G01X6628160D01*
G03X6647200Y1667320I-5J42721D01*
G03X6666240Y1662840I19045J38241D01*
G01X6755150D01*
G03X6790530Y1681620I0J42717D01*
G02X6804580Y1684390I8419J-5688D01*
G03X6818650Y1680140I14070J21165D01*
G01X6907550D01*
G03X6932970Y1705560I0J25420D01*
G01Y1786840D01*
G03X6907550Y1812260I-25420J0D01*
G01X6818650D01*
G03X6804580Y1808010I0J-25415D01*
G02X6790530Y1810780I-5631J8458D01*
G03X6755150Y1829560I-35380J-23937D01*
G01X6666240D01*
G03X6647200Y1825080I5J-42721D01*
G03X6628160Y1829560I-19045J-38241D01*
G01X6623830D01*
X6622600Y1832860D01*
G03X6613060Y1847700I-38899J-14520D01*
G01X6612350Y1848410D01*
G02X6615940Y1857080I3593J3591D01*
G01X6837700D01*
G03X6867060Y1869240I0J41524D01*
G01X6893360Y1895540D01*
G03X6904580Y1916130I-29364J29353D01*
G03X6932740Y1926670I63J42721D01*
G02X6949580Y1919020I6681J-7653D01*
G01Y1540880D01*
X6949120Y1540420D01*
X4610880D01*
X3007400Y3143900D01*
G02X3017400Y3160850I7182J7188D01*
G03X2829790Y3572610I82370J286150D01*
G02X2810420Y3576900I-9210J4288D01*
G01Y4270100D01*
G02X2829790Y4274390I10160J2D01*
G03X3287030Y4631520I269980J125611D01*
G02X3293410Y4649580I6386J7901D01*
G01X5506590D01*
G02X5512970Y4631520I-6J-10159D01*
G03X5402460Y4400000I187264J-231520D01*
G03X5998000I297770J0D01*
G03X5887490Y4631520I-297774J0D01*
G02X5893870Y4649580I6386J7901D01*
G01X6540880D01*
X7330420Y5439120D01*
Y8117990D01*
X7335770D01*
X7336040Y8117960D01*
G03X7339500Y8117780I3428J32542D01*
G01X7504500D01*
G03X7537220Y8150500I0J32720D01*
G01Y8182980D01*
X7542020Y8188050D01*
G03X7571330Y8201170I-2528J44947D01*
G01X7601330Y8231170D01*
G03X7614520Y8263000I-31811J31830D01*
G01Y8266480D01*
G02X7623190Y8270070I5079J-3D01*
G01X7774980Y8118280D01*
Y5728650D01*
X5981350Y3935020D01*
X4780000D01*
G03X4748170Y3921830I7J-45017D01*
G01X4545470Y3719130D01*
G03X4532280Y3687300I31827J-31837D01*
G01Y3521170D01*
G02X4513440Y3515900I-10158J4D01*
G03X4275150Y3492020I-113437J-68898D01*
G01X4251320D01*
G03X4219490Y3478830I7J-45017D01*
G01X4199970Y3459320D01*
X4181520Y3477770D01*
G03X4148640Y3492040I-32892J-30773D01*
G01X4124790D01*
G03X4123470Y3398430I-124840J-45054D01*
G01X4123850Y3399420D01*
X4126390Y3401960D01*
X4129990D01*
X4133600Y3398350D01*
Y3282320D01*
G03X4146790Y3250490I45017J7D01*
G01X4201810Y3195470D01*
G03X4233640Y3182280I31837J31827D01*
G01X4527690D01*
G03X4559520Y3195470I-7J45017D01*
G01X4651830Y3287780D01*
G03X4665020Y3319610I-31827J31837D01*
G01Y3394190D01*
G02X4684540Y3398140I10160J-2D01*
G03X4800050Y3321580I115510J48858D01*
G03Y3572420I0J125420D01*
G03X4684540Y3495860I0J-125418D01*
G02X4665020Y3499810I-9360J3952D01*
G01Y3650960D01*
X4816340Y3802280D01*
X6017690D01*
G03X6049520Y3815470I-7J45017D01*
G01X7894530Y5660480D01*
G03X7907720Y5692310I-31811J31830D01*
G01Y8106660D01*
G02X7924090Y8114700I10160J-2D01*
G03X8416450Y8179580I213914J277300D01*
G01X8600000D01*
G02X8649580Y8130000I0J-49580D01*
G01Y5200000D01*
G02X8600000Y5150420I-49580J0D01*
G01X7800000D01*
G03X7649580Y5000000I0J-150420D01*
G01Y3800000D01*
G03X7800000Y3649580I150420J0D01*
G01X8600000D01*
G02X8649580Y3600000I0J-49580D01*
G01Y690000D01*
G02X8649230Y684120I-49567J0D01*
G02X8632650Y677510I-10088J1204D01*
G03X8148790Y173590I-223661J-269502D01*
G02X8146720Y158240I-7548J-6797D01*
G02X8120000Y150420I-26726J41758D01*
G01X7900000D01*
G02X7850420Y200000I0J49580D01*
G01Y204930D01*
G02X7864470Y214310I10158J-3D01*
G03X7900000Y207240I35520J85692D01*
G03Y392760I0J92760D01*
G03X7864470Y385690I-10J-92762D01*
G02X7850420Y395070I-3892J9383D01*
G01Y1000000D01*
G03X7700000Y1150420I-150420J0D01*
G01X6300000D01*
G03X6149580Y1000000I0J-150420D01*
G01Y200000D01*
G02X6100000Y150420I-49580J0D01*
G01X5735120D01*
G02X5725280Y163090I7J10161D01*
G03X5726070Y169360I-24628J6288D01*
G01Y250640D01*
G03X5700650Y276060I-25420J0D01*
G01X5611750D01*
G03X5597680Y271810I0J-25415D01*
G02X5583630Y274580I-5631J8458D01*
G03X5548250Y293360I-35380J-23937D01*
G01X5459350D01*
G03X5430000Y281680I0J-42716D01*
G03X5400650Y293360I-29350J-31036D01*
G01X5159350D01*
G03X5128360Y280050I0J-42732D01*
G02X5113810Y279860I-7368J6993D01*
G01X4690000Y703670D01*
Y1249580D01*
X7230880D01*
X7330420Y1349120D01*
Y1654860D01*
X7563850D01*
X7565210Y1651900D01*
G03X7588310Y1637080I23100J10593D01*
G01X7776270D01*
G03X7801690Y1662500I0J25420D01*
G01Y1916500D01*
G03X7776270Y1941920I-25420J0D01*
G01X7588310D01*
G03X7565210Y1927100I0J-25413D01*
G01X7563850Y1924140D01*
X7330420D01*
Y2154860D01*
X7563850D01*
X7565210Y2151900D01*
G03X7588310Y2137080I23100J10593D01*
G01X7776270D01*
G03X7801690Y2162500I0J25420D01*
G01Y2416500D01*
G03X7776270Y2441920I-25420J0D01*
G01X7588310D01*
G03X7565210Y2427100I0J-25413D01*
G01X7563850Y2424140D01*
X7330420D01*
Y3000420D01*
X6560820D01*
Y3000820D01*
X6009180D01*
Y2582510D01*
G02X5995830Y2572870I-10161J7D01*
G03X5943630Y2559910I-15823J-47872D01*
G02X5927360Y2562100I-7336J7031D01*
G03X5905010Y2575420I-22350J-12091D01*
G01X5860010D01*
G03X5834590Y2550000I0J-25420D01*
G01Y2520000D01*
G03X5841570Y2502500I25428J0D01*
G03X5834590Y2485000I18448J-17500D01*
G01Y2455000D01*
G03X5841570Y2437500I25428J0D01*
G03X5834590Y2420000I18448J-17500D01*
G01Y2390000D01*
G03X5860010Y2364580I25420J0D01*
G01X5905010D01*
G03X5927360Y2377900I0J25411D01*
G02X5943630Y2380090I8934J-4841D01*
G03X5995830Y2367130I36377J34912D01*
G02X6009180Y2357490I3189J-9647D01*
G01Y2312490D01*
G02X5993720Y2303820I-10160J-2D01*
G03X5980450Y2307560I-13270J-21672D01*
G01X5891550D01*
G03X5866130Y2282140I0J-25420D01*
G01Y2200860D01*
G03X5891550Y2175440I25420J0D01*
G01X5980450D01*
G03X5993720Y2179180I0J25412D01*
G02X6009180Y2170510I5300J-8668D01*
G01Y2130820D01*
X4841050D01*
G37*
G36*
G01X4504580Y6276130D02*
X4504640D01*
G03X4532740Y6286670I0J42728D01*
G02X4549580Y6279020I6681J-7653D01*
G01Y5854080D01*
X4928920D01*
Y5884980D01*
X5039150D01*
G02X5046330Y5867640I-5J-10158D01*
G01X4979580Y5800880D01*
Y5786250D01*
G02X4962240Y5779070I-10158J5D01*
G01X4910880Y5830420D01*
X4709120D01*
X4639580Y5760880D01*
Y5490880D01*
X4559120Y5410420D01*
X3280350D01*
G02X3274390Y5428810I0J10161D01*
G03X3379860Y5568930I-174619J241192D01*
G02X3399580Y5565480I9560J-3443D01*
G01Y5559120D01*
X3459120Y5499580D01*
X3750880D01*
X3790420Y5539120D01*
Y5994080D01*
X3799380D01*
X3835530Y6030230D01*
X3838890Y6028340D01*
G03X3859850Y6022840I20968J37218D01*
G01X3948750D01*
G03X3967800Y6027320I5J42721D01*
G03X3986850Y6022840I19045J38241D01*
G01X4075750D01*
G03X4104130Y6033630I0J42718D01*
G02X4110870I3370J-3802D01*
G03X4139250Y6022840I28380J31928D01*
G01X4228150D01*
G03X4247200Y6027320I5J42721D01*
G03X4266250Y6022840I19045J38241D01*
G01X4355150D01*
G03X4390530Y6041620I0J42717D01*
G02X4404580Y6044390I8419J-5688D01*
G03X4418650Y6040140I14070J21165D01*
G01X4507550D01*
G03X4532970Y6065560I0J25420D01*
G01Y6146840D01*
G03X4507550Y6172260I-25420J0D01*
G01X4418650D01*
G03X4404580Y6168010I0J-25415D01*
G02X4390530Y6170780I-5631J8458D01*
G03X4355150Y6189560I-35380J-23937D01*
G01X4266250D01*
G03X4247200Y6185080I-5J-42721D01*
G03X4228150Y6189560I-19045J-38241D01*
G01X4223830D01*
X4222600Y6192860D01*
G03X4213060Y6207700I-38899J-14520D01*
G01X4212350Y6208410D01*
G02X4215940Y6217080I3593J3591D01*
G01X4437700D01*
G03X4467060Y6229240I0J41524D01*
G01X4493360Y6255540D01*
G03X4504580Y6276130I-29364J29353D01*
G37*
G36*
G01X3510000Y6320000D02*
X3270000D01*
X3200000Y6390000D01*
Y7040000D01*
X3250000Y7090000D01*
X3580000D01*
Y6990000D01*
X3620000Y6950000D01*
Y6720000D01*
X3580000Y6680000D01*
Y6390000D01*
X3510000Y6320000D01*
G37*
G36*
G01X3490000Y3610000D02*
X3710000D01*
X3740000Y3580000D01*
Y3160000D01*
X4820000Y2080000D01*
X6090000D01*
X6120000Y2050000D01*
Y1960000D01*
X6100000Y1940000D01*
X4680000D01*
X3460000Y3160000D01*
Y3580000D01*
X3490000Y3610000D01*
G37*
G36*
G01X3740000Y5560000D02*
X3730000Y5550000D01*
X3480000D01*
X3450000Y5580000D01*
Y6150000D01*
X3660000Y6360000D01*
X3710000D01*
X3740000Y6330000D01*
Y5560000D01*
G37*
G36*
G01X3670000Y7320000D02*
X4150000D01*
Y7180000D01*
X3808500D01*
X3798500Y7170000D01*
Y6781500D01*
X3910000Y6670000D01*
Y6570000D01*
X3913480Y6566520D01*
Y6559480D01*
X4174500D01*
Y6529520D01*
X4105710D01*
X4105690Y6529500D01*
X4089800D01*
G03X4089000Y6529520I-900J-19997D01*
G01X4064000D01*
G03X4063200Y6529500I100J-20017D01*
G01X4044800D01*
G03X4044000Y6529520I-900J-19997D01*
G01X4019000D01*
G03X4018200Y6529500I100J-20017D01*
G01X4006380D01*
X4005180Y6530210D01*
G03X3984000Y6536020I-21180J-35700D01*
G03X3961700Y6529520I5J-41519D01*
G01X3930710D01*
X3930690Y6529500D01*
X3919500D01*
X3910000Y6520000D01*
Y6410000D01*
X3800000Y6300000D01*
Y6066000D01*
X3778500Y6044500D01*
X3678500D01*
X3670000Y6053000D01*
Y7320000D01*
G37*
G36*
G01X3969000Y6654500D02*
X3939000D01*
X3934000Y6649500D01*
Y6634500D01*
X3939000Y6629500D01*
X3994000D01*
X3999000Y6634500D01*
Y6684500D01*
X3994000Y6689500D01*
X3974000D01*
X3969000Y6684500D01*
Y6654500D01*
G37*
G36*
G01Y6484500D02*
X3939000D01*
X3934000Y6489500D01*
Y6504500D01*
X3939000Y6509500D01*
X3994000D01*
X3999000Y6504500D01*
Y6454500D01*
X3994000Y6449500D01*
X3974000D01*
X3969000Y6454500D01*
Y6484500D01*
G37*
G36*
G01X4210000Y7320000D02*
X4878500D01*
Y6844140D01*
X4804750D01*
Y6574860D01*
X4878500D01*
Y6344140D01*
X4804750D01*
Y6074860D01*
X4878500D01*
Y5904500D01*
X4600000D01*
Y6443000D01*
X4568500Y6474500D01*
X4288500D01*
X4258500Y6504500D01*
Y6564500D01*
X4243500Y6579500D01*
X4174800D01*
G03X4174000Y6579520I-900J-19997D01*
G01X3933500D01*
Y6609480D01*
X3961700D01*
G03X3984000Y6602980I22305J35019D01*
G03X4005180Y6608790I0J41510D01*
G01X4006380Y6609500D01*
X4018200D01*
G03X4019000Y6609480I900J19997D01*
G01X4044000D01*
G03X4044800Y6609500I-100J20017D01*
G01X4063200D01*
G03X4064000Y6609480I900J19997D01*
G01X4089000D01*
G03X4089800Y6609500I-100J20017D01*
G01X4105690D01*
X4105710Y6609480D01*
X4106650D01*
X4107850Y6608770D01*
G03X4129000Y6602980I21150J35734D01*
G03X4151300Y6609480I-5J41519D01*
G01X4177290D01*
X4177310Y6609500D01*
X4458500D01*
Y7180000D01*
X4210000D01*
Y7320000D01*
G37*
G36*
G01X3539210Y6751260D02*
Y6908740D01*
X3541750Y6911280D01*
X3638270D01*
X3640810Y6908740D01*
Y6751260D01*
X3638270Y6748720D01*
X3541750D01*
X3539210Y6751260D01*
G37*
G36*
G01X3848920Y7129580D02*
X4408080D01*
Y6778840D01*
G02X4391530Y6770950I-10158J6D01*
G03X4388580Y6773130I-26841J-33236D01*
G02X4385810Y6787180I5688J8419D01*
G03X4390060Y6801250I-21165J14070D01*
G01Y6890150D01*
G03X4364640Y6915570I-25420J0D01*
G01X4283360D01*
G03X4257940Y6890150I0J-25420D01*
G01Y6801250D01*
G03X4262190Y6787180I25415J0D01*
G02X4259420Y6773130I-8458J-5631D01*
G03X4240680Y6739670I23937J-35384D01*
G01X4240460Y6734820D01*
X4177800D01*
G03X4161040Y6731290I-6J-41521D01*
G01X4157850Y6729880D01*
X4152810Y6734920D01*
X4095190D01*
X4090360Y6730100D01*
G02X4073020Y6737280I-7182J7184D01*
G01Y6753690D01*
G03X4072920Y6756530I-41519J-40D01*
G02X4077050Y6761870I5069J346D01*
G03X4111860Y6803850I-7908J41980D01*
G01Y6892750D01*
G03X4093080Y6928130I-42717J0D01*
G02X4090310Y6942180I5688J8419D01*
G03X4094560Y6956250I-21165J14070D01*
G01Y7045150D01*
G03X4069140Y7070570I-25420J0D01*
G01X3987860D01*
G03X3970460Y7063680I0J-25416D01*
G02X3956540I-6960J7403D01*
G03X3939140Y7070570I-17400J-18526D01*
G01X3857860D01*
G03X3854640Y7070370I-37J-25422D01*
G01X3854320Y7070320D01*
X3848920D01*
Y7129580D01*
G37*
G36*
G01X4139000Y6654500D02*
X4169000D01*
X4174000Y6649500D01*
Y6634500D01*
X4169000Y6629500D01*
X4114000D01*
X4109000Y6634500D01*
Y6684500D01*
X4114000Y6689500D01*
X4134000D01*
X4139000Y6684500D01*
Y6654500D01*
G37*
G36*
G01Y6484500D02*
X4169000D01*
X4174000Y6489500D01*
Y6504500D01*
X4169000Y6509500D01*
X4114000D01*
X4109000Y6504500D01*
Y6454500D01*
X4114000Y6449500D01*
X4134000D01*
X4139000Y6454500D01*
Y6484500D01*
G37*
G36*
G01X4170000Y7300000D02*
X4100000D01*
Y7180000D01*
X4170000D01*
X4150000Y7200000D01*
X4170000Y7220000D01*
X4150000Y7240000D01*
X4170000Y7260000D01*
X4150000Y7280000D01*
X4170000Y7300000D01*
G37*
G36*
G01X4210000D02*
X4260000D01*
Y7180000D01*
X4210000D01*
X4190000Y7200000D01*
X4210000Y7220000D01*
X4190000Y7240000D01*
X4210000Y7260000D01*
X4190000Y7280000D01*
X4210000Y7300000D01*
G37*
G36*
G01X6950000Y8360000D02*
X6957440Y8352560D01*
G02X6947140Y8335710I-7185J-7181D01*
G03X6914030Y8340920I-33127J-102712D01*
G01X6914000D01*
G03Y8125080I0J-107920D01*
G03X6992070Y8158490I0J107919D01*
G02X7009580Y8151480I7350J-7014D01*
G01Y7889580D01*
X6960000Y7840000D01*
X6490000D01*
X6020000Y7370000D01*
X4900000D01*
X4880000Y7350000D01*
Y7270260D01*
X4664560D01*
G03X4639140Y7244840I0J-25420D01*
G01Y7075160D01*
G03X4664560Y7049740I25420J0D01*
G01X4880000D01*
Y7000000D01*
X4530000D01*
Y7420000D01*
X4580000Y7470000D01*
X5780000D01*
X6369580Y8059580D01*
X6560420D01*
Y8155890D01*
G02X6578270Y8162520I10159J-7D01*
G03X6660000Y8125080I81730J70487D01*
G03Y8340920I0J107920D01*
G03X6578270Y8303480I0J-107927D01*
G02X6560420Y8310110I-7691J6637D01*
G01Y8360000D01*
X6950000D01*
G37*
G36*
G01X6980880Y7789580D02*
X6980910Y7789600D01*
G02X6989580Y7786010I3591J-3591D01*
G01Y5689580D01*
X6380000Y5080000D01*
X5540000D01*
X5440000Y5180000D01*
Y5314930D01*
X5828680D01*
G03X5860510Y5328120I0J45001D01*
G01X6042110Y5509720D01*
G03X6055300Y5541550I-31811J31830D01*
G01Y5798450D01*
G03X6042110Y5830280I-45001J0D01*
G01X5860510Y6011880D01*
G03X5828680Y6025070I-31830J-31811D01*
G01X5510050D01*
G03X5478220Y6011880I0J-45001D01*
G01X5441350Y5975020D01*
X4928920D01*
Y6074860D01*
X5163850D01*
X5165210Y6071900D01*
G03X5188310Y6057080I23100J10593D01*
G01X5376270D01*
G03X5401690Y6082500I0J25420D01*
G01Y6336500D01*
G03X5376270Y6361920I-25420J0D01*
G01X5188310D01*
G03X5165210Y6347100I0J-25413D01*
G01X5163850Y6344140D01*
X4928920D01*
Y6574860D01*
X5163850D01*
X5165210Y6571900D01*
G03X5188310Y6557080I23100J10593D01*
G01X5376270D01*
G03X5401690Y6582500I0J25420D01*
G01Y6836500D01*
G03X5376270Y6861920I-25420J0D01*
G01X5188310D01*
G03X5165210Y6847100I0J-25413D01*
G01X5163850Y6844140D01*
X4928920D01*
Y6949580D01*
X4930420D01*
Y7319580D01*
X6040880D01*
X6510880Y7789580D01*
X6980880D01*
G37*
G36*
G01X5200000Y8649580D02*
X6265000D01*
Y8545020D01*
G02X6245990Y8540030I-10160J2D01*
G03X6152000Y8594920I-93990J-53026D01*
G03X6044080Y8487000I0J-107920D01*
G03X6089700Y8398880I107917J0D01*
G02X6083840Y8380420I-5860J-8300D01*
G01X5966160D01*
G02X5960300Y8398880I0J10160D01*
G03X6005920Y8487000I-62297J88120D01*
G03X5790080I-107920J0D01*
G03X5835700Y8398880I107917J0D01*
G02X5829840Y8380420I-5860J-8300D01*
G01X5769120D01*
X5669580Y8280880D01*
Y7930880D01*
X5439120Y7700420D01*
X5133380D01*
G02X5124940Y7716240I-2J10160D01*
G03X5150420Y7800000I-124931J83760D01*
G01Y8600000D01*
G02X5200000Y8649580I49580J0D01*
G37*
G36*
G01X5929210Y2391260D02*
Y2548740D01*
X5931750Y2551280D01*
X6028270D01*
X6030810Y2548740D01*
Y2391260D01*
X6028270Y2388720D01*
X5931750D01*
X5929210Y2391260D01*
G37*
G36*
G01X5750000Y2140000D02*
Y2640000D01*
X5980000D01*
Y2590000D01*
X6020000Y2550000D01*
Y2390000D01*
X5980000Y2350000D01*
Y2140000D01*
X5750000D01*
G37*
G36*
G01X6464000Y2169520D02*
G03X6463200Y2169500I100J-20017D01*
G01X6444800D01*
G03X6444000Y2169520I-900J-19997D01*
G01X6419000D01*
G03X6418200Y2169500I100J-20017D01*
G01X6402310D01*
X6402290Y2169520D01*
X6395720D01*
X6394980Y2169750D01*
G03X6373020I-10980J-35261D01*
G01X6372280Y2169520D01*
X6330710D01*
X6330690Y2169500D01*
X6319500D01*
X6310000Y2160000D01*
Y2050000D01*
X6200000Y1940000D01*
Y1700000D01*
X6060000D01*
Y2950000D01*
X6510000D01*
Y2810000D01*
X6218500D01*
X6198500Y2790000D01*
Y2421500D01*
X6310000Y2310000D01*
Y2210000D01*
X6313480Y2206520D01*
Y2199480D01*
X6574500D01*
Y2169520D01*
X6505710D01*
X6505690Y2169500D01*
X6489800D01*
G03X6489000Y2169520I-900J-19997D01*
G01X6464000D01*
G37*
G36*
G01X6369000Y2124500D02*
X6339000D01*
X6334000Y2129500D01*
Y2144500D01*
X6339000Y2149500D01*
X6394000D01*
X6399000Y2144500D01*
Y2094500D01*
X6394000Y2089500D01*
X6374000D01*
X6369000Y2094500D01*
Y2124500D01*
G37*
G36*
G01Y2294500D02*
X6339000D01*
X6334000Y2289500D01*
Y2274500D01*
X6339000Y2269500D01*
X6394000D01*
X6399000Y2274500D01*
Y2324500D01*
X6394000Y2329500D01*
X6374000D01*
X6369000Y2324500D01*
Y2294500D01*
G37*
G36*
G01X6539000D02*
X6569000D01*
X6574000Y2289500D01*
Y2274500D01*
X6569000Y2269500D01*
X6514000D01*
X6509000Y2274500D01*
Y2324500D01*
X6514000Y2329500D01*
X6534000D01*
X6539000Y2324500D01*
Y2294500D01*
G37*
G36*
G01Y2124500D02*
X6569000D01*
X6574000Y2129500D01*
Y2144500D01*
X6569000Y2149500D01*
X6514000D01*
X6509000Y2144500D01*
Y2094500D01*
X6514000Y2089500D01*
X6534000D01*
X6539000Y2094500D01*
Y2124500D01*
G37*
G36*
G01X6333500Y2219520D02*
Y2249480D01*
X6402290D01*
X6402310Y2249500D01*
X6418200D01*
G03X6419000Y2249480I900J19997D01*
G01X6444000D01*
G03X6444800Y2249500I-100J20017D01*
G01X6463200D01*
G03X6464000Y2249480I900J19997D01*
G01X6489000D01*
G03X6489800Y2249500I-100J20017D01*
G01X6505690D01*
X6505710Y2249480D01*
X6506650D01*
X6507850Y2248770D01*
G03X6529000Y2242980I21150J35734D01*
G03X6551300Y2249480I-5J41519D01*
G01X6577290D01*
X6577310Y2249500D01*
X6858500D01*
Y2810000D01*
X6570000D01*
Y2950000D01*
X7280000D01*
Y2424140D01*
X7204750D01*
Y2154860D01*
X7280000D01*
Y1924140D01*
X7204750D01*
Y1654860D01*
X7280000D01*
Y1544500D01*
X7000000D01*
Y2083000D01*
X6968500Y2114500D01*
X6688500D01*
X6658500Y2144500D01*
Y2204500D01*
X6643500Y2219500D01*
X6574800D01*
G03X6574000Y2219520I-900J-19997D01*
G01X6333500D01*
G37*
G36*
G01X6634500Y2609800D02*
X6253500D01*
Y2736800D01*
X6761500D01*
X6799600Y2698700D01*
Y2457400D01*
X6786900Y2444700D01*
X6672600D01*
X6647200Y2470100D01*
Y2597100D01*
X6634500Y2609800D01*
G37*
G36*
G01X6560820Y2759580D02*
X6808080D01*
Y2418840D01*
G02X6791530Y2410950I-10158J6D01*
G03X6788580Y2413130I-26841J-33236D01*
G02X6785810Y2427180I5688J8419D01*
G03X6790060Y2441250I-21165J14070D01*
G01Y2530150D01*
G03X6764640Y2555570I-25420J0D01*
G01X6683360D01*
G03X6657940Y2530150I0J-25420D01*
G01Y2441250D01*
G03X6662190Y2427180I25415J0D01*
G02X6659420Y2413130I-8458J-5631D01*
G03X6640680Y2379670I23937J-35384D01*
G01X6640460Y2374820D01*
X6577800D01*
G03X6561040Y2371290I-6J-41521D01*
G01X6557850Y2369880D01*
X6552810Y2374920D01*
X6495190D01*
X6490360Y2370100D01*
G02X6473020Y2377280I-7182J7184D01*
G01Y2393690D01*
G03X6472230Y2401750I-41511J0D01*
G02X6475880Y2407630I4983J980D01*
G03X6507360Y2448850I-11247J41220D01*
G01Y2537750D01*
G03X6488580Y2573130I-42717J0D01*
G02X6485810Y2587180I5688J8419D01*
G03X6490060Y2601250I-21165J14070D01*
G01Y2690150D01*
G03X6464640Y2715570I-25420J0D01*
G01X6383360D01*
G03X6365960Y2708680I0J-25416D01*
G02X6352040I-6960J7403D01*
G03X6334640Y2715570I-17400J-18526D01*
G01X6249320D01*
Y2759180D01*
X6560820D01*
Y2759580D01*
G37*
G36*
G01X6530000Y2940000D02*
X6460000D01*
Y2820000D01*
X6530000D01*
X6510000Y2840000D01*
X6530000Y2860000D01*
X6510000Y2880000D01*
X6530000Y2900000D01*
X6510000Y2920000D01*
X6530000Y2940000D01*
G37*
G36*
G01X6570000D02*
X6620000D01*
Y2820000D01*
X6570000D01*
X6550000Y2840000D01*
X6570000Y2860000D01*
X6550000Y2880000D01*
X6570000Y2900000D01*
X6550000Y2920000D01*
X6570000Y2940000D01*
G37*
G36*
G01X6510000Y8710000D02*
Y8110000D01*
X6310000D01*
Y8710000D01*
X6510000D01*
G37*
G36*
G01X6560420Y8649580D02*
X6989580D01*
Y8585300D01*
G02X6973790Y8576840I-10161J-1D01*
G03X6914000Y8594920I-59795J-89838D01*
G03X6806080Y8487000I0J-107920D01*
G03X6824770Y8426290I107922J-7D01*
G02X6816370Y8410420I-8400J-5712D01*
G01X6757630D01*
G02X6749230Y8426290I0J10158D01*
G03X6767920Y8487000I-89232J60703D01*
G03X6660000Y8594920I-107920J0D01*
G03X6578270Y8557480I0J-107927D01*
G02X6560420Y8564120I-7691J6637D01*
G01Y8649580D01*
G37*
%LPC*%
G75*
G36*
G01X3467180Y4300000D02*
Y4500000D01*
G02X3499900Y4532720I32720J0D01*
G01X3699900D01*
G02X3732620Y4500000I0J-32720D01*
G01Y4300000D01*
G02X3699900Y4267280I-32720J0D01*
G01X3499900D01*
G02X3467180Y4300000I0J32720D01*
G37*
G36*
G01X7455140Y2655160D02*
Y2824840D01*
G02X7480560Y2850260I25420J0D01*
G01X7695440D01*
G02X7720860Y2824840I0J-25420D01*
G01Y2655160D01*
G02X7695440Y2629740I-25420J0D01*
G01X7480560D01*
G02X7455140Y2655160I0J25420D01*
G37*
G36*
G01X5055140Y7075160D02*
Y7244840D01*
G02X5080560Y7270260I25420J0D01*
G01X5295440D01*
G02X5320860Y7244840I0J-25420D01*
G01Y7075160D01*
G02X5295440Y7049740I-25420J0D01*
G01X5080560D01*
G02X5055140Y7075160I0J25420D01*
G37*
G54D40*
X3999950Y5670000D03*
G54D39*
X5200100Y3447000D03*
Y4400000D03*
X4800050D03*
X4400000D03*
X3999950D03*
X4400000Y5670000D03*
G54D37*
X800000Y840000D03*
X600000Y7800000D03*
X8360000Y7760000D03*
G54D38*
X5700230Y3447000D03*
%LPD*%
G75*
G54D10*
X408000Y408000D03*
X500000Y6640000D03*
X798000Y8392000D03*
X8138000D03*
X8409000Y408000D03*
G54D11*
X60000Y140000D03*
Y640000D03*
Y540000D03*
Y440000D03*
Y740000D03*
Y340000D03*
Y240000D03*
Y1040000D03*
Y940000D03*
Y840000D03*
Y1140000D03*
Y1240000D03*
Y1340000D03*
Y1440000D03*
Y2040000D03*
Y1840000D03*
Y1740000D03*
Y1640000D03*
Y1940000D03*
Y1540000D03*
Y2740000D03*
Y2240000D03*
Y2140000D03*
Y2340000D03*
Y2440000D03*
Y2540000D03*
Y2640000D03*
Y2940000D03*
Y2840000D03*
Y3140000D03*
Y3240000D03*
Y3040000D03*
Y3340000D03*
Y3440000D03*
Y3540000D03*
Y3640000D03*
Y5340000D03*
Y5240000D03*
Y5140000D03*
Y5840000D03*
Y5740000D03*
Y5640000D03*
Y5940000D03*
Y5440000D03*
Y5540000D03*
Y6040000D03*
Y6640000D03*
Y6540000D03*
Y6440000D03*
Y6340000D03*
Y6140000D03*
Y6240000D03*
Y7040000D03*
Y6940000D03*
Y6840000D03*
Y7140000D03*
Y7240000D03*
Y7340000D03*
Y6740000D03*
Y7940000D03*
Y7640000D03*
Y7740000D03*
Y7840000D03*
Y7540000D03*
Y7440000D03*
Y8640000D03*
Y8540000D03*
Y8440000D03*
Y8340000D03*
Y8040000D03*
Y8140000D03*
Y8240000D03*
X160000Y60000D03*
X260000D03*
X360000D03*
X460000D03*
X760000D03*
X660000D03*
X560000D03*
X160000Y140000D03*
X200000Y800000D03*
X400000D03*
X600000D03*
X800000Y200000D03*
Y600000D03*
X410000Y160000D03*
X220000Y230000D03*
Y570000D03*
X160000Y410000D03*
X410000Y640000D03*
X600000Y570000D03*
X590000Y220000D03*
X640000Y410000D03*
X200000Y1200000D03*
X400000D03*
X600000D03*
X200000Y1600000D03*
X400000D03*
Y2000000D03*
X200000D03*
X400000Y2400000D03*
X200000D03*
X400000Y2800000D03*
X200000D03*
X400000Y3000000D03*
Y3400000D03*
X200000D03*
Y3000000D03*
X160000Y3740000D03*
X360000D03*
X460000D03*
X560000D03*
X660000D03*
X760000D03*
X260000D03*
X160000Y5060000D03*
X660000D03*
X760000D03*
X560000D03*
X460000D03*
X360000D03*
X260000D03*
X600000Y5400000D03*
X200000D03*
Y5800000D03*
X600000D03*
X680900Y6450100D03*
X730900Y6640100D03*
X500900Y6390100D03*
X310900Y6460100D03*
X660000Y6240000D03*
X760000D03*
X160000D03*
X260000D03*
X360000D03*
X460000D03*
X560000D03*
X160000Y6340000D03*
X260000D03*
X760000Y6360000D03*
X160000Y6440000D03*
X690900Y6800100D03*
X310900D03*
X500900Y6870100D03*
X550000Y7040000D03*
X450000D03*
X350000D03*
X250000D03*
X150000D03*
X750000D03*
X650000D03*
X150000Y6940000D03*
X250000D03*
X750000D03*
X150000Y6840000D03*
X800000Y7400000D03*
X400000D03*
Y7600000D03*
Y7800000D03*
X800000D03*
Y8630000D03*
X550000Y8400000D03*
X610000Y8220000D03*
X800000Y8150000D03*
X610000Y8560000D03*
X460000Y8640000D03*
X360000D03*
X260000D03*
X160000D03*
X460000Y8540000D03*
X360000D03*
X260000D03*
X160000D03*
X460000Y8440000D03*
X360000D03*
X260000D03*
X160000D03*
X460000Y8340000D03*
X360000D03*
X260000D03*
X160000D03*
X560000Y8640000D03*
X160000Y8740000D03*
X260000D03*
X360000D03*
X460000D03*
X560000D03*
X760000D03*
X660000D03*
X860000Y60000D03*
X960000D03*
X1040000Y460000D03*
Y560000D03*
Y660000D03*
Y760000D03*
Y160000D03*
Y260000D03*
Y360000D03*
X1340000Y1060000D03*
X1240000D03*
X1140000D03*
X1440000D03*
X1040000Y960000D03*
Y860000D03*
X918500Y2214500D03*
Y2334500D03*
Y2434500D03*
Y2534500D03*
X1060000Y3840000D03*
Y3940000D03*
Y4040000D03*
X860000Y3740000D03*
X960000D03*
X1060000Y4340000D03*
Y4140000D03*
Y4240000D03*
Y4440000D03*
Y4540000D03*
Y4640000D03*
Y4940000D03*
Y4840000D03*
Y4740000D03*
X860000Y5060000D03*
X960000D03*
X1000000Y5400000D03*
Y5800000D03*
X860000Y6240000D03*
Y6360000D03*
Y6470000D03*
X1200000Y7000000D03*
X850000Y7040000D03*
Y6940000D03*
Y6830000D03*
X1200000Y7400000D03*
Y7800000D03*
Y8200000D03*
Y8600000D03*
X1030000Y8400000D03*
X980000Y8210000D03*
X990000Y8560000D03*
X860000Y8740000D03*
X960000D03*
X1260000D03*
X1160000D03*
X1060000D03*
X1360000D03*
X2040000Y1060000D03*
X1540000D03*
X1640000D03*
X1940000D03*
X1840000D03*
X1740000D03*
X1953100Y1649100D03*
X1808500Y2604500D03*
Y2684500D03*
X1718500D03*
X1618500D03*
X1600000Y3800000D03*
Y4200000D03*
Y4600000D03*
X2000000Y4200000D03*
Y4600000D03*
X1600000Y5000000D03*
X2000000D03*
X1600000Y5403200D03*
X2000000Y5400000D03*
Y5800000D03*
X1600000D03*
X2000000Y6200000D03*
X1600000Y6600000D03*
Y7000000D03*
X2000000D03*
Y7400000D03*
X1600000D03*
Y7800000D03*
X2000000D03*
Y8200000D03*
X1600000D03*
Y8600000D03*
X2000000D03*
X1460000Y8740000D03*
X1860000D03*
X1960000D03*
X2060000D03*
X1760000D03*
X1660000D03*
X1560000D03*
X2760000Y60000D03*
X2660000D03*
X2560000Y460000D03*
Y560000D03*
Y660000D03*
Y760000D03*
Y160000D03*
Y260000D03*
Y360000D03*
X2440000Y1060000D03*
X2340000D03*
X2240000D03*
X2140000D03*
X2560000Y960000D03*
Y860000D03*
X2768500Y1994500D03*
X2678500D03*
X2768500Y1614500D03*
X2678500D03*
X2688500Y2484500D03*
X2768500Y2124500D03*
X2678500D03*
X2600000Y6000000D03*
Y5600000D03*
Y6400000D03*
X2400000Y7800000D03*
Y7400000D03*
Y8200000D03*
Y8600000D03*
X2160000Y8740000D03*
X2260000D03*
X2360000D03*
X2460000D03*
X2560000D03*
X2760000D03*
X2660000D03*
X2960000Y60000D03*
X3060000D03*
X3160000D03*
X2860000D03*
X3360000D03*
X3260000D03*
X2800000Y200000D03*
Y600000D03*
X3000000Y400000D03*
Y800000D03*
X3400000Y400000D03*
Y800000D03*
Y1200000D03*
X3000000D03*
X3400000Y1600000D03*
X3000000D03*
Y2000000D03*
X2858500Y1994500D03*
Y1614500D03*
X3000000Y2400000D03*
X2778500Y2484500D03*
X2868500D03*
X2858500Y2124500D03*
X3250000Y3300000D03*
X3100000Y3240000D03*
X2950000Y3300000D03*
X3250000Y3600000D03*
X3310000Y3450000D03*
X2950000Y3600000D03*
X3100000Y3660000D03*
X2890000Y3450000D03*
X3000000Y4000000D03*
X3400000D03*
X3000000Y3800000D03*
X3400000D03*
X3250000Y4550000D03*
X3310000Y4400000D03*
X3250000Y4250000D03*
X2950000Y4550000D03*
X3100000Y4610000D03*
Y4190000D03*
X2950000Y4250000D03*
X2890000Y4400000D03*
Y5670000D03*
X2950000Y5520000D03*
X3100000Y5460000D03*
X3250000Y5520000D03*
X3310000Y5670000D03*
X3250000Y5820000D03*
X3100000Y5880000D03*
X2950000Y5820000D03*
X3000000Y6400000D03*
Y6800000D03*
X3400000Y7200000D03*
X2800000Y7600000D03*
Y7800000D03*
X3200000D03*
X3400000D03*
Y8000000D03*
X3200000D03*
Y8200000D03*
X2800000D03*
Y8600000D03*
X3200000D03*
X3400000Y8200000D03*
X2860000Y8740000D03*
X3060000D03*
X3160000D03*
X3260000D03*
X2960000D03*
X3360000D03*
X3460000Y60000D03*
X3560000D03*
X3660000D03*
X4060000D03*
X3960000D03*
X3860000D03*
X3760000D03*
X3700000Y210000D03*
X3800000Y400000D03*
Y800000D03*
Y1200000D03*
Y1600000D03*
Y4000000D03*
Y3800000D03*
Y4200000D03*
X3428500Y6684500D03*
Y6564500D03*
Y6784500D03*
Y6884500D03*
Y7004500D03*
X3600000Y7800000D03*
Y8000000D03*
X3840000Y7740000D03*
X3940000D03*
X4040000D03*
X3740000Y7840000D03*
Y7940000D03*
X3600000Y8200000D03*
Y8600000D03*
X3740000Y8240000D03*
Y8140000D03*
Y8340000D03*
Y8440000D03*
Y8540000D03*
Y8640000D03*
Y8040000D03*
X3460000Y8740000D03*
X3560000D03*
X3660000D03*
X4160000Y60000D03*
X4260000D03*
X4360000D03*
X4560000D03*
X4660000D03*
X4460000D03*
X4200000Y4000000D03*
X4600000D03*
X4200000Y3800000D03*
Y4200000D03*
X4600000D03*
X4460000Y6010000D03*
X4200000Y5800000D03*
Y5600000D03*
X4128500Y7034500D03*
X4228500D03*
X4318500D03*
Y6954500D03*
X4540000Y7740000D03*
X4640000D03*
X4440000D03*
X4340000D03*
X4240000D03*
X4140000D03*
X4760000Y60000D03*
X4860000D03*
X5360000D03*
X5260000D03*
X5160000D03*
X5060000D03*
X4960000D03*
X5200000Y400000D03*
Y800000D03*
Y1200000D03*
X4800000D03*
X5200000Y2400000D03*
X4800000D03*
X5200000Y2800000D03*
X5000000Y4000000D03*
Y4200000D03*
X5188500Y6024500D03*
X5278500D03*
X5368500D03*
X5188500Y6404500D03*
X5278500D03*
X5368500D03*
X5188500Y6534500D03*
X5278500D03*
X5368500D03*
X5378500Y6894500D03*
X5288500D03*
X5198500D03*
X5200000Y8000000D03*
X4940000Y7740000D03*
X4840000D03*
X4740000D03*
X5060000Y7840000D03*
Y7940000D03*
X5200000Y8400000D03*
Y8200000D03*
X5060000Y8640000D03*
Y8140000D03*
Y8040000D03*
Y8240000D03*
Y8340000D03*
Y8440000D03*
Y8540000D03*
X5360000Y8740000D03*
X5260000D03*
X5160000D03*
X5460000Y60000D03*
X5560000D03*
X5760000D03*
X5860000D03*
X5960000D03*
X5660000D03*
X5790000Y200000D03*
X5600000Y800000D03*
Y400000D03*
X6000000D03*
Y800000D03*
X5600000Y1200000D03*
X6000000D03*
X5818500Y2564500D03*
Y2464500D03*
Y2364500D03*
Y2244500D03*
X5600000Y2400000D03*
X5850000Y3300000D03*
X5700000Y3240000D03*
X5550000Y3300000D03*
X6000000Y3200000D03*
X5600000Y2800000D03*
X5550000Y3600000D03*
X5700000Y3660000D03*
X5850000Y3600000D03*
X5910000Y3450000D03*
X5490000D03*
X5400000Y4000000D03*
X5550000Y4550000D03*
X5700000Y4610000D03*
X5850000Y4550000D03*
X5910000Y4400000D03*
X5850000Y4250000D03*
X5700000Y4190000D03*
X5550000Y4250000D03*
X5490000Y4400000D03*
X6000000Y4200000D03*
Y5200000D03*
X5910000Y5670000D03*
X5850000Y5520000D03*
X5700000Y5460000D03*
X5550000Y5520000D03*
X5490000Y5670000D03*
X5600000Y6200000D03*
X6000000D03*
Y6600000D03*
X5600000D03*
Y7000000D03*
X6000000D03*
X5600000Y8000000D03*
X5400000D03*
X5600000Y8400000D03*
X5400000Y8200000D03*
X5600000D03*
X5400000Y8400000D03*
X5460000Y8740000D03*
X5560000D03*
X5660000D03*
X5860000D03*
X5960000D03*
X5760000D03*
X6060000Y60000D03*
X6160000D03*
X6240000Y660000D03*
Y760000D03*
Y460000D03*
Y260000D03*
Y160000D03*
Y360000D03*
Y560000D03*
X6460000Y1060000D03*
X6560000D03*
X6660000D03*
X6360000D03*
X6240000Y960000D03*
Y860000D03*
X6400000Y1200000D03*
X6528500Y2674500D03*
X6628500D03*
X6400000Y3200000D03*
Y3600000D03*
Y4000000D03*
X6200000Y4400000D03*
X6400000Y5800000D03*
Y5400000D03*
Y6600000D03*
Y6200000D03*
Y7000000D03*
Y7400000D03*
X6060000Y8740000D03*
X6160000D03*
X6660000D03*
X6560000D03*
X6460000D03*
X6360000D03*
X6260000D03*
X6760000Y1060000D03*
X7360000D03*
X6960000D03*
X7260000D03*
X7160000D03*
X7060000D03*
X6860000D03*
X6800000Y1200000D03*
X7200000D03*
X6863100Y1639100D03*
X6718500Y2594500D03*
Y2674500D03*
X7200000Y3200000D03*
X6800000D03*
X7200000Y3600000D03*
X6800000D03*
X7200000Y4000000D03*
X6800000D03*
Y4400000D03*
X7200000D03*
Y4800000D03*
X6800000Y5800000D03*
Y6600000D03*
Y6200000D03*
Y7000000D03*
Y7200000D03*
Y7400000D03*
X6760000Y8740000D03*
X6860000D03*
X7060000D03*
X7160000D03*
X7260000D03*
X6960000D03*
X7360000D03*
X7860000Y60000D03*
X7960000D03*
X7760000Y660000D03*
Y760000D03*
Y460000D03*
Y260000D03*
Y160000D03*
Y360000D03*
Y560000D03*
X8000000Y800000D03*
Y400000D03*
X7460000Y1060000D03*
X7560000D03*
X7660000D03*
X7760000Y960000D03*
Y860000D03*
X7600000Y1200000D03*
X8000000D03*
Y1600000D03*
Y2000000D03*
X7768500Y1984500D03*
X7678500D03*
X7588500D03*
X7768500Y1604500D03*
X7678500D03*
X7588500D03*
X7768500Y2114500D03*
X7678500D03*
X7590000Y2110000D03*
X8000000Y2400000D03*
X7598500Y2474500D03*
X7688500D03*
X7778500D03*
X8000000Y2800000D03*
Y3200000D03*
X7600000D03*
X7740000Y3860000D03*
Y3960000D03*
Y4060000D03*
X7940000Y3740000D03*
X7840000D03*
X8000000Y3600000D03*
X7600000D03*
Y4000000D03*
X7740000Y4360000D03*
Y4160000D03*
Y4260000D03*
Y4460000D03*
Y4560000D03*
Y4660000D03*
X7600000Y4400000D03*
X7740000Y4960000D03*
Y4860000D03*
Y4760000D03*
X7940000Y5060000D03*
X7840000D03*
X7600000Y4800000D03*
Y5200000D03*
X8000000D03*
Y5600000D03*
Y6000000D03*
X7400000D03*
X7600000D03*
X8000000Y6400000D03*
X7400000D03*
X7600000D03*
X8000000Y6800000D03*
Y7200000D03*
X7400000D03*
Y6800000D03*
X7600000D03*
Y7200000D03*
X8000000Y7600000D03*
Y8000000D03*
X7600000D03*
Y7600000D03*
X7400000D03*
Y8000000D03*
X7890000Y8400000D03*
X7950000Y8560000D03*
Y8220000D03*
X7460000Y8740000D03*
X7860000D03*
X7960000D03*
X7760000D03*
X7660000D03*
X7560000D03*
X8160000Y60000D03*
X8260000D03*
X8360000D03*
X8060000D03*
X8460000D03*
X8660000D03*
X8560000D03*
X8660000Y140000D03*
X8420000Y160000D03*
X8230000Y230000D03*
Y570000D03*
X8170000Y410000D03*
X8420000Y640000D03*
X8610000Y570000D03*
X8600000Y220000D03*
X8650000Y410000D03*
X8400000Y800000D03*
Y1200000D03*
Y2000000D03*
Y2400000D03*
Y2800000D03*
Y3200000D03*
X8640000Y3740000D03*
X8140000D03*
X8240000D03*
X8340000D03*
X8440000D03*
X8540000D03*
X8040000D03*
X8400000Y3600000D03*
X8640000Y5060000D03*
X8440000D03*
X8540000D03*
X8340000D03*
X8240000D03*
X8140000D03*
X8040000D03*
X8400000Y5200000D03*
Y5600000D03*
Y6000000D03*
Y6200000D03*
Y6400000D03*
Y6800000D03*
Y7200000D03*
Y7600000D03*
Y8000000D03*
X8370000Y8400000D03*
X8320000Y8210000D03*
X8330000Y8560000D03*
X8140000Y8630000D03*
Y8150000D03*
X8660000Y8640000D03*
X8560000D03*
X8460000D03*
X8660000Y8530000D03*
X8560000D03*
X8660000Y8440000D03*
X8560000D03*
X8660000Y8340000D03*
X8560000D03*
X8060000Y8740000D03*
X8260000D03*
X8360000D03*
X8460000D03*
X8160000D03*
X8560000D03*
X8660000D03*
X8740000Y140000D03*
Y240000D03*
Y340000D03*
Y740000D03*
Y440000D03*
Y540000D03*
Y640000D03*
Y1440000D03*
Y1340000D03*
Y1240000D03*
Y1140000D03*
Y840000D03*
Y940000D03*
Y1040000D03*
Y1540000D03*
Y1940000D03*
Y1640000D03*
Y1740000D03*
Y1840000D03*
Y2040000D03*
Y2640000D03*
Y2540000D03*
Y2440000D03*
Y2340000D03*
Y2140000D03*
Y2240000D03*
Y2740000D03*
Y3140000D03*
Y2840000D03*
Y2940000D03*
Y3040000D03*
Y3240000D03*
Y3340000D03*
Y3640000D03*
Y3540000D03*
Y3440000D03*
Y5140000D03*
Y5240000D03*
Y5340000D03*
Y6040000D03*
Y5540000D03*
Y5440000D03*
Y5940000D03*
Y5640000D03*
Y5740000D03*
Y5840000D03*
Y6240000D03*
Y6140000D03*
Y6340000D03*
Y6440000D03*
Y6540000D03*
Y6640000D03*
Y6740000D03*
Y7340000D03*
Y7240000D03*
Y7140000D03*
Y6840000D03*
Y6940000D03*
Y7040000D03*
Y7440000D03*
Y7540000D03*
Y7840000D03*
Y7740000D03*
Y7640000D03*
Y7940000D03*
Y8240000D03*
Y8140000D03*
Y8040000D03*
Y8340000D03*
Y8440000D03*
Y8540000D03*
Y8640000D03*
G54D20*
X1544000Y2244500D03*
Y2194500D03*
X4054000Y6594500D03*
Y6544500D03*
X6454000Y2234500D03*
Y2184500D03*
G54D30*
G01X1953100Y1756200D02*
Y1649100D01*
G01X2340000Y1430000D02*
X2530000D01*
X3122160Y837840D01*
Y347840D01*
X3123580Y346110D01*
X3123800Y343930D01*
Y210000D01*
G01X3276200D02*
X3423800D01*
G01X4276200D02*
X4423800D01*
G01X4460000Y6010000D02*
X4463100Y6013100D01*
G01D02*
Y6106200D01*
G01X5503800Y210000D02*
X5356200D01*
G01X6863100Y1746200D02*
Y1639100D01*
G54D12*
X800000Y840000D03*
X600000Y7800000D03*
X7900000Y300000D03*
X8360000Y7760000D03*
G54D21*
X1700000Y2890000D03*
X1600000D03*
X4230000Y7240000D03*
X4130000D03*
X6590000Y2880000D03*
X6490000D03*
G54D31*
G01X1474000Y2144500D02*
Y2051800D01*
X1394300Y1972100D01*
Y1756200D01*
G01X1474000Y2336900D02*
X1384000Y2426900D01*
Y2493800D01*
X1388500Y2498300D01*
G01X1566500Y2129500D02*
Y2003100D01*
X1661000Y1908600D01*
X1927700D01*
X1954000Y1934900D01*
Y2013300D01*
G01X1521500Y2129500D02*
Y1908400D01*
X1572100Y1857800D01*
X1644240D01*
X1673700Y1828340D01*
Y1756200D01*
G01X1619000Y2100260D02*
X1705960Y2013300D01*
X1819500D01*
G01D02*
X1820000Y2013800D01*
G01X1619000Y2294500D02*
X1667800Y2343300D01*
X1814000D01*
G01X1566500Y2309500D02*
Y2360200D01*
X1599800Y2393500D01*
G01D02*
X1625200D01*
X1648300Y2416600D01*
Y2619800D01*
G01X1521500Y2309500D02*
Y2403690D01*
X1514000Y2411190D01*
Y2484500D01*
G01X1518500Y2498300D02*
Y2489000D01*
X1514000Y2484500D01*
G01X1474000Y2294500D02*
Y2336900D01*
G01X1619000Y2144500D02*
Y2100260D01*
G01X3984000Y6644500D02*
Y6696480D01*
X3961000Y6719480D01*
X3941370D01*
X3898500Y6762350D01*
Y6848300D01*
G01X4031500Y6479500D02*
Y6258400D01*
X4082100Y6207800D01*
X4154240D01*
X4183700Y6178340D01*
Y6106200D01*
G01X3984000Y6494500D02*
Y6401800D01*
X3904300Y6322100D01*
Y6106200D01*
G01X4028500Y6848300D02*
X4023550Y6843350D01*
G01X4031500Y6659500D02*
Y6753690D01*
X4023550Y6761640D01*
Y6843350D01*
G01X4076500Y6479500D02*
Y6353100D01*
X4171000Y6258600D01*
X4437700D01*
X4464000Y6284900D01*
Y6363300D01*
G01X4129000Y6644500D02*
X4177800Y6693300D01*
X4324000D01*
G01X4129000Y6494500D02*
Y6450260D01*
G01D02*
X4215960Y6363300D01*
X4329500D01*
G01X4090000Y6750000D02*
X4076500Y6736500D01*
G01D02*
Y6659500D01*
G01X6384000Y2134500D02*
Y2041800D01*
X6304300Y1962100D01*
Y1746200D01*
G01X6431500Y2119500D02*
Y1898400D01*
X6482100Y1847800D01*
X6554240D01*
X6583700Y1818340D01*
Y1746200D01*
G01X6476500Y2119500D02*
Y1993100D01*
X6571000Y1898600D01*
X6837700D01*
X6864000Y1924900D01*
Y2003300D01*
G01X6529000Y2090260D02*
X6615960Y2003300D01*
X6734000D01*
G01X6384000Y2284500D02*
Y2326900D01*
G01D02*
X6294000Y2416900D01*
Y2493300D01*
G01X6529000Y2284500D02*
X6577800Y2333300D01*
X6724000D01*
G01X6431500Y2299500D02*
Y2393690D01*
X6424000Y2401190D01*
Y2493300D01*
G01X6529000Y2134500D02*
Y2090260D01*
G01X6558300Y2609800D02*
Y2406600D01*
X6535200Y2383500D01*
X6509800D01*
G01D02*
X6476500Y2350200D01*
Y2299500D01*
G54D13*
X1241900Y1756200D03*
X1394300D03*
X1178400Y2251500D03*
X1026000D03*
X1521300Y1756200D03*
X1673700D03*
X1800700D03*
X1953100D03*
X3123800Y210000D03*
X3276200D03*
X3423800D03*
X3576200D03*
X3688400Y6601500D03*
X3536000D03*
X3751900Y6106200D03*
X3904300D03*
X4031300D03*
X4423800Y210000D03*
X4576200D03*
X4123800D03*
X4276200D03*
X4183700Y6106200D03*
X4310700D03*
X4463100D03*
X5203800Y210000D03*
X5356200D03*
X5503800D03*
X5656200D03*
X5936000Y2241500D03*
X6151900Y1746200D03*
X6304300D03*
X6431300D03*
X6583700D03*
X6088400Y2241500D03*
X6710700Y1746200D03*
X6863100D03*
G54D22*
X2772290Y1799500D03*
X2195710D03*
X2772290Y2299500D03*
X2195710D03*
X4705710Y6209500D03*
Y6709500D03*
X5282290Y6209500D03*
Y6709500D03*
X7105710Y1789500D03*
Y2289500D03*
X7682290Y1789500D03*
Y2289500D03*
G54D32*
G01X4634060Y7160000D02*
X4772000D01*
G01Y7044660D02*
Y7160000D01*
G01D02*
Y7275340D01*
G01X6660000Y8120000D02*
Y8233000D01*
G01D02*
Y8346000D01*
G01Y8233000D02*
X6773000D01*
G01X6914000Y8120000D02*
Y8233000D01*
G01D02*
Y8346000D01*
G01X6801000Y8233000D02*
X6914000D01*
G54D23*
X2678000Y2760000D03*
X2262000D03*
X4772000Y7160000D03*
X5188000D03*
X7172000Y2740000D03*
X7588000D03*
G54D14*
X1388500Y2498300D03*
Y2650700D03*
X1954000Y2013300D03*
X1820000Y2013800D03*
X1814000Y2343300D03*
Y2495700D03*
X1954000Y2165700D03*
X1518500Y2498300D03*
Y2650700D03*
X1820000Y2166200D03*
X3898500Y6848300D03*
Y7000700D03*
X4028500Y6848300D03*
Y7000700D03*
X4324000Y6693300D03*
X4464000Y6515700D03*
Y6363300D03*
X4330000Y6516200D03*
Y6363800D03*
X4324000Y6845700D03*
X6294000Y2493300D03*
Y2645700D03*
X6424000Y2493300D03*
Y2645700D03*
X6864000Y2003300D03*
X6734000D03*
X6724000Y2333300D03*
Y2485700D03*
X6864000Y2155700D03*
X6734000D03*
G54D33*
G01X1026000Y2180360D02*
Y2251500D01*
G01D02*
Y2322640D01*
G01X951050Y2251500D02*
X1026000D01*
G01X972510Y2359500D02*
Y2405000D01*
G01X919510D02*
X972510D01*
G01X1953100Y1756200D02*
Y1827340D01*
G01Y1756200D02*
X2028050D01*
G01X1814000Y2495700D02*
Y2570650D01*
G01X1742860Y2495700D02*
X1814000D01*
G01D02*
X1885140D01*
G01X2678000Y2644660D02*
Y2760000D01*
G01D02*
Y2875340D01*
G01X2540060Y2760000D02*
X2678000D01*
G01D02*
X2815940D01*
G01X2772290Y1642000D02*
Y1799500D01*
G01D02*
Y1957000D01*
G01Y1799500D02*
X2896770D01*
G01X2772290Y2142000D02*
Y2299500D01*
G01D02*
Y2457000D01*
G01Y2299500D02*
X2896770D01*
G01X3999950Y5539500D02*
Y5670000D01*
G01D02*
Y5800500D01*
G01X3869450Y5670000D02*
X3999950D01*
G01D02*
X4130450D01*
G01X3536000Y6530360D02*
Y6601500D01*
G01D02*
Y6672640D01*
G01X3461050Y6601500D02*
X3536000D01*
G01X3492510Y6719500D02*
Y6765000D01*
G01X3439510D02*
X3492510D01*
G01X4028500Y7000700D02*
Y7075650D01*
G01Y7000700D02*
X4099640D01*
G01X4463100Y6106200D02*
Y6177340D01*
G01Y6106200D02*
X4538050D01*
G01X4324000Y6845700D02*
Y6920650D01*
G01X4252860Y6845700D02*
X4324000D01*
G01D02*
X4395140D01*
G01X4800050Y3316500D02*
Y3447000D01*
G01D02*
Y3577500D01*
G01Y3447000D02*
X4930550D01*
G01X5282290Y6552000D02*
Y6709500D01*
G01Y6052000D02*
Y6209500D01*
G01D02*
Y6367000D01*
G01Y6209500D02*
X5406770D01*
G01X5188000Y7044660D02*
Y7160000D01*
G01D02*
Y7275340D01*
G01X5050060Y7160000D02*
X5188000D01*
G01D02*
X5325940D01*
G01X5282290Y6709500D02*
Y6867000D01*
G01Y6709500D02*
X5406770D01*
G01X5656200Y210000D02*
Y281140D01*
G01Y210000D02*
X5731150D01*
G01X5882510Y2535000D02*
Y2580500D01*
G01Y2359500D02*
Y2405000D01*
G01X5829510D02*
X5882510D01*
G01X5936000Y2170360D02*
Y2241500D01*
G01D02*
Y2312640D01*
G01X5861050Y2241500D02*
X5936000D01*
G01X5829510Y2535000D02*
X5882510D01*
G01X5898000Y8487000D02*
Y8600000D01*
G01X5785000Y8487000D02*
X5898000D01*
G01D02*
X6011000D01*
G01X6424000Y2645700D02*
X6495140D01*
G01X6424000D02*
Y2720650D01*
G01X6652860Y2485700D02*
X6724000D01*
G01X6152000Y8487000D02*
Y8600000D01*
G01X6039000Y8487000D02*
X6152000D01*
G01X6660000D02*
Y8600000D01*
G01Y8487000D02*
X6773000D01*
G01X6863100Y1746200D02*
Y1817340D01*
G01Y1746200D02*
X6938050D01*
G01X6724000Y2485700D02*
Y2560650D01*
G01Y2485700D02*
X6795140D01*
G01X6914000Y8487000D02*
Y8600000D01*
G01X6801000Y8487000D02*
X6914000D01*
G01X7682290Y1632000D02*
Y1789500D01*
G01D02*
Y1947000D01*
G01Y1789500D02*
X7806770D01*
G01X7588000Y2624660D02*
Y2740000D01*
G01X7682290Y2132000D02*
Y2289500D01*
G01D02*
Y2447000D01*
G01Y2289500D02*
X7806770D01*
G01X7588000Y2740000D02*
Y2855340D01*
G01X7450060Y2740000D02*
X7588000D01*
G01D02*
X7725940D01*
G54D24*
X3099770Y3447000D03*
Y4400000D03*
Y5670000D03*
X5700230Y3447000D03*
Y4400000D03*
Y5670000D03*
G54D15*
G01X3898500Y7000700D02*
X4028500D01*
G01X3898500Y7088500D02*
Y7000700D01*
X1070010Y2525000D03*
Y2415000D03*
X3590010Y6885000D03*
Y6775000D03*
X5980010Y2525000D03*
Y2415000D03*
G54D34*
G01X1394300Y1756200D02*
X1521300D01*
G01X1673700D02*
X1800700D01*
G01X3904300Y6106200D02*
X4031300D01*
G01X4183700D02*
X4310700D01*
G01X6304300Y1746200D02*
X6431300D01*
G01X6583700D02*
X6710700D01*
G54D16*
X1167510Y2535000D03*
Y2470000D03*
Y2405000D03*
X972510D03*
Y2470000D03*
Y2535000D03*
X3687510Y6895000D03*
Y6830000D03*
Y6765000D03*
X3492510D03*
Y6830000D03*
Y6895000D03*
X5882510Y2405000D03*
Y2470000D03*
Y2535000D03*
X6077510D03*
Y2470000D03*
Y2405000D03*
G54D25*
X3999950Y3447000D03*
Y4400000D03*
Y5670000D03*
X4400000Y3447000D03*
Y4400000D03*
Y5670000D03*
X5200100Y3447000D03*
X4800050D03*
X5200100Y4400000D03*
X4800050D03*
X5200100Y5670000D03*
X4800050D03*
G54D35*
G01X0Y100000D02*
Y3700000D01*
G02X100000Y3800000I100000J0D01*
G01X900000D01*
G03X1000000Y3900000I0J100000D01*
G01Y4900000D01*
G03X900000Y5000000I-100000J0D01*
G01X100000D01*
G02X0Y5100000I0J100000D01*
G01Y8700000D01*
G02X100000Y8800000I100000J0D01*
G01X3700000D01*
G02X3800000Y8700000I0J-100000D01*
G01Y7900000D01*
G03X3900000Y7800000I100000J0D01*
G01X4900000D01*
G03X5000000Y7900000I0J100000D01*
G01Y8700000D01*
G02X5100000Y8800000I100000J0D01*
G01X8700000D01*
G02X8800000Y8700000I0J-100000D01*
G01Y5100000D01*
G02X8700000Y5000000I-100000J0D01*
G01X7900000D01*
G03X7800000Y4900000I0J-100000D01*
G01Y3900000D01*
G03X7900000Y3800000I100000J0D01*
G01X8700000D01*
G02X8800000Y3700000I0J-100000D01*
G01Y100000D01*
G02X8700000Y0I-100000J0D01*
G01X7800000D01*
G02X7700000Y100000I0J100000D01*
G01Y900000D01*
G03X7600000Y1000000I-100000J0D01*
G01X6400000D01*
G03X6300000Y900000I0J-100000D01*
G01Y100000D01*
G02X6200000Y0I-100000J0D01*
G01X2600000D01*
G02X2500000Y100000I0J100000D01*
G01Y900000D01*
G03X2400000Y1000000I-100000J0D01*
G01X1200000D01*
G03X1100000Y900000I0J-100000D01*
G01Y100000D01*
G02X1000000Y0I-100000J0D01*
G01X100000D01*
G02X0Y100000I0J100000D01*
G54D26*
X3599900Y3447000D03*
Y4400000D03*
Y5670000D03*
G54D17*
X1474000Y2294500D03*
Y2144500D03*
X3984000Y6644500D03*
Y6494500D03*
X6384000Y2284500D03*
Y2134500D03*
G54D27*
X5898000Y8487000D03*
Y8233000D03*
X6152000Y8487000D03*
Y8233000D03*
X6406000Y8487000D03*
Y8233000D03*
X6660000Y8487000D03*
Y8233000D03*
X6914000Y8487000D03*
Y8233000D03*
X7168000Y8487000D03*
Y8233000D03*
X7422000Y8487000D03*
G54D18*
X1521500Y2309500D03*
X1566500D03*
Y2129500D03*
X1521500D03*
X4031500Y6659500D03*
Y6479500D03*
X4076500Y6659500D03*
Y6479500D03*
X6431500Y2299500D03*
X6476500D03*
Y2119500D03*
X6431500D03*
G54D28*
X7422000Y8233000D03*
G54D19*
X1619000Y2294500D03*
Y2144500D03*
X4129000Y6644500D03*
Y6494500D03*
X6529000Y2284500D03*
Y2134500D03*
G54D29*
G01X4840000Y5930000D02*
X5460000D01*
X5510050Y5980050D01*
X5828680D01*
X6010280Y5798450D01*
Y5541550D01*
X5828680Y5359950D01*
X5399950D01*
X4979960Y4940000D01*
X2720000D01*
X2400000Y4620000D01*
Y3330020D01*
X4123800Y1606110D01*
Y210000D01*
G01X5540000Y5110000D02*
X5314950Y4885000D01*
X2755000D01*
X2460000Y4590000D01*
Y3350000D01*
X4180000Y1630000D01*
Y890000D01*
X4576200Y493800D01*
Y210000D01*
G01X3576200D02*
X3700000D01*
G01X3999950Y3447000D02*
X4148620D01*
X4178620Y3417000D01*
Y3282320D01*
X4233640Y3227300D01*
X4527690D01*
X4620000Y3319610D01*
Y3669610D01*
X4797690Y3847300D01*
X6017690D01*
X7862700Y5692310D01*
Y8154620D01*
X7635970Y8381350D01*
X7599500D01*
X7569500Y8411350D01*
Y8457000D01*
X7539500Y8487000D01*
X7422000D01*
G01X3900000Y7090000D02*
X3898500Y7088500D01*
G01X4320000Y1580000D02*
Y1010000D01*
X5120000Y210000D01*
X5203800D01*
G01X4400000Y3447000D02*
X4251320D01*
X4221320Y3417000D01*
Y3300010D01*
X4251330Y3270000D01*
X4510000D01*
X4577300Y3337300D01*
Y3687300D01*
X4780000Y3890000D01*
X6000000D01*
X7820000Y5710000D01*
Y8136930D01*
X7618280Y8338650D01*
X7599500D01*
X7569500Y8308650D01*
Y8263000D01*
X7539500Y8233000D01*
X7422000D01*
G01X4329500Y6363300D02*
X4330000Y6363800D01*
G01X5790000Y200000D02*
X5666200D01*
X5656200Y210000D01*
M02*
