G04 ================== begin FILE IDENTIFICATION RECORD ==================*
G04 Layout Name:  Adaptor_V111.brd*
G04 Film Name:    ADAPTOR_ver1.1.1_SMASK_BOTTOM.art*
G04 File Format:  Gerber RS274X*
G04 File Origin:  Cadence Allegro 17.2-S052*
G04 Origin Date:  Fri Mar 21 16:16:00 2025*
G04 *
G04 Layer:  BOARD GEOMETRY/DESIGN_OUTLINE*
G04 Layer:  PIN/SOLDERMASK_BOTTOM*
G04 Layer:  VIA CLASS/SOLDERMASK_BOTTOM*
G04 Layer:  PACKAGE GEOMETRY/SOLDERMASK_BOTTOM*
G04 Layer:  BOARD GEOMETRY/SOLDERMASK_BOTTOM*
G04 *
G04 Offset:    (0.0000 0.0000)*
G04 Mirror:    No*
G04 Mode:      Positive*
G04 Rotation:  0*
G04 FullContactRelief:  No*
G04 UndefLineWidth:     0.1270*
G04 ================== end FILE IDENTIFICATION RECORD ====================*
%FSLAX25Y25*MOMM*%
%IR0*IPPOS*OFA0.00000B0.00000*MIA0B0*SFA1.00000B1.00000*%
%ADD12C,.6016*%
%ADD14C,2.4*%
%ADD13C,5.5*%
%ADD15R,2.4X2.4*%
%ADD11C,1.1506*%
%ADD16C,1.85*%
%ADD17R,1.85X1.85*%
%ADD10C,6.55*%
%ADD18C,.127*%
G75*
%LPD*%
G75*
G36*
G01X5120000Y8780000D02*
X8680000D01*
G02X8780000Y8680000I0J-100000D01*
G01Y5120000D01*
G02X8680000Y5020000I-100000J0D01*
G01X7880000D01*
G03X7780000Y4920000I0J-100000D01*
G01Y3880000D01*
G03X7880000Y3780000I100000J0D01*
G01X8680000D01*
G02X8780000Y3680000I0J-100000D01*
G01Y120000D01*
G02X8680000Y20000I-100000J0D01*
G01X7820000D01*
G02X7720000Y120000I0J100000D01*
G01Y920000D01*
G03X7620000Y1020000I-100000J0D01*
G01X6380000D01*
G03X6280000Y920000I0J-100000D01*
G01Y120000D01*
G02X6180000Y20000I-100000J0D01*
G01X2620000D01*
G02X2520000Y120000I0J100000D01*
G01Y920000D01*
G03X2420000Y1020000I-100000J0D01*
G01X1180000D01*
G03X1080000Y920000I0J-100000D01*
G01Y120000D01*
G02X980000Y20000I-100000J0D01*
G01X120000D01*
G02X20000Y120000I0J100000D01*
G01Y3680000D01*
G02X120000Y3780000I100000J0D01*
G01X920000D01*
G03X1020000Y3880000I0J100000D01*
G01Y4920000D01*
G03X920000Y5020000I-100000J0D01*
G01X120000D01*
G02X20000Y5120000I0J100000D01*
G01Y8680000D01*
G02X120000Y8780000I100000J0D01*
G01X3680000D01*
G02X3780000Y8680000I0J-100000D01*
G01Y7880000D01*
G03X3880000Y7780000I100000J0D01*
G01X4920000D01*
G03X5020000Y7880000I0J100000D01*
G01Y8680000D01*
G02X5120000Y8780000I100000J0D01*
G37*
%LPC*%
G75*
G36*
G01X5100000Y7800000D02*
Y8600000D01*
G02X5200000Y8700000I100000J0D01*
G01X7830000D01*
G02X7930000Y8600000I0J-100000D01*
G01Y8580000D01*
X7960000Y8550000D01*
X8250000D01*
X8300000Y8500000D01*
Y8330000D01*
X8400000Y8230000D01*
X8600000D01*
G02X8700000Y8130000I0J-100000D01*
G01Y5200000D01*
G02X8600000Y5100000I-100000J0D01*
G01X7800000D01*
G03X7700000Y5000000I0J-100000D01*
G01Y3800000D01*
G03X7800000Y3700000I100000J0D01*
G01X8600000D01*
G02X8700000Y3600000I0J-100000D01*
G01Y690000D01*
G02X8600000Y590000I-100000J0D01*
G01X8570000Y560000D01*
Y320000D01*
X8500000Y250000D01*
X8260000D01*
X8220000Y210000D01*
Y200000D01*
G02X8120000Y100000I-100000J0D01*
G01X7900000D01*
G02X7800000Y200000I0J100000D01*
G01Y1000000D01*
G03X7700000Y1100000I-100000J0D01*
G01X6300000D01*
G03X6200000Y1000000I0J-100000D01*
G01Y200000D01*
G02X6100000Y100000I-100000J0D01*
G01X2700000D01*
G02X2600000Y200000I0J100000D01*
G01Y1000000D01*
G03X2500000Y1100000I-100000J0D01*
G01X1100000D01*
G03X1000000Y1000000I0J-100000D01*
G01Y200000D01*
G02X900000Y100000I-100000J0D01*
G01X700000D01*
G02X600000Y200000I0J100000D01*
G01Y210000D01*
X570000Y240000D01*
X330000D01*
X240000Y330000D01*
Y600000D01*
X230000Y610000D01*
X200000D01*
G02X100000Y710000I0J100000D01*
G01Y3600000D01*
G02X200000Y3700000I100000J0D01*
G01X1000000D01*
G03X1100000Y3800000I0J100000D01*
G01Y5000000D01*
G03X1000000Y5100000I-100000J0D01*
G01X200000D01*
G02X100000Y5200000I0J100000D01*
G01Y6090000D01*
G02X200000Y6190000I100000J0D01*
G01X850000D01*
G03X950000Y6290000I0J100000D01*
G01Y6990000D01*
G03X850000Y7090000I-100000J0D01*
G01X200000D01*
G02X100000Y7190000I0J100000D01*
G01Y8140000D01*
G02X200000Y8240000I100000J0D01*
G01X600000D01*
X620000Y8260000D01*
Y8450000D01*
X720000Y8550000D01*
X1000000D01*
X1020000Y8570000D01*
Y8600000D01*
G02X1120000Y8700000I100000J0D01*
G01X3600000D01*
G02X3700000Y8600000I0J-100000D01*
G01Y7800000D01*
G03X3800000Y7700000I100000J0D01*
G01X5000000D01*
G03X5100000Y7800000I0J100000D01*
G37*
%LPD*%
G75*
G54D10*
X408000Y408000D03*
X500000Y6640000D03*
X798000Y8392000D03*
X8138000D03*
X8409000Y408000D03*
G54D11*
X800000Y840000D03*
X600000Y7800000D03*
X7900000Y300000D03*
X8360000Y7760000D03*
G54D12*
X1070010Y2525000D03*
Y2415000D03*
X3590010Y6885000D03*
Y6775000D03*
X5980010Y2525000D03*
Y2415000D03*
G54D13*
X3099770Y3447000D03*
Y4400000D03*
Y5670000D03*
X5700230Y3447000D03*
Y4400000D03*
Y5670000D03*
G54D14*
X3999950Y3447000D03*
Y4400000D03*
Y5670000D03*
X4400000Y3447000D03*
Y4400000D03*
Y5670000D03*
X5200100Y3447000D03*
X4800050D03*
X5200100Y4400000D03*
X4800050D03*
X5200100Y5670000D03*
X4800050D03*
G54D15*
X3599900Y3447000D03*
Y4400000D03*
Y5670000D03*
G54D16*
X5898000Y8487000D03*
Y8233000D03*
X6152000Y8487000D03*
Y8233000D03*
X6406000Y8487000D03*
Y8233000D03*
X6660000Y8487000D03*
Y8233000D03*
X6914000Y8487000D03*
Y8233000D03*
X7168000Y8487000D03*
Y8233000D03*
X7422000Y8487000D03*
G54D17*
Y8233000D03*
G54D18*
G01X0Y100000D02*
Y3700000D01*
G02X100000Y3800000I100000J0D01*
G01X900000D01*
G03X1000000Y3900000I0J100000D01*
G01Y4900000D01*
G03X900000Y5000000I-100000J0D01*
G01X100000D01*
G02X0Y5100000I0J100000D01*
G01Y8700000D01*
G02X100000Y8800000I100000J0D01*
G01X3700000D01*
G02X3800000Y8700000I0J-100000D01*
G01Y7900000D01*
G03X3900000Y7800000I100000J0D01*
G01X4900000D01*
G03X5000000Y7900000I0J100000D01*
G01Y8700000D01*
G02X5100000Y8800000I100000J0D01*
G01X8700000D01*
G02X8800000Y8700000I0J-100000D01*
G01Y5100000D01*
G02X8700000Y5000000I-100000J0D01*
G01X7900000D01*
G03X7800000Y4900000I0J-100000D01*
G01Y3900000D01*
G03X7900000Y3800000I100000J0D01*
G01X8700000D01*
G02X8800000Y3700000I0J-100000D01*
G01Y100000D01*
G02X8700000Y0I-100000J0D01*
G01X7800000D01*
G02X7700000Y100000I0J100000D01*
G01Y900000D01*
G03X7600000Y1000000I-100000J0D01*
G01X6400000D01*
G03X6300000Y900000I0J-100000D01*
G01Y100000D01*
G02X6200000Y0I-100000J0D01*
G01X2600000D01*
G02X2500000Y100000I0J100000D01*
G01Y900000D01*
G03X2400000Y1000000I-100000J0D01*
G01X1200000D01*
G03X1100000Y900000I0J-100000D01*
G01Y100000D01*
G02X1000000Y0I-100000J0D01*
G01X100000D01*
G02X0Y100000I0J100000D01*
M02*
