G04 ================== begin FILE IDENTIFICATION RECORD ==================*
G04 Layout Name:  Adaptor_V111.brd*
G04 Film Name:    ADAPTOR_ver1.1.1_SILK_TOP.art*
G04 File Format:  Gerber RS274X*
G04 File Origin:  Cadence Allegro 17.2-S052*
G04 Origin Date:  Fri Mar 21 16:15:59 2025*
G04 *
G04 Layer:  BOARD GEOMETRY/DESIGN_OUTLINE*
G04 Layer:  REF DES/SILKSCREEN_TOP*
G04 Layer:  PACKAGE GEOMETRY/SILKSCREEN_TOP*
G04 Layer:  BOARD GEOMETRY/SILKSCREEN_TOP*
G04 *
G04 Offset:    (0.0000 0.0000)*
G04 Mirror:    No*
G04 Mode:      Positive*
G04 Rotation:  0*
G04 FullContactRelief:  No*
G04 UndefLineWidth:     0.1524*
G04 ================== end FILE IDENTIFICATION RECORD ====================*
%FSLAX25Y25*MOMM*%
%IR0*IPPOS*OFA0.00000B0.00000*MIA0B0*SFA1.00000B1.00000*%
%ADD10C,.1*%
%ADD11C,.2*%
%ADD12C,.4*%
%ADD13C,.15*%
%ADD14C,.25*%
%ADD15C,.2032*%
%ADD16C,.1524*%
%ADD17C,.2499*%
%ADD18C,.1999*%
G75*
%LPD*%
G75*
G36*
G01X603510Y1516880D02*
G02X623580Y1517390I22115J-475145D01*
G02X644150Y1516880I-1560J-478007D01*
G02X659390Y1515360I-7422J-151574D01*
G02X688350Y1508760I-25997J-180907D01*
G02X714760Y1497580I-48761J-151969D01*
G02X737880Y1482590I-67900J-130051D01*
G02X756670Y1464050I-76724J-96551D01*
G02X780040Y1427220I-149561J-120732D01*
G02X809250Y1362960I-1074083J-527003D01*
G02X834400Y1296920I-1102260J-457582D01*
G02X844300Y1253990I-186434J-65600D01*
G02X844560Y1216150I-181159J-20166D01*
G02X837440Y1174750I-272615J25572D01*
G02X823220Y1132070I-302857J77196D01*
G02X802900Y1090420I-329334J134892D01*
G02X788680Y1067810I-379237J222735D01*
G02X774450Y1048000I-253978J167423D01*
G02X757940Y1028440I-266939J208567D01*
G02X737110Y1006600I-489245J445766D01*
G02X704090Y975860I-406020J403030D01*
G02X673110Y952750I-199604J235258D01*
G02X643640Y936240I-128009J193937D01*
G02X614430Y926080I-67571J147197D01*
G02X572010Y922520I-31831J124778D01*
G02X541030Y935990I5202J54325D01*
G02X527820Y962150I24939J29009D01*
G02X534420Y995680I65155J4590D01*
G02X544330Y1010920I71668J-35761D01*
G02X560330Y1028190I168029J-139626D01*
G02X581160Y1046980I212539J-214673D01*
G02X606810Y1066290I323589J-403142D01*
G03X655580Y1105150I-358043J499384D01*
G03X696980Y1146040I-304288J349486D01*
G03X730760Y1189990I-315331J277320D01*
G03X758450Y1237480I-332441J225654D01*
G03X770640Y1264920I-380137J185301D01*
G03X779530Y1290820I-268916J106779D01*
G03X785880Y1316220I-252111J76522D01*
G03X789690Y1342640I-280527J53939D01*
G01X791220Y1358390D01*
X778260Y1367020D01*
G03X763780Y1375150I-59264J-88593D01*
G03X746510Y1382010I-72156J-156484D01*
G03X727210Y1387340I-61482J-185021D01*
G03X707650Y1390650I-42171J-189753D01*
G03X681230Y1391920I-22820J-199279D01*
G03X652790Y1390140I2215J-263488D01*
G03X615960Y1384040I65180J-507771D01*
G03X559820Y1372360I514614J-2614256D01*
G02X537220Y1368290I-57329J253557D01*
G02X514360Y1366520I-31511J258471D01*
G02X494290I-10035J224223D01*
G02X481590Y1369060I1615J41094D01*
G02X469140Y1377180I13455J34235D01*
G02X461270Y1389120I22694J23522D01*
G02X458730Y1404870I38846J14344D01*
G02X461520Y1422900I72780J-2031D01*
G02X477780Y1455160I94545J-27426D01*
G02X505470Y1482340I104908J-79182D01*
G02X543570Y1502910I97154J-134379D01*
G02X589790Y1515360I86772J-230116D01*
G02X603510Y1516880I18992J-108751D01*
G37*
G36*
G01X438160Y1697730D02*
G02X457970I9905J-185973D01*
G02X476760Y1696210I-5293J-182331D01*
G02X488700Y1692140I-6040J-37269D01*
G02X503940Y1679440I-21942J-41824D01*
G02X511820Y1662170I-30729J-24454D01*
G02X511050Y1641340I-47916J-8658D01*
G02X501910Y1619250I-83769J21725D01*
G02X492510Y1606040I-72945J41957D01*
G02X478030Y1591310I-168557J151214D01*
G02X459490Y1575050I-215630J227166D01*
G02X437140Y1558030I-336489J418679D01*
G03X394720Y1525520I556569J-770158D01*
G03X361960Y1496060I281121J-345556D01*
G03X334270Y1465580I267036J-270411D01*
G03X307850Y1430020I395063J-321114D01*
G03X286260Y1394200I342226J-230688D01*
G03X269250Y1357880I301868J-163519D01*
G03X257310Y1321560I291377J-115911D01*
G03X250450Y1284980I270317J-69627D01*
G03X249180Y1270000I184394J-23177D01*
G03X250960Y1262630I14563J-383D01*
G03X256040Y1257040I13339J7018D01*
G03X269500Y1248660I121923J180834D01*
G03X287030Y1240530I79766J149028D01*
G03X303540Y1235200I42097J102161D01*
G03X322080Y1231900I33187J132717D01*
G03X346720Y1230370I36034J381140D01*
G03X372620I12950J413931D01*
G03X395480Y1232150I-8472J256485D01*
G03X421900Y1236210I-43662J372120D01*
G03X459490Y1244090I-300270J1525976D01*
G02X509280Y1253740I208950J-944824D01*
G02X539760Y1255260I22204J-138879D01*
G02X560080Y1250180I-2751J-54183D01*
G02X575320Y1237740I-17365J-36829D01*
G02X577600Y1233930I-16175J-12266D01*
G02X578870Y1229610I-19107J-7964D01*
G02X579630Y1224020I-35882J-7725D01*
G02X579890Y1215640I-168400J-9419D01*
G02X579380Y1205990I-136141J2357D01*
G02X578360Y1199380I-37832J2454D01*
G02X576080Y1192530I-43694J10739D01*
G02X571510Y1182620I-197449J85045D01*
G02X538230Y1142490I-100371J49373D01*
G02X485150Y1114800I-113011J151915D01*
G02X421390Y1103120I-71668J211358D01*
G02X356620Y1110480I-7069J226464D01*
G02X332240Y1119370I34295J131927D01*
G02X309120Y1133090I66337J138126D01*
G02X289060Y1150360I86936J121267D01*
G02X273310Y1170170I87422J85671D01*
G02X254260Y1204460I296801J187326D01*
G02X232670Y1252220I996775J479354D01*
G02X212860Y1301750I1030182J440758D01*
G02X200410Y1341120I388070J144373D01*
G02X195330Y1371090I168562J43987D01*
G02X195080Y1402580I204913J17373D01*
G02X199900Y1436110I236315J-16859D01*
G02X209560Y1471160I311045J-66870D01*
G02X225300Y1509260I312720J-106891D01*
G02X245620Y1545330I302175J-146471D01*
G02X271530Y1580130I309838J-203642D01*
G02X303030Y1614670I391937J-325807D01*
G02X335030Y1644390I391386J-389324D01*
G02X365770Y1667510I217656J-257397D01*
G02X394980Y1684520I144903J-215247D01*
G02X422410Y1694940I66617J-134050D01*
G02X438160Y1697730I21737J-76860D01*
G37*
G36*
G01X930310Y2558900D02*
X904910Y2584300D01*
Y2533500D01*
X930310Y2558900D01*
G37*
G36*
G01X1564740Y5614540D02*
G02X1597510Y5617840I43402J-266636D01*
G02X1628500Y5617330I11214J-260359D01*
G02X1648050Y5612000I-3442J-51144D01*
G02X1666850Y5597260I-29394J-56849D01*
G02X1678280Y5577200I-43778J-38231D01*
G02X1681580Y5553320I-60396J-20514D01*
G02X1676250Y5527670I-85875J4466D01*
G02X1664310Y5507090I-72072J28061D01*
G02X1642720Y5482960I-206293J162855D01*
G02X1610460Y5454260I-324133J331859D01*
G02X1565250Y5418960I-896611J1101721D01*
G03X1537560Y5397620I579826J-780995D01*
G03X1509370Y5374000I749664J-923341D01*
G03X1484220Y5351900I695067J-816353D01*
G03X1467710Y5335640I174923J-194124D01*
G03X1414630Y5268330I429159J-393015D01*
G03X1370940Y5192900I514246J-348226D01*
G03X1341730Y5118980I480321J-232534D01*
G03X1332080Y5057510I196977J-62415D01*
G03X1332840Y5042020I129276J-1421D01*
G03X1336400Y5033890I16168J2235D01*
G03X1344020Y5027540I19470J15617D01*
G03X1363830Y5017130I226710J407370D01*
G03X1412090Y5000360I92854J189386D01*
G03X1466190Y4994270I57637J268671D01*
G03X1531470Y4998590I5342J414666D01*
G03X1613510Y5013830I-157700J1077370D01*
G02X1663040Y5022970I144600J-644819D01*
G02X1703430Y5025760I39403J-276671D01*
G02X1734670Y5022970I566J-169961D01*
G02X1754990Y5013570I-8990J-46097D01*
G02X1762860Y5006210I-36121J-46512D01*
G02X1767430Y4998590I-20051J-17206D01*
G02X1769970Y4989190I-31573J-13575D01*
G02X1770480Y4974960I-143614J-12271D01*
G02X1734670Y4893430I-110818J45D01*
G02X1637640Y4837550I-171348J185347D01*
G02X1513940Y4825100I-93223J305493D01*
G02X1407520Y4863970I21452J223848D01*
G02X1384910Y4884290I68750J99237D01*
G02X1362050Y4914510I218028J188684D01*
G02X1338680Y4954390I358149J236666D01*
G02X1314550Y5005190I816915J419165D01*
G02X1278740Y5093580I1493020J656326D01*
G02X1260700Y5157840I382667J142090D01*
G02X1256130Y5212960I250376J48508D01*
G02X1263240Y5270110I299131J-8197D01*
G02X1274170Y5308210I326805J-73135D01*
G02X1290680Y5350380I540103J-187139D01*
G02X1311000Y5391780I538204J-238475D01*
G02X1333090Y5427850I362171J-197002D01*
G02X1375260Y5480680I363042J-246542D01*
G02X1431390Y5535030I568569J-531031D01*
G02X1489810Y5581010I485064J-556196D01*
G02X1538070Y5607170I130316J-182812D01*
G02X1564740Y5614540I48933J-125133D01*
G37*
G36*
G01X1988700Y1672500D02*
X2039500D01*
Y1634400D01*
X2077600D01*
Y1583600D01*
X2039500D01*
Y1545500D01*
X1988700D01*
Y1583600D01*
X1950600D01*
Y1634400D01*
X1988700D01*
Y1672500D01*
G37*
G36*
G01X1994600Y2413500D02*
X2045400D01*
Y2375400D01*
X2083500D01*
Y2324600D01*
X2045400D01*
Y2286500D01*
X1994600D01*
Y2324600D01*
X1956500D01*
Y2375400D01*
X1994600D01*
Y2413500D01*
G37*
G36*
G01X1756770Y5368660D02*
G02X1778360Y5372220I54701J-264490D01*
G02X1802490Y5374510I43667J-331850D01*
G02X1830170Y5375270I29298J-562624D01*
G02X1911960Y5366890I2191J-381949D01*
G02X1971400Y5340220I-32203J-151344D01*
G02X2018640Y5289160I-109359J-148561D01*
G02X2063340Y5203820I-552215J-343620D01*
G02X2092050Y5135490I-2942207J-1276414D01*
G02X2109320Y5088250I-658632J-267560D01*
G02X2119480Y5050910I-360800J-118224D01*
G02X2124560Y5016370I-248940J-54257D01*
G02X2113640Y4913240I-287372J-21715D01*
G02X2066650Y4804280I-470251J138188D01*
G02X1990950Y4702930I-478351J278343D01*
G02X1895200Y4623430I-378110J357986D01*
G02X1841350Y4595490I-176041J273428D01*
G02X1790290Y4582530I-71298J173837D01*
G02X1747110Y4585840I-12375J121868D01*
G02X1716130Y4604380I14919J60083D01*
G02X1700890Y4640190I45143J40360D01*
G02X1709520Y4679820I71130J5265D01*
G02X1745590Y4725790I156552J-85701D01*
G02X1812900Y4780910I551738J-605099D01*
G03X1902310Y4858890I-426006J578696D01*
G03X1975210Y4948550I-459893J448393D01*
G03X2025240Y5041510I-449655J301942D01*
G03X2047340Y5129900I-278360J116556D01*
G01X2050640Y5166230D01*
X2030070Y5178930D01*
G03X1983840Y5198990I-92130J-149022D01*
G03X1929490Y5207370I-64207J-235987D01*
G03X1861410Y5204330I-16261J-399678D01*
G03X1772510Y5189090I160430J-1202752D01*
G02X1712570Y5177910I-290760J1392601D01*
G02X1673200Y5174610I-42071J265420D01*
G02X1645510Y5177400I-2129J117678D01*
G02X1625450Y5186800I10755J49056D01*
G02X1616300Y5195440I47500J59469D01*
G02X1612240Y5203060I14400J12564D01*
G02X1610720Y5213470I32910J10121D01*
G02X1611730Y5234300I431085J-10463D01*
G02X1613760Y5252590I215081J-14614D01*
G02X1617320Y5266300I74549J-12040D01*
G02X1623160Y5278240I60476J-22181D01*
G02X1632310Y5290940I105553J-66402D01*
G02X1654400Y5314820I177528J-142064D01*
G02X1679550Y5335140I152184J-162634D01*
G02X1707240Y5351390I124578J-180563D01*
G02X1736700Y5363330I93583J-188587D01*
G02X1756770Y5368660I64159J-201137D01*
G37*
G36*
G01X2115700Y1939200D02*
Y2015400D01*
X2217300D01*
Y1939200D01*
X2115700D01*
G37*
G36*
G01Y1583600D02*
Y1659800D01*
X2217300D01*
Y1583600D01*
X2115700D01*
G37*
G36*
G01Y2439200D02*
Y2515400D01*
X2217300D01*
Y2439200D01*
X2115700D01*
G37*
G36*
G01Y2083600D02*
Y2159800D01*
X2217300D01*
Y2083600D01*
X2115700D01*
G37*
G36*
G01X2563980Y5404730D02*
G02X2624180Y5398380I2677J-263153D01*
G02X2679040Y5379080I-53343J-239245D01*
G02X2721710Y5348850I-69754J-143688D01*
G02X2739240Y5327010I-101695J-99581D01*
G02X2756760Y5297540I-262115J-175771D01*
G02X2770230Y5268840I-321456J-168383D01*
G02X2770480Y5254870I-17399J-7299D01*
G02X2766920Y5251570I-5666J2542D01*
G02X2753970Y5246490I-98410J231822D01*
G02X2737460Y5241160I-82171J226295D01*
G02X2718410Y5236330I-106601J380463D01*
G02X2686910Y5229220I-481260J2058830D01*
G02X2675230Y5227950I-11992J55948D01*
G02X2668370Y5230230I157J11933D01*
G02X2663040Y5236080I10646J15053D01*
G03X2649580Y5255380I-132384J-77982D01*
G03X2633570Y5272650I-122533J-97537D01*
G03X2616300Y5285860I-90835J-100859D01*
G03X2600300Y5293230I-33316J-51276D01*
G03X2559910Y5297540I-31706J-105721D01*
G03X2521560Y5286880I8033J-103212D01*
G03X2495910Y5265030I31462J-62914D01*
G03X2490060Y5237850I28401J-20332D01*
G03X2495650Y5222360I56821J11752D01*
G03X2505560Y5207120I78608J40274D01*
G03X2519270Y5193400I76208J62442D01*
G03X2535280Y5182990I58530J72499D01*
G03X2544420Y5178930I44477J87810D01*
G03X2563980Y5171050I575438J1400156D01*
G03X2587350Y5162420I552074J1459055D01*
G03X2612240Y5153530I673128J1845320D01*
G02X2637890Y5144380I-299045J-878833D01*
G02X2663290Y5134220I-339651J-885957D01*
G02X2685390Y5124570I-327702J-780619D01*
G02X2698600Y5117710I-56625J-125188D01*
G02X2759810Y5057010I-87384J-149330D01*
G02X2783180Y4974710I-143150J-85117D01*
G02X2762610Y4892920I-161382J-2895D01*
G02X2703680Y4832720I-140406J78501D01*
G02X2642970Y4808590I-109729J187637D01*
G02X2573380Y4801230I-64776J279792D01*
G02X2504290Y4810880I4615J285193D01*
G02X2445360Y4836790I53592J201861D01*
G02X2424280Y4852540I105963J163805D01*
G02X2406500Y4870060I102434J121736D01*
G02X2390750Y4891400I138676J118832D01*
G02X2375510Y4918320I285439J179367D01*
G02X2365350Y4942710I168366J84446D01*
G02X2365100Y4957950I23076J8001D01*
G02X2373730Y4968360I16893J-5223D01*
G02X2393800Y4975980I42595J-81948D01*
G02X2436220Y4986140I501472J-2000108D01*
G02X2452980Y4987920I15208J-63401D01*
G02X2462380Y4983850I-602J-14281D01*
G02X2469490Y4973440I-21245J-22144D01*
G03X2486760Y4946520I85172J35641D01*
G03X2512670Y4925430I82927J75419D01*
G03X2545440Y4911970I63838J108801D01*
G03X2582010Y4907650I35216J141167D01*
G03X2622400Y4913500I-111J143120D01*
G03X2652370Y4930770I-20971J71032D01*
G03X2666850Y4956680I-35788J37002D01*
G03X2665580Y4987410I-55898J13081D01*
G03X2654400Y5006710I-52844J-17723D01*
G03X2634840Y5023730I-72580J-63663D01*
G03X2604110Y5039990I-106716J-164515D01*
G03X2556360Y5058780I-342325J-799864D01*
G02X2508350Y5076820I506487J1420823D01*
G02X2475840Y5091550I133434J337738D01*
G02X2450950Y5106790I102423J195222D01*
G02X2427830Y5125080I132662J191452D01*
G02X2403960Y5150220I143301J159964D01*
G02X2388970Y5175120I85438J68397D01*
G02X2380840Y5203560I104539J45266D01*
G02X2378300Y5239380I240701J35068D01*
G02X2380840Y5273920I242821J-493D01*
G02X2388460Y5301860I116620J-16796D01*
G02X2402180Y5325990I99238J-40460D01*
G02X2423520Y5349360I141425J-107712D01*
G02X2443840Y5366630I211080J-227769D01*
G02X2462380Y5378820I93843J-122534D01*
G02X2482440Y5388220I74105J-132039D01*
G02X2506830Y5396350I99571J-258063D01*
G02X2563980Y5404730I60305J-212202D01*
G37*
G36*
G01X3055470Y5231250D02*
G02X3100170Y5224140I-13406J-228348D01*
G02X3143100Y5208140I-59372J-224897D01*
G02X3177390Y5185530I-66515J-138182D01*
G02X3225390Y5116440I-116825J-132382D01*
G02X3243680Y5023730I-255363J-98538D01*
G02X3229460Y4929750I-277313J-6106D01*
G02X3184250Y4856850I-177470J59592D01*
G02X3157830Y4834250I-160829J161271D01*
G02X3131920Y4819770I-70648J95995D01*
G02X3101950Y4811640I-50200J125751D01*
G02X3062070Y4807830I-54603J360923D01*
G02X3033880Y4807070I-31810J656721D01*
G02X3015080Y4808340I200J142748D01*
G02X2998830Y4811900I13181J99033D01*
G02X2981050Y4818500I52483J168635D01*
G02X2968600Y4824340I74449J174905D01*
G02X2956410Y4831200I94499J182182D01*
G02X2946250Y4837800I90320J150158D01*
G02X2939900Y4843390I22120J31529D01*
G03X2934310Y4844660I-3670J-3217D01*
G03X2930250Y4839330I2814J-6355D01*
G03X2928470Y4818250I187558J-26453D01*
G01X2926180Y4749410D01*
X2923390Y4643750D01*
X2871320Y4641970D01*
X2819500Y4640190D01*
Y5222110D01*
X2868520Y5220330D01*
X2917290Y5218550D01*
X2919320Y5195940D01*
X2921100Y5173590D01*
X2942180Y5191880D01*
G02X2958690Y5205090I131100J-146928D01*
G02X2974700Y5214490I67820J-97176D01*
G02X2992730Y5221600I56780J-117571D01*
G02X3015080Y5227950I86230J-260996D01*
G02X3055470Y5231250I31867J-141209D01*
G37*
G36*
G01X3454500Y5230740D02*
G02X3496160Y5226680I2282J-192349D01*
G02X3534260Y5213980I-36378J-172635D01*
G02X3566010Y5193660I-57434J-124706D01*
G01X3589380Y5173850D01*
X3592930Y5218550D01*
X3641950Y5220330D01*
X3690720Y5222110D01*
Y4812150D01*
X3641950Y4813930D01*
X3592930Y4815450D01*
X3589380Y4860660D01*
X3569560Y4843140D01*
G02X3544420Y4825360I-99876J114556D01*
G02X3517240Y4813930I-61966J109322D01*
G02X3485740Y4808090I-43601J147303D01*
G02X3446880Y4807580I-23739J328111D01*
G02X3408270Y4811900I13464J295034D01*
G02X3376020Y4821040I28846J163248D01*
G02X3348580Y4835770I52349J130443D01*
G02X3324200Y4856350I87365J128227D01*
G02X3282290Y4924420I135922J130623D01*
G02X3266540Y5012050I269074J93592D01*
G02X3278480Y5099930I283503J6232D01*
G02X3317090Y5169780I179529J-53640D01*
G02X3337410Y5189590I142190J-125524D01*
G02X3359510Y5205340I103743J-122189D01*
G02X3384400Y5217280I83401J-141943D01*
G02X3412080Y5225660I72710J-190262D01*
G02X3454500Y5230740I45619J-201285D01*
G37*
G36*
G01X3932020Y5230490D02*
G02X3966310Y5229470I6915J-344420D01*
G02X4001110Y5224900I-28855J-354508D01*
G02X4031340Y5217280I-40643J-225014D01*
G02X4059530Y5203560I-32473J-102541D01*
G02X4089760Y5178930I-144832J-208628D01*
G02X4115410Y5150480I-171633J-180529D01*
G02X4129130Y5124570I-68981J-53115D01*
G02X4131670Y5115930I-175864J-56394D01*
G02X4133700Y5108060I-106769J-31737D01*
G02X4134710Y5101710I-117341J-21919D01*
G02X4133950Y5099680I-2408J-256D01*
G02X4131920Y5098410I-3617J3524D01*
G02X4120490Y5094850I-339513J1069938D01*
G02X4107280Y5091040I-168277J558642D01*
G02X4091790Y5086720I-282816J984149D01*
G01X4051910Y5076310D01*
X4032860Y5098410D01*
G03X4015590Y5115170I-101396J-87204D01*
G03X3998060Y5125330I-43348J-54590D01*
G03X3977230Y5130920I-31421J-75481D01*
G03X3949040Y5132700I-28518J-227533D01*
G03X3903830Y5121780I465J-100974D01*
G03X3868520Y5092060I43577J-87609D01*
G03X3848710Y5046850I92062J-67285D01*
G03X3847440Y4993250I154382J-30473D01*
G03X3858620Y4957690I122556J18994D01*
G03X3879190Y4929500I85827J41028D01*
G03X3908400Y4910960I64018J68581D01*
G03X3944470Y4902570I45041J111910D01*
G03X3973420Y4903590I9556J140123D01*
G03X3999590Y4910450I-13974J106657D01*
G03X4020410Y4922640I-32264J78980D01*
G03X4034130Y4939150I-32935J41325D01*
G02X4043270Y4951600I47630J-25387D01*
G02X4053690Y4956930I13626J-13789D01*
G02X4069180Y4957180I8458J-44023D01*
G02X4099660Y4951090I-97989J-569749D01*
G02X4130140Y4942710I-79872J-350133D01*
G02X4139790Y4934070I-4757J-15022D01*
G02X4139290Y4921370I-13690J-5821D01*
G02X4124300Y4894950I-282364J142743D01*
G02X4103980Y4868030I-168462J106031D01*
G02X4078830Y4844660I-155356J141971D01*
G02X4051400Y4826120I-123144J152631D01*
G02X4023460Y4814690I-65546J120359D01*
G02X3983080Y4807580I-52465J179747D01*
G02X3932530Y4807320I-27438J420367D01*
G02X3883510Y4813170I24172J410854D01*
G02X3848200Y4824600I24101J134710D01*
G02X3820260Y4841360I77770J161317D01*
G02X3795120Y4863200I116905J159958D01*
G02X3773780Y4889110I144907J141091D01*
G02X3756760Y4918320I165850J116201D01*
G02X3748380Y4939400I208752J95192D01*
G02X3743810Y4957180I95167J33938D01*
G02X3741780Y4979280I169960J26755D01*
G02X3741270Y5017130I1329152J36838D01*
G02X3741780Y5057510I1459142J1764D01*
G02X3744060Y5078850I137438J-3892D01*
G02X3749400Y5096880I90394J-16967D01*
G02X3760830Y5122030I371532J-153679D01*
G02X3785720Y5161150I184298J-89781D01*
G02X3817980Y5191880I139465J-114110D01*
G02X3857350Y5214230I110203J-148274D01*
G02X3902560Y5227440I83431J-201567D01*
G02X3932020Y5230490I34299J-187497D01*
G37*
G36*
G01X3450310Y6918900D02*
X3424910Y6944300D01*
Y6893500D01*
X3450310Y6918900D01*
G37*
G36*
G01X4360270Y5231250D02*
G02X4403950Y5227190I-1268J-250637D01*
G02X4445100Y5215500I-44386J-234516D01*
G02X4478120Y5197720I-50352J-133063D01*
G02X4511900Y5166230I-106212J-147799D01*
G02X4536800Y5126860I-143207J-118132D01*
G02X4552290Y5080120I-189965J-88892D01*
G02X4558130Y5026780I-292016J-58962D01*
G01X4559150Y4987410D01*
X4415380Y4985890D01*
G03X4353150Y4984870I56503J-5346048D01*
G03X4308700Y4983090I36215J-1460256D01*
G03X4274410Y4981060I147134J-2775949D01*
G03X4271620Y4978270I99J-2889D01*
G03X4272130Y4974460I11179J-443D01*
G03X4275180Y4966840I188777J71140D01*
G03X4278990Y4957950I188036J75325D01*
G03X4283810Y4948290I256162J121783D01*
G03X4313020Y4914770I81893J41876D01*
G03X4354930Y4898760I52972J75808D01*
G03X4401410Y4903840I12395J101771D01*
G03X4443580Y4928990I-41687J117827D01*
G01X4466950Y4950070D01*
X4505550Y4937120D01*
G02X4520540Y4931780I-137715J-410292D01*
G02X4533750Y4926450I-96960J-259343D01*
G02X4544420Y4921620I-125829J-292171D01*
G02X4547460Y4918830I-3242J-6584D01*
G02X4547210Y4903590I-11944J-7426D01*
G02X4524860Y4874890I-226050J152983D01*
G02X4495140Y4845930I-209119J184877D01*
G02X4464660Y4825360I-112190J133372D01*
G02X4445360Y4816720I-85165J164364D01*
G02X4428590Y4812150I-29922J76746D01*
G02X4407000Y4810120I-25709J157598D01*
G02X4366360Y4809610I-41524J1689430D01*
G02X4327250Y4810120I434J1533126D01*
G02X4304890Y4812150I5577J185592D01*
G02X4287620Y4816210I13210J94954D01*
G02X4269080Y4824090I53414J151423D01*
G02X4241140Y4840850I79316J163894D01*
G02X4215990Y4862950I121226J163317D01*
G02X4194400Y4889370I150713J145192D01*
G02X4177640Y4918320I163730J114114D01*
G02X4169000Y4939400I208752J97871D01*
G02X4164690Y4957180I95371J32531D01*
G02X4162400Y4979030I167746J28626D01*
G02X4161890Y5017130I1333172J36899D01*
G02X4162400Y5054720I1315903J945D01*
G02X4164430Y5076820I174296J-4867D01*
G02X4169000Y5094600I100573J-16373D01*
G02X4177390Y5115170I205251J-71721D01*
G02X4202530Y5156570I209073J-98626D01*
G02X4234280Y5189090I143363J-108209D01*
G02X4273140Y5212450I111044J-140723D01*
G02X4319370Y5227190I93112J-212167D01*
G02X4360270Y5231250I39438J-189253D01*
G37*
G36*
G01X4504600Y6023500D02*
X4555400D01*
Y5985400D01*
X4593500D01*
Y5934600D01*
X4555400D01*
Y5896500D01*
X4504600D01*
Y5934600D01*
X4466500D01*
Y5985400D01*
X4504600D01*
Y6023500D01*
G37*
G36*
G01X4625700Y6349200D02*
Y6425400D01*
X4727300D01*
Y6349200D01*
X4625700D01*
G37*
G36*
G01Y5993600D02*
Y6069800D01*
X4727300D01*
Y5993600D01*
X4625700D01*
G37*
G36*
G01Y6493600D02*
Y6569800D01*
X4727300D01*
Y6493600D01*
X4625700D01*
G37*
G36*
G01X4504600Y6823500D02*
X4555400D01*
Y6785400D01*
X4593500D01*
Y6734600D01*
X4555400D01*
Y6696500D01*
X4504600D01*
Y6734600D01*
X4466500D01*
Y6785400D01*
X4504600D01*
Y6823500D01*
G37*
G36*
G01X4625700Y6849200D02*
Y6925400D01*
X4727300D01*
Y6849200D01*
X4625700D01*
G37*
G36*
G01X5184240Y5221600D02*
X5291180D01*
X5289650Y5018400D01*
X5288130Y4815450D01*
X5187290D01*
X5185770Y5018400D01*
X5184240Y5221600D01*
G37*
G36*
G01X5225900Y5408540D02*
G02X5236820Y5410320I11083J-33607D01*
G02X5247740Y5408800I616J-35563D01*
G02X5264000Y5402700I-60255J-185334D01*
G02X5279490Y5394060I-27355J-67248D01*
G02X5289650Y5382630I-23238J-30887D01*
G02X5295240Y5367650I-38330J-22836D01*
G02X5297020Y5346820I-120323J-20773D01*
G02X5292450Y5325480I-53660J332D01*
G02X5280000Y5307960I-46581J19918D01*
G02X5260440Y5296530I-37678J42026D01*
G02X5236820Y5292720I-23265J69107D01*
G02X5200240Y5305420I-290J58196D01*
G02X5179420Y5338440I38303J47225D01*
G02X5183230Y5376540I55917J13649D01*
G02X5209900Y5402450I47681J-22399D01*
G02X5225900Y5408540I74407J-171423D01*
G37*
G36*
G01X4982310Y5425560D02*
G02X5011780Y5419460I508J-71784D01*
G02X5032100Y5402950I-20574J-46081D01*
G02X5040990Y5378820I-38988J-28067D01*
G02X5037940Y5354690I-57130J-5037D01*
G02X5024730Y5330820I-82638J30143D01*
G02X4999580Y5304150I-142290J108988D01*
G02X4957670Y5270370I-511628J591876D01*
G03X4912720Y5233790I445670J-593553D01*
G03X4872080Y5194930I430122J-490505D01*
G03X4837530Y5155560I411076J-395593D01*
G03X4811120Y5117200I280475J-221372D01*
G03X4792830Y5082910I291525J-177520D01*
G03X4777590Y5044810I390790J-178414D01*
G03X4767170Y5008240I366171J-124104D01*
G03X4763620Y4980040I121479J-29616D01*
G03X4764380Y4965060I143786J-214D01*
G03X4767170Y4956930I17882J1593D01*
G03X4773780Y4950580I17642J11749D01*
G03X4788760Y4941940I119684J190201D01*
G03X4822040Y4930510I55617J107770D01*
G03X4865470Y4925940I51026J276269D01*
G03X4916020Y4927970I10481J369415D01*
G03X4970630Y4936610I-56071J531309D01*
G02X5041490Y4949310I215260J-997019D01*
G02X5082640Y4948290I17540J-122954D01*
G02X5104490Y4934580I-6990J-35407D01*
G02X5113120Y4908920I-33925J-25691D01*
G02X5099660Y4862440I-85547J-416D01*
G02X5061310Y4823580I-113115J73277D01*
G02X5003390Y4797670I-105028J157090D01*
G02X4933800Y4788780I-69888J270259D01*
G02X4865730Y4798180I-85J250551D01*
G02X4815940Y4826120I33721J118426D01*
G02X4774290Y4880220I134017J146258D01*
G02X4730600Y4975470I913432J476625D01*
G02X4714340Y5017890I1631664J649759D01*
G02X4706720Y5042780I201830J75401D01*
G02X4703420Y5064880I133408J31217D01*
G02X4702400Y5094090I387705J28161D01*
G02X4709770Y5155810I268466J-758D01*
G02X4731360Y5216770I303272J-73106D01*
G02X4767170Y5276210I328514J-157408D01*
G02X4816960Y5334370I427971J-315988D01*
G02X4851760Y5367140I440888J-433337D01*
G02X4884010Y5391520I209168J-243169D01*
G02X4915260Y5409300I137240J-204860D01*
G02X4946750Y5420990I81935J-172455D01*
G02X4982310Y5425560I35042J-132036D01*
G37*
G36*
G01X5840310Y2558900D02*
X5814910Y2584300D01*
Y2533500D01*
X5840310Y2558900D01*
G37*
G36*
G01X5362800Y5217530D02*
G02X5373220Y5219820I21765J-74182D01*
G02X5388970Y5221090I20092J-150875D01*
G02X5412330Y5221600I26353J-671809D01*
G01X5462880D01*
Y4812150D01*
X5411060Y4813930D01*
X5359250Y4815450D01*
X5357720Y5011030D01*
X5357220Y5086470D01*
G02Y5151240I7363138J32385D01*
G01X5357720Y5208140D01*
G02X5358990Y5213980I16786J-592D01*
G02X5362800Y5217530I5457J-2037D01*
G37*
G36*
G01X5861910Y5391020D02*
X5931000Y5392290D01*
G02X6008980Y5393050I114455J-7742732D01*
G01X6100930Y5393300D01*
X6339940D01*
Y5292970D01*
X6246720Y5291190D01*
X6153250Y5289670D01*
X6150200Y4812660D01*
X6043780D01*
Y5292720D01*
X5854040D01*
Y5338950D01*
G02X5854290Y5357230I576441J1258D01*
G02X5855310Y5372980I338763J-14031D01*
G02X5856330Y5386190I463601J-29152D01*
G02X5858100Y5389490I5567J-861D01*
G02X5861910Y5391020I3799J-3950D01*
G37*
G36*
G01X5415640Y5409560D02*
G02X5443830Y5400160I-5138J-62379D01*
G02X5464150Y5379080I-31633J-50826D01*
G02X5471520Y5351390I-48590J-27759D01*
G02X5470500Y5337930I-99946J805D01*
G02X5467710Y5328280I-32561J4186D01*
G02X5461860Y5319390I-33396J15606D01*
G02X5451450Y5309230I-97883J89879D01*
G02X5439510Y5299320I-105162J114556D01*
G02X5430370Y5294750I-18514J25603D01*
G02X5420210Y5293230I-9776J30626D01*
G02X5404460Y5294240I2664J164855D01*
G02X5391000Y5296530I12888J116457D01*
G02X5380330Y5300340I13259J53978D01*
G02X5371690Y5305670I18836J40201D01*
G02X5363820Y5313040I33113J43247D01*
G02X5351630Y5337170I42529J36629D01*
G02X5351880Y5364600I58765J13181D01*
G02X5364070Y5388980I58239J-13882D01*
G02X5385920Y5404990I43217J-36066D01*
G02X5415640Y5409560I24414J-59848D01*
G37*
G36*
G01X5763870Y5230740D02*
G02X5809340Y5225660I2726J-181634D01*
G02X5850230Y5209660I-39626J-161520D01*
G02X5881470Y5184510I-56370J-101997D01*
G02X5901030Y5155560I-101001J-89324D01*
G02X5910940Y5124060I-98283J-48229D01*
G02X5915250Y5075040I-345626J-55088D01*
G02X5916270Y4966580I-6372856J-114168D01*
G01Y4815450D01*
X5864450Y4813930D01*
X5812640Y4812150D01*
X5812380Y4932290D01*
G03X5811370Y5022970I-4290576J-2443D01*
G03X5807300Y5067930I-325442J-6796D01*
G03X5798410Y5095870I-99455J-16260D01*
G03X5782410Y5116950I-61777J-30278D01*
G03X5770470Y5126350I-83343J-93580D01*
G03X5761080Y5130920I-17764J-24568D01*
G03X5749390Y5132190I-10403J-41316D01*
G03X5728820Y5131430I2747J-353111D01*
G03X5710020Y5129400I17345J-248701D01*
G03X5697070Y5126090I9142J-62756D01*
G03X5686650Y5120510I16791J-43874D01*
G03X5675730Y5111620I54040J-77532D01*
G03X5656940Y5089260I89559J-94335D01*
G03X5647790Y5066910I53510J-34955D01*
G03X5643470Y5031610I209103J-43504D01*
G03X5640680Y4942960I5897507J-229976D01*
G01X5637630Y4815450D01*
X5585820Y4813930D01*
X5534000Y4812150D01*
Y5222110D01*
X5582770Y5220330D01*
X5631790Y5218550D01*
X5634840Y5195440D01*
G03X5636620Y5181470I462181J51791D01*
G03X5638650Y5177400I8120J1509D01*
G03X5641190I1270J1274D01*
G03X5646010Y5182230I-26092J30858D01*
G02X5659220Y5195440I72180J-58970D01*
G02X5675990Y5206870I81721J-101882D01*
G02X5696050Y5216520I77726J-135899D01*
G02X5718660Y5224390I81101J-196585D01*
G02X5763870Y5230740I47151J-171584D01*
G37*
G36*
G01X6435190Y5230490D02*
G02X6469740Y5228710I1842J-300441D01*
G02X6503260Y5223120I-31541J-292431D01*
G02X6531460Y5214230I-34979J-160129D01*
G02X6573620Y5186550I-56086J-131373D01*
G02X6607660Y5143870I-132983J-140977D01*
G02X6630010Y5090530I-188670J-110407D01*
G02X6638390Y5031860I-231258J-62965D01*
G01X6639410Y4987410D01*
X6495140Y4985890D01*
X6351120Y4984110D01*
X6355180Y4970900D01*
G03X6382360Y4924930I111178J34714D01*
G03X6425290Y4900030I64353J61493D01*
G03X6475830Y4901560I22557J90368D01*
G03X6523840Y4928990I-38958J123917D01*
G01X6547210Y4950070D01*
X6585810Y4937120D01*
G02X6600800Y4931780I-139108J-414202D01*
G02X6614010Y4926450I-97775J-261362D01*
G02X6624680Y4921620I-127658J-296211D01*
G02X6627720Y4919080I-2803J-6444D01*
G02X6626710Y4899780I-14680J-8908D01*
G02X6597500Y4866250I-235631J175784D01*
G02X6559650Y4834500I-211943J214227D01*
G02X6523580Y4816720I-76690J110103D01*
G02X6489550Y4809360I-53450J164784D01*
G02X6446620Y4806820I-44814J393372D01*
G02X6403950Y4809100I-383J393263D01*
G02X6371440Y4816210I15879J150486D01*
G02X6329020Y4836790I60299J178299D01*
G02X6293210Y4867270I100781J154680D01*
G02X6266030Y4906130I139827J126735D01*
G02X6248500Y4951600I185259J97537D01*
G02X6240630Y5046850I271027J70344D01*
G02X6267300Y5131680I209375J-19219D01*
G02X6324700Y5194170I164836J-93803D01*
G02X6405220Y5227440I117859J-171170D01*
G02X6435190Y5230490I32817J-173692D01*
G37*
G36*
G01X6898700Y1662500D02*
X6949500D01*
Y1624400D01*
X6987600D01*
Y1573600D01*
X6949500D01*
Y1535500D01*
X6898700D01*
Y1573600D01*
X6860600D01*
Y1624400D01*
X6898700D01*
Y1662500D01*
G37*
G36*
G01X7025700Y1929200D02*
Y2005400D01*
X7127300D01*
Y1929200D01*
X7025700D01*
G37*
G36*
G01Y1573600D02*
Y1649800D01*
X7127300D01*
Y1573600D01*
X7025700D01*
G37*
G36*
G01X6894600Y2403500D02*
X6945400D01*
Y2365400D01*
X6983500D01*
Y2314600D01*
X6945400D01*
Y2276500D01*
X6894600D01*
Y2314600D01*
X6856500D01*
Y2365400D01*
X6894600D01*
Y2403500D01*
G37*
G36*
G01X7025700Y2429200D02*
Y2505400D01*
X7127300D01*
Y2429200D01*
X7025700D01*
G37*
G36*
G01Y2073600D02*
Y2149800D01*
X7127300D01*
Y2073600D01*
X7025700D01*
G37*
G36*
G01X7105240Y5401180D02*
G02X7115660Y5403460I22081J-75965D01*
G02X7131660Y5404730I20334J-154756D01*
G02X7154770Y5405240I26145J-660851D01*
G01X7205320D01*
Y5179430D01*
X7224880Y5194420D01*
G02X7250020Y5210680I122217J-161398D01*
G02X7274920Y5221340I66169J-120148D01*
G02X7302600Y5227440I46362J-144527D01*
G02X7336130Y5229470I34440J-290923D01*
G02X7373210Y5226680I1022J-234216D01*
G02X7404960Y5217790I-22592J-141828D01*
G02X7431380Y5203060I-43844J-109698D01*
G02X7452210Y5182480I-63269J-84869D01*
G02X7469480Y5152760I-114591J-86466D01*
G02X7478620Y5121010I-113280J-49801D01*
G02X7482690Y5071990I-385447J-56682D01*
G02X7483700Y4965060I-6791893J-117622D01*
G01X7483960Y4812150D01*
X7431890Y4813930D01*
X7380070Y4815450D01*
X7377280Y4951850D01*
G03X7374480Y5045070I-6344501J-143914D01*
G03X7370170Y5084180I-276553J-10684D01*
G03X7361780Y5106790I-65910J-11596D01*
G03X7346290Y5123300I-46594J-28194D01*
G03X7327240Y5131170I-26838J-37973D01*
G03X7300820Y5132700I-20529J-125619D01*
G03X7273650Y5128630I6163J-133864D01*
G03X7252560Y5119240I16220J-64810D01*
G03X7228690Y5096630I56868J-83942D01*
G03X7215480Y5068940I61380J-46278D01*
G03X7209130Y5025000I214694J-53455D01*
G03X7206340Y4935340I2997365J-138144D01*
G01X7204560Y4812150D01*
X7153000Y4813930D01*
X7101690Y4815450D01*
X7100160Y5102980D01*
X7099660Y5213720D01*
X7099910Y5308210D01*
X7100160Y5391780D01*
G02X7101430Y5397870I17362J-443D01*
G02X7105240Y5401180I5192J-2129D01*
G37*
G36*
G01X6859120Y5230490D02*
G02X6893410Y5229470I6625J-354163D01*
G02X6927700Y5225410I-24888J-357034D01*
G02X6957160Y5218040I-36677J-209174D01*
G02X6983320Y5206100I-40372J-123081D01*
G02X7008220Y5188320I-82925J-142457D01*
G02X7030060Y5165210I-117952J-133345D01*
G02X7047840Y5138290I-147060J-116461D01*
G02X7058000Y5118730I-694386J-373102D01*
G02X7060790Y5110600I-24887J-13084D01*
G02X7059520Y5104760I-7983J-1322D01*
G02X7054190Y5099420I-17917J12553D01*
G02X7048090Y5095870I-17921J23779D01*
G02X7037430Y5091800I-75329J181305D01*
G02X7024470Y5087740I-75526J218373D01*
G02X7011520Y5084440I-64656J226664D01*
G01X6979260Y5077070D01*
X6959190Y5098920D01*
G03X6941160Y5115680I-117787J-108634D01*
G03X6924140Y5125840I-43788J-54017D01*
G03X6904330Y5130920I-28638J-70510D01*
G03X6877410Y5132440I-25813J-218026D01*
G03X6837020Y5125330I140J-119070D01*
G03X6805270Y5105010I29819J-81557D01*
G03X6783930Y5071990I67716J-67169D01*
G03X6773770Y5028560I145730J-56995D01*
G03X6778350Y4978010I149384J-11948D01*
G03X6799680Y4937120I100199J26260D01*
G03X6835750Y4910700I73339J62294D01*
G03X6882490Y4901560I46190J112128D01*
G03X6904840Y4903590I263J121158D01*
G03X6924400Y4909690I-15260J83343D01*
G03X6941670Y4920350I-34554J75300D01*
G03X6957160Y4935590I-69077J85702D01*
G02X6963260Y4942450I165570J-141085D01*
G02X6969350Y4948800I146895J-134785D01*
G02X6974690Y4953880I120612J-121438D01*
G02X6978240Y4956680I16602J-17398D01*
G02X6990440Y4958960I8980J-14272D01*
G02X7024980Y4950830I-134538J-649016D01*
G02X7059020Y4941180I-178432J-694276D01*
G02X7066890Y4933820I-3674J-11816D01*
G02X7065370Y4913500I-21668J-8596D01*
G02X7042000Y4880730I-226689J136946D01*
G02X7010500Y4847960I-219194J179175D01*
G02X6977480Y4825360I-112631J129138D01*
G02X6957920Y4816470I-86041J163346D01*
G02X6941160Y4812150I-28510J75939D01*
G02X6919060Y4810120I-26262J164593D01*
G02X6876390Y4809610I-44398J1929361D01*
G02X6834990Y4810120I1026J1763860D01*
G02X6812130Y4811900I3419J191589D01*
G02X6794860Y4816210I14155J93472D01*
G02X6775810Y4824090I53180J155529D01*
G02X6748370Y4840850I79849J161574D01*
G02X6722720Y4862950I134678J182247D01*
G02X6700370Y4888860I162049J162378D01*
G02X6683600Y4916290I146889J108645D01*
G02X6675730Y4935340I149677J72986D01*
G02X6671410Y4952610I87847J31150D01*
G02X6669380Y4975470I187214J28145D01*
G02X6668870Y5017130I1784790J42682D01*
G02X6669380Y5057770I1723714J-1308D01*
G02X6671410Y5080630I200980J-6327D01*
G02X6675220Y5097900I96207J-12169D01*
G02X6682590Y5115680I129342J-43196D01*
G02X6709260Y5157080I203810J-102004D01*
G02X6743040Y5190100I152019J-121729D01*
G02X6783680Y5213720I116050J-152901D01*
G02X6829910Y5227440I83101J-195266D01*
G02X6859120Y5230490I34542J-189416D01*
G37*
%LPC*%
G75*
G36*
G01X3050130Y5131940D02*
G03X3022190Y5132440I-16954J-166482D01*
G03X2993490Y5128130I11571J-174762D01*
G03X2971140Y5119240I20010J-82846D01*
G03X2948030Y5100950I48761J-85357D01*
G03X2931770Y5076820I65893J-61945D01*
G03X2923130Y5046850I98315J-44574D01*
G03X2921360Y5010520I192883J-27605D01*
G03X2925930Y4976230I201334J9383D01*
G03X2936340Y4949560I93583J21161D01*
G03X2953110Y4928990I69608J39628D01*
G03X2976980Y4913240I71070J81747D01*
G03X3032610Y4901300I51900J106246D01*
G03X3084170Y4917810I-3081J98386D01*
G03X3120240Y4959720I-57995J86390D01*
G03X3133450Y5017890I-123533J58638D01*
G03X3129640Y5051930I-140169J1544D01*
G03X3117190Y5082150I-110413J-27813D01*
G03X3097380Y5107040I-93789J-54319D01*
G03X3070450Y5125840I-81920J-88658D01*
G03X3050130Y5131940I-26207J-50404D01*
G37*
G36*
G01X3495140Y5132700D02*
G03X3448410Y5126860I-9316J-115337D01*
G03X3408270Y5102980I36567J-107141D01*
G03X3383130Y5065640I66731J-72061D01*
G03X3378050Y5044310I77437J-29713D01*
G03X3377030Y5015860I240576J-22869D01*
G03X3379320Y4987160I244238J5047D01*
G03X3385160Y4965820I84759J11726D01*
G03X3416660Y4924420I95722J40148D01*
G03X3464660Y4903080I66520J84970D01*
G03X3517490Y4906640I19305J107297D01*
G03X3561440Y4934830I-32903J99653D01*
G03X3575150Y4952360I-89032J83757D01*
G03X3583790Y4970390I-69098J44197D01*
G03X3588610Y4991730I-95821J32857D01*
G03X3590140Y5019410I-253602J27900D01*
G03X3586580Y5051160I-150311J-779D01*
G03X3576680Y5079100I-112491J-24135D01*
G03X3560670Y5102220I-90992J-45907D01*
G03X3539340Y5119240I-65973J-60804D01*
G03X3495140Y5132700I-52327J-92529D01*
G37*
G36*
G01X4365090Y5137270D02*
G03X4331310Y5131170I-1427J-88682D01*
G03X4301850Y5112890I32683J-85551D01*
G03X4280000Y5083930I72981J-77786D01*
G03X4276700Y5077580I204379J-110245D01*
G03X4274160Y5071740I141563J-65043D01*
G03X4272130Y5066660I161599J-67521D01*
G03X4271620Y5064630I5072J-2353D01*
G03X4272890Y5063360I1297J27D01*
G03X4296770Y5062340I193404J4247877D01*
G03X4324710Y5061830I35502J1179383D01*
G03X4357470Y5061580I33980J2306169D01*
G03X4408530Y5061830I2317J4741051D01*
G03X4429610Y5063100I-1061J193185D01*
G03X4440020Y5066150I-3725J32005D01*
G03X4443580Y5071740I-2703J5650D01*
G03X4440020Y5086980I-35020J-145D01*
G03X4429100Y5104760I-94515J-45805D01*
G03X4414370Y5120510I-87416J-66992D01*
G03X4399130Y5129900I-36081J-41498D01*
G03X4365090Y5137270I-36457J-86089D01*
G37*
G36*
G01X6475320Y5131430D02*
G03X6454500Y5135490I-33518J-116469D01*
G03X6432650Y5136000I-13892J-126857D01*
G03X6413350Y5132440I5804J-85559D01*
G03X6396080Y5123550I15916J-52139D01*
G03X6377280Y5106540I94179J-122984D01*
G03X6362290Y5087490I111529J-103182D01*
G03X6357720Y5073260I21014J-14597D01*
G03X6361280Y5066660I8048J81D01*
G03X6370170Y5063100I11923J16893D01*
G03X6390230Y5061830I20205J160090D01*
G03X6444080Y5061580I53499J5723885D01*
G01X6530440D01*
X6526380Y5074790D01*
G03X6520790Y5089520I-92061J-26511D01*
G03X6512660Y5103230I-87030J-42343D01*
G03X6502500Y5114920I-73759J-53845D01*
G03X6491330Y5124060I-50838J-50734D01*
G03X6475320Y5131430I-32353J-49206D01*
G37*
%LPD*%
G75*
G54D10*
G01X1560000Y2820000D02*
X1740000D01*
Y2960000D01*
X1560000D01*
Y2820000D01*
G01X4090000Y7170000D02*
X4270000D01*
Y7310000D01*
X4090000D01*
Y7170000D01*
G01X6450000Y2810000D02*
X6630000D01*
Y2950000D01*
X6450000D01*
Y2810000D01*
G54D11*
G01X965010Y2590000D02*
X1050010D01*
G01X1150010D02*
X1175010D01*
G01X1150010Y2350000D02*
X1175010D01*
G01X965010D02*
X990010D01*
G01X3485010Y6950000D02*
X3570010D01*
G01X3670010D02*
X3695010D01*
G01X3670010Y6710000D02*
X3695010D01*
G01X3485010D02*
X3510010D01*
G01X5875010Y2590000D02*
X5960010D01*
G01X5875010Y2350000D02*
X5900010D01*
G01X6060010Y2590000D02*
X6085010D01*
G01X6060010Y2350000D02*
X6085010D01*
G54D12*
G01X988000Y6395000D02*
X1004000Y6382500D01*
X1022000Y6375000D01*
X1038000D01*
X1054000Y6382500D01*
X1066000Y6395000D01*
X1072000Y6412500D01*
X1068000Y6430000D01*
X1058000Y6445000D01*
X1040000Y6455000D01*
X1016000Y6460000D01*
X1002000Y6470000D01*
X996000Y6487500D01*
X1000000Y6505000D01*
X1010000Y6517500D01*
X1024000Y6525000D01*
X1038000D01*
X1052000Y6520000D01*
X1064000Y6507500D01*
G01X1128000Y6375000D02*
Y6525000D01*
G01X1212000D02*
Y6375000D01*
G01Y6450000D02*
X1128000D01*
G01X1286000Y6525000D02*
X1334000D01*
G01X1310000D02*
Y6375000D01*
G01X1286000D02*
X1334000D01*
G01X1490000D02*
X1410000D01*
Y6525000D01*
X1490000D01*
G01X1458000Y6452500D02*
X1410000D01*
G01X1550000Y6525000D02*
Y6375000D01*
X1630000D01*
G01X1686000D02*
Y6525000D01*
X1726000D01*
X1742000Y6517500D01*
X1754000Y6507500D01*
X1764000Y6492500D01*
X1772000Y6475000D01*
X1774000Y6450000D01*
X1772000Y6425000D01*
X1764000Y6407500D01*
X1754000Y6392500D01*
X1742000Y6382500D01*
X1726000Y6375000D01*
X1686000D01*
G01X2930000Y500000D02*
Y650000D01*
X2906000Y620000D01*
G01Y500000D02*
X2954000D01*
G01X3032000Y625000D02*
X3044000Y640000D01*
X3058000Y647500D01*
X3074000Y650000D01*
X3094000Y645000D01*
X3108000Y632500D01*
X3112000Y617500D01*
X3110000Y602500D01*
X3102000Y590000D01*
X3062000Y565000D01*
X3044000Y547500D01*
X3032000Y522500D01*
X3028000Y500000D01*
X3112000D01*
G01X3160000Y650000D02*
X3210000Y500000D01*
X3260000Y650000D01*
G01X3290000Y450000D02*
X3410000D01*
G01X3530000Y500000D02*
X3450000D01*
Y650000D01*
X3530000D01*
G01X3498000Y577500D02*
X3450000D01*
G01X3588000Y500000D02*
X3672000Y650000D01*
G01X3588000D02*
X3672000Y500000D01*
G01X3730000D02*
Y650000D01*
X3778000D01*
X3794000Y642500D01*
X3806000Y625000D01*
X3810000Y605000D01*
X3806000Y585000D01*
X3796000Y570000D01*
X3778000Y562500D01*
X3730000D01*
G01X3380000Y3985000D02*
Y4135000D01*
X3428000D01*
X3444000Y4127500D01*
X3456000Y4110000D01*
X3460000Y4090000D01*
X3456000Y4070000D01*
X3446000Y4055000D01*
X3428000Y4047500D01*
X3380000D01*
G01X3520000Y3985000D02*
Y4135000D01*
X3570000D01*
X3586000Y4127500D01*
X3596000Y4117500D01*
X3600000Y4097500D01*
X3596000Y4077500D01*
X3584000Y4065000D01*
X3570000Y4057500D01*
X3520000D01*
G01X3570000D02*
X3600000Y3985000D01*
G01X3700000D02*
X3684000Y3987500D01*
X3670000Y3997500D01*
X3658000Y4012500D01*
X3650000Y4030000D01*
X3646000Y4050000D01*
Y4070000D01*
X3650000Y4090000D01*
X3658000Y4107500D01*
X3670000Y4122500D01*
X3684000Y4132500D01*
X3700000Y4135000D01*
X3716000Y4132500D01*
X3730000Y4122500D01*
X3742000Y4107500D01*
X3750000Y4090000D01*
X3754000Y4070000D01*
Y4050000D01*
X3750000Y4030000D01*
X3742000Y4012500D01*
X3730000Y3997500D01*
X3716000Y3987500D01*
X3700000Y3985000D01*
G01X3800000Y4015000D02*
X3810000Y4000000D01*
X3822000Y3990000D01*
X3836000Y3985000D01*
X3852000Y3990000D01*
X3864000Y4000000D01*
X3876000Y4015000D01*
X3880000Y4035000D01*
Y4135000D01*
G01X4020000Y3985000D02*
X3940000D01*
Y4135000D01*
X4020000D01*
G01X3988000Y4062500D02*
X3940000D01*
G01X4164000Y4122500D02*
X4152000Y4130000D01*
X4138000Y4135000D01*
X4122000D01*
X4104000Y4127500D01*
X4090000Y4115000D01*
X4080000Y4100000D01*
X4072000Y4075000D01*
X4070000Y4052500D01*
X4074000Y4030000D01*
X4080000Y4015000D01*
X4092000Y4000000D01*
X4106000Y3990000D01*
X4120000Y3985000D01*
X4134000D01*
X4148000Y3990000D01*
X4160000Y3997500D01*
X4170000Y4007500D01*
G01X4260000Y4135000D02*
Y3985000D01*
G01X4214000Y4135000D02*
X4306000D01*
G01X4556000Y4065000D02*
X4564000Y4072500D01*
X4570000Y4085000D01*
X4574000Y4102500D01*
X4570000Y4117500D01*
X4562000Y4127500D01*
X4548000Y4135000D01*
X4494000D01*
Y3985000D01*
X4560000D01*
X4574000Y3995000D01*
X4582000Y4010000D01*
X4586000Y4027500D01*
X4582000Y4045000D01*
X4570000Y4060000D01*
X4556000Y4065000D01*
X4494000D01*
G01X4720000Y3985000D02*
X4640000D01*
Y4135000D01*
X4720000D01*
G01X4688000Y4062500D02*
X4640000D01*
G01X4860000Y3985000D02*
X4780000D01*
Y4135000D01*
X4860000D01*
G01X4828000Y4062500D02*
X4780000D01*
G01X4934000Y4035000D02*
X4986000D01*
G01X5060000Y3985000D02*
Y4135000D01*
X5108000D01*
X5124000Y4127500D01*
X5136000Y4110000D01*
X5140000Y4090000D01*
X5136000Y4070000D01*
X5126000Y4055000D01*
X5108000Y4047500D01*
X5060000D01*
G01X5284000Y4122500D02*
X5272000Y4130000D01*
X5258000Y4135000D01*
X5242000D01*
X5224000Y4127500D01*
X5210000Y4115000D01*
X5200000Y4100000D01*
X5192000Y4075000D01*
X5190000Y4052500D01*
X5194000Y4030000D01*
X5200000Y4015000D01*
X5212000Y4000000D01*
X5226000Y3990000D01*
X5240000Y3985000D01*
X5254000D01*
X5268000Y3990000D01*
X5280000Y3997500D01*
X5290000Y4007500D01*
G01X5380000Y3985000D02*
Y4135000D01*
X5356000Y4105000D01*
G01Y3985000D02*
X5404000D01*
G01X4006000Y512500D02*
X4018000Y500000D01*
X4032000Y492500D01*
X4050000Y490000D01*
X4068000Y495000D01*
X4082000Y505000D01*
X4092000Y522500D01*
X4094000Y542500D01*
X4090000Y562500D01*
X4080000Y575000D01*
X4066000Y585000D01*
X4052000Y587500D01*
X4038000Y585000D01*
X4020000Y575000D01*
X4026000Y640000D01*
X4080000D01*
G01X4140000D02*
X4190000Y490000D01*
X4240000Y640000D01*
G01X4270000Y440000D02*
X4390000D01*
G01X4514000Y627500D02*
X4502000Y635000D01*
X4488000Y640000D01*
X4472000D01*
X4454000Y632500D01*
X4440000Y620000D01*
X4430000Y605000D01*
X4422000Y580000D01*
X4420000Y557500D01*
X4424000Y535000D01*
X4430000Y520000D01*
X4442000Y505000D01*
X4456000Y495000D01*
X4470000Y490000D01*
X4484000D01*
X4498000Y495000D01*
X4510000Y502500D01*
X4520000Y512500D01*
G01X4560000Y490000D02*
X4610000Y640000D01*
X4660000Y490000D01*
G01X4642000Y542500D02*
X4578000D01*
G01X4698000Y490000D02*
Y640000D01*
X4750000Y515000D01*
X4802000Y640000D01*
Y490000D01*
G01X3450000Y3670000D02*
X3500000Y3820000D01*
X3550000Y3670000D01*
G01X3532000Y3722500D02*
X3468000D01*
G01X3596000Y3670000D02*
Y3820000D01*
X3636000D01*
X3652000Y3812500D01*
X3664000Y3802500D01*
X3674000Y3787500D01*
X3682000Y3770000D01*
X3684000Y3745000D01*
X3682000Y3720000D01*
X3674000Y3702500D01*
X3664000Y3687500D01*
X3652000Y3677500D01*
X3636000Y3670000D01*
X3596000D01*
G01X3730000D02*
X3780000Y3820000D01*
X3830000Y3670000D01*
G01X3812000Y3722500D02*
X3748000D01*
G01X3880000Y3670000D02*
Y3820000D01*
X3928000D01*
X3944000Y3812500D01*
X3956000Y3795000D01*
X3960000Y3775000D01*
X3956000Y3755000D01*
X3946000Y3740000D01*
X3928000Y3732500D01*
X3880000D01*
G01X4060000Y3820000D02*
Y3670000D01*
G01X4014000Y3820000D02*
X4106000D01*
G01X4200000Y3670000D02*
X4184000Y3672500D01*
X4170000Y3682500D01*
X4158000Y3697500D01*
X4150000Y3715000D01*
X4146000Y3735000D01*
Y3755000D01*
X4150000Y3775000D01*
X4158000Y3792500D01*
X4170000Y3807500D01*
X4184000Y3817500D01*
X4200000Y3820000D01*
X4216000Y3817500D01*
X4230000Y3807500D01*
X4242000Y3792500D01*
X4250000Y3775000D01*
X4254000Y3755000D01*
Y3735000D01*
X4250000Y3715000D01*
X4242000Y3697500D01*
X4230000Y3682500D01*
X4216000Y3672500D01*
X4200000Y3670000D01*
G01X4300000D02*
Y3820000D01*
X4350000D01*
X4366000Y3812500D01*
X4376000Y3802500D01*
X4380000Y3782500D01*
X4376000Y3762500D01*
X4364000Y3750000D01*
X4350000Y3742500D01*
X4300000D01*
G01X4350000D02*
X4380000Y3670000D01*
G01X4570000Y3820000D02*
X4620000Y3670000D01*
X4670000Y3820000D01*
G01X4760000Y3670000D02*
Y3820000D01*
X4736000Y3790000D01*
G01Y3670000D02*
X4784000D01*
G01X4900000Y3665000D02*
X4896000Y3667500D01*
Y3672500D01*
X4900000Y3675000D01*
X4904000Y3672500D01*
Y3667500D01*
X4900000Y3665000D01*
G01X5040000Y3670000D02*
Y3820000D01*
X5016000Y3790000D01*
G01Y3670000D02*
X5064000D01*
G01X5180000Y3665000D02*
X5176000Y3667500D01*
Y3672500D01*
X5180000Y3675000D01*
X5184000Y3672500D01*
Y3667500D01*
X5180000Y3665000D01*
G01X5320000Y3670000D02*
Y3820000D01*
X5296000Y3790000D01*
G01Y3670000D02*
X5344000D01*
G01X5076000Y512500D02*
X5088000Y500000D01*
X5102000Y492500D01*
X5120000Y490000D01*
X5138000Y495000D01*
X5152000Y505000D01*
X5162000Y522500D01*
X5164000Y542500D01*
X5160000Y562500D01*
X5150000Y575000D01*
X5136000Y585000D01*
X5122000Y587500D01*
X5108000Y585000D01*
X5090000Y575000D01*
X5096000Y640000D01*
X5150000D01*
G01X5210000D02*
X5260000Y490000D01*
X5310000Y640000D01*
G01X5340000Y440000D02*
X5460000D01*
G01X5540000Y490000D02*
X5524000Y492500D01*
X5510000Y502500D01*
X5498000Y517500D01*
X5490000Y535000D01*
X5486000Y555000D01*
Y575000D01*
X5490000Y595000D01*
X5498000Y612500D01*
X5510000Y627500D01*
X5524000Y637500D01*
X5540000Y640000D01*
X5556000Y637500D01*
X5570000Y627500D01*
X5582000Y612500D01*
X5590000Y595000D01*
X5594000Y575000D01*
Y555000D01*
X5590000Y535000D01*
X5582000Y517500D01*
X5570000Y502500D01*
X5556000Y492500D01*
X5540000Y490000D01*
G01X5696000Y570000D02*
X5704000Y577500D01*
X5710000Y590000D01*
X5714000Y607500D01*
X5710000Y622500D01*
X5702000Y632500D01*
X5688000Y640000D01*
X5634000D01*
Y490000D01*
X5700000D01*
X5714000Y500000D01*
X5722000Y515000D01*
X5726000Y532500D01*
X5722000Y550000D01*
X5710000Y565000D01*
X5696000Y570000D01*
X5634000D01*
G01X5864000Y627500D02*
X5852000Y635000D01*
X5838000Y640000D01*
X5822000D01*
X5804000Y632500D01*
X5790000Y620000D01*
X5780000Y605000D01*
X5772000Y580000D01*
X5770000Y557500D01*
X5774000Y535000D01*
X5780000Y520000D01*
X5792000Y505000D01*
X5806000Y495000D01*
X5820000Y490000D01*
X5834000D01*
X5848000Y495000D01*
X5860000Y502500D01*
X5870000Y512500D01*
G54D13*
G01X1130000Y1970000D02*
Y1770000D01*
X1050000Y1690000D01*
X860000D01*
X820000Y1730000D01*
Y2020000D01*
X860000Y2060000D01*
X930000D01*
X950000Y2040000D01*
X1060000D01*
X1160000Y1940000D01*
X1730000D01*
G01X1386500Y2114500D02*
Y2324500D01*
G01X1701500Y2114500D02*
Y2324500D01*
G01X4240000Y6310000D02*
X3630000D01*
X3590000Y6350000D01*
X3530000D01*
X3460000Y6420000D01*
Y6450000D01*
X3330000D01*
X3300000Y6420000D01*
Y6150000D01*
X3400000Y6050000D01*
X3550000D01*
X3630000Y6130000D01*
Y6310000D01*
G01X3896500Y6464500D02*
Y6674500D01*
G01X4211500Y6464500D02*
Y6674500D01*
G01X6296500Y2104500D02*
Y2314500D01*
G01X6611500Y2104500D02*
Y2314500D01*
G01X7670000Y8260000D02*
Y8130000D01*
X7600000Y8200000D01*
X7660000Y8260000D01*
X7670000D01*
Y8270000D01*
X7660000Y8260000D01*
G54D14*
G01X1486500Y2044500D02*
G02I-12500J0D01*
G01X3996500Y6394500D02*
G02I-12500J0D01*
G01X6396500Y2034500D02*
G02I-12500J0D01*
G54D15*
G01X1031580Y2151750D02*
X1023960Y2155560D01*
X1015070Y2158100D01*
X1004910D01*
X993480Y2154290D01*
X984590Y2147940D01*
X978240Y2140320D01*
X973160Y2127620D01*
X971890Y2116190D01*
X974430Y2104760D01*
X978240Y2097140D01*
X985860Y2089520D01*
X994750Y2084440D01*
X1003640Y2081900D01*
X1012530D01*
X1021420Y2084440D01*
X1029040Y2088250D01*
X1035390Y2093330D01*
G01X1090000Y2081900D02*
Y2158100D01*
X1074760Y2142860D01*
G01Y2081900D02*
X1105240D01*
G01X1176360Y2158100D02*
X1166200Y2155560D01*
X1158580Y2149210D01*
X1153500Y2141590D01*
X1149690Y2131430D01*
X1148420Y2120000D01*
X1149690Y2108570D01*
X1153500Y2098410D01*
X1158580Y2090790D01*
X1166200Y2084440D01*
X1176360Y2081900D01*
X1186520Y2084440D01*
X1194140Y2090790D01*
X1199220Y2098410D01*
X1203030Y2108570D01*
X1204300Y2120000D01*
X1203030Y2131430D01*
X1199220Y2141590D01*
X1194140Y2149210D01*
X1186520Y2155560D01*
X1176360Y2158100D01*
G01X1213800Y1585400D02*
Y1661600D01*
X1245550D01*
X1255710Y1657790D01*
X1262060Y1652710D01*
X1264600Y1642550D01*
X1262060Y1632390D01*
X1254440Y1626040D01*
X1245550Y1622230D01*
X1213800D01*
G01X1245550D02*
X1264600Y1585400D01*
G01X1325560D02*
Y1661600D01*
X1310320Y1646360D01*
G01Y1585400D02*
X1340800D01*
G01X1383980Y1596830D02*
X1391600Y1590480D01*
X1400490Y1586670D01*
X1411920Y1585400D01*
X1423350Y1587940D01*
X1432240Y1593020D01*
X1438590Y1601910D01*
X1439860Y1612070D01*
X1437320Y1622230D01*
X1430970Y1628580D01*
X1422080Y1633660D01*
X1413190Y1634930D01*
X1404300Y1633660D01*
X1392870Y1628580D01*
X1396680Y1661600D01*
X1430970D01*
G01X1058100Y1768240D02*
X981900D01*
Y1799990D01*
X985710Y1810150D01*
X990790Y1816500D01*
X1000950Y1819040D01*
X1011110Y1816500D01*
X1017460Y1808880D01*
X1021270Y1799990D01*
Y1768240D01*
G01Y1799990D02*
X1058100Y1819040D01*
G01Y1880000D02*
X981900D01*
X997140Y1864760D01*
G01X1058100D02*
Y1895240D01*
G01X1026350Y1942230D02*
X1017460Y1951120D01*
X1012380Y1958740D01*
X1009840Y1968900D01*
X1012380Y1977790D01*
X1017460Y1984140D01*
X1025080Y1989220D01*
X1033970Y1990490D01*
X1041590Y1989220D01*
X1049210Y1984140D01*
X1055560Y1976520D01*
X1058100Y1967630D01*
X1055560Y1957470D01*
X1047940Y1948580D01*
X1036510Y1943500D01*
X1023810Y1942230D01*
X1007300Y1944770D01*
X998410Y1948580D01*
X989520Y1954930D01*
X983170Y1963820D01*
X981900Y1972710D01*
X984440Y1981600D01*
X990790Y1987950D01*
G01X947970Y1763850D02*
X872020D01*
Y1795490D01*
X875820Y1805620D01*
X880880Y1811950D01*
X891010Y1814480D01*
X901130Y1811950D01*
X907460Y1804360D01*
X911260Y1795490D01*
Y1763850D01*
G01Y1795490D02*
X947970Y1814480D01*
G01X884680Y1865950D02*
X877080Y1873550D01*
X873290Y1882410D01*
X872020Y1892540D01*
X874550Y1905200D01*
X880880Y1914060D01*
X888470Y1916590D01*
X896070Y1915320D01*
X902400Y1910260D01*
X915060Y1884940D01*
X923920Y1873550D01*
X936580Y1865950D01*
X947970Y1863420D01*
Y1916590D01*
G01Y1988310D02*
X931520Y1990840D01*
X917590Y1994640D01*
X904930Y1999710D01*
X891010Y2006040D01*
X872020Y2016160D01*
Y1965530D01*
G01X1258880Y2068100D02*
Y2013490D01*
X1263960Y2002060D01*
X1274120Y1994440D01*
X1286820Y1991900D01*
X1299520Y1994440D01*
X1309680Y2002060D01*
X1314760Y2013490D01*
Y2068100D01*
G01X1345240Y2003330D02*
X1352860Y1996980D01*
X1361750Y1993170D01*
X1373180Y1991900D01*
X1384610Y1994440D01*
X1393500Y1999520D01*
X1399850Y2008410D01*
X1401120Y2018570D01*
X1398580Y2028730D01*
X1392230Y2035080D01*
X1383340Y2040160D01*
X1374450Y2041430D01*
X1365560Y2040160D01*
X1354130Y2035080D01*
X1357940Y2068100D01*
X1392230D01*
G01X1008880Y2718100D02*
Y2663490D01*
X1013960Y2652060D01*
X1024120Y2644440D01*
X1036820Y2641900D01*
X1049520Y2644440D01*
X1059680Y2652060D01*
X1064760Y2663490D01*
Y2718100D01*
G01X1099050Y2673650D02*
X1107940Y2682540D01*
X1115560Y2687620D01*
X1125720Y2690160D01*
X1134610Y2687620D01*
X1140960Y2682540D01*
X1146040Y2674920D01*
X1147310Y2666030D01*
X1146040Y2658410D01*
X1140960Y2650790D01*
X1133340Y2644440D01*
X1124450Y2641900D01*
X1114290Y2644440D01*
X1105400Y2652060D01*
X1100320Y2663490D01*
X1099050Y2676190D01*
X1101590Y2692700D01*
X1105400Y2701590D01*
X1111750Y2710480D01*
X1120640Y2716830D01*
X1129530Y2718100D01*
X1138420Y2715560D01*
X1144770Y2709210D01*
G01X1338250Y2811580D02*
X1334440Y2803960D01*
X1331900Y2795070D01*
Y2784910D01*
X1335710Y2773480D01*
X1342060Y2764590D01*
X1349680Y2758240D01*
X1362380Y2753160D01*
X1373810Y2751890D01*
X1385240Y2754430D01*
X1392860Y2758240D01*
X1400480Y2765860D01*
X1405560Y2774750D01*
X1408100Y2783640D01*
Y2792530D01*
X1405560Y2801420D01*
X1401750Y2809040D01*
X1396670Y2815390D01*
G01X1408100Y2870000D02*
X1331900D01*
X1347140Y2854760D01*
G01X1408100D02*
Y2885240D01*
G01Y2956360D02*
X1331900D01*
X1347140Y2941120D01*
G01X1408100D02*
Y2971600D01*
G01X1023640Y6758100D02*
Y6681900D01*
G01X994430Y6758100D02*
X1052850D01*
G01X1084600Y6681900D02*
Y6758100D01*
X1115080D01*
X1125240Y6754290D01*
X1132860Y6745400D01*
X1135400Y6735240D01*
X1132860Y6725080D01*
X1126510Y6717460D01*
X1115080Y6713650D01*
X1084600D01*
G01X1196360Y6681900D02*
Y6758100D01*
X1181120Y6742860D01*
G01Y6681900D02*
X1211600D01*
G01X1493200Y1585400D02*
Y1661600D01*
X1524950D01*
X1535110Y1657790D01*
X1541460Y1652710D01*
X1544000Y1642550D01*
X1541460Y1632390D01*
X1533840Y1626040D01*
X1524950Y1622230D01*
X1493200D01*
G01X1524950D02*
X1544000Y1585400D01*
G01X1604960D02*
Y1661600D01*
X1589720Y1646360D01*
G01Y1585400D02*
X1620200D01*
G01X1691320D02*
X1700210Y1586670D01*
X1710370Y1590480D01*
X1716720Y1596830D01*
X1719260Y1605720D01*
X1716720Y1614610D01*
X1709100Y1622230D01*
X1697670Y1626040D01*
X1684970D01*
X1677350Y1628580D01*
X1671000Y1634930D01*
X1668460Y1643820D01*
X1672270Y1652710D01*
X1681160Y1659060D01*
X1691320Y1661600D01*
X1701480Y1659060D01*
X1710370Y1652710D01*
X1714180Y1643820D01*
X1711640Y1634930D01*
X1705290Y1628580D01*
X1697670Y1626040D01*
X1684970D01*
X1673540Y1622230D01*
X1665920Y1614610D01*
X1663380Y1605720D01*
X1665920Y1596830D01*
X1672270Y1590480D01*
X1682430Y1586670D01*
X1691320Y1585400D01*
G01X1748240Y1491900D02*
Y1568100D01*
X1779990D01*
X1790150Y1564290D01*
X1796500Y1559210D01*
X1799040Y1549050D01*
X1796500Y1538890D01*
X1788880Y1532540D01*
X1779990Y1528730D01*
X1748240D01*
G01X1779990D02*
X1799040Y1491900D01*
G01X1835870Y1555400D02*
X1843490Y1563020D01*
X1852380Y1566830D01*
X1862540Y1568100D01*
X1875240Y1565560D01*
X1884130Y1559210D01*
X1886670Y1551590D01*
X1885400Y1543970D01*
X1880320Y1537620D01*
X1854920Y1524920D01*
X1843490Y1516030D01*
X1835870Y1503330D01*
X1833330Y1491900D01*
X1886670D01*
G01X1946360Y1568100D02*
X1936200Y1565560D01*
X1928580Y1559210D01*
X1923500Y1551590D01*
X1919690Y1541430D01*
X1918420Y1530000D01*
X1919690Y1518570D01*
X1923500Y1508410D01*
X1928580Y1500790D01*
X1936200Y1494440D01*
X1946360Y1491900D01*
X1956520Y1494440D01*
X1964140Y1500790D01*
X1969220Y1508410D01*
X1973030Y1518570D01*
X1974300Y1530000D01*
X1973030Y1541430D01*
X1969220Y1551590D01*
X1964140Y1559210D01*
X1956520Y1565560D01*
X1946360Y1568100D01*
G01X1648250Y2421580D02*
X1644440Y2413960D01*
X1641900Y2405070D01*
Y2394910D01*
X1645710Y2383480D01*
X1652060Y2374590D01*
X1659680Y2368240D01*
X1672380Y2363160D01*
X1683810Y2361890D01*
X1695240Y2364430D01*
X1702860Y2368240D01*
X1710480Y2375860D01*
X1715560Y2384750D01*
X1718100Y2393640D01*
Y2402530D01*
X1715560Y2411420D01*
X1711750Y2419040D01*
X1706670Y2425390D01*
G01X1718100Y2480000D02*
X1641900D01*
X1657140Y2464760D01*
G01X1718100D02*
Y2495240D01*
G01X1654600Y2542230D02*
X1646980Y2549850D01*
X1643170Y2558740D01*
X1641900Y2568900D01*
X1644440Y2581600D01*
X1650790Y2590490D01*
X1658410Y2593030D01*
X1666030Y2591760D01*
X1672380Y2586680D01*
X1685080Y2561280D01*
X1693970Y2549850D01*
X1706670Y2542230D01*
X1718100Y2539690D01*
Y2593030D01*
G01X1518100Y2758240D02*
X1441900D01*
Y2789990D01*
X1445710Y2800150D01*
X1450790Y2806500D01*
X1460950Y2809040D01*
X1471110Y2806500D01*
X1477460Y2798880D01*
X1481270Y2789990D01*
Y2758240D01*
G01Y2789990D02*
X1518100Y2809040D01*
G01X1454600Y2845870D02*
X1446980Y2853490D01*
X1443170Y2862380D01*
X1441900Y2872540D01*
X1444440Y2885240D01*
X1450790Y2894130D01*
X1458410Y2896670D01*
X1466030Y2895400D01*
X1472380Y2890320D01*
X1485080Y2864920D01*
X1493970Y2853490D01*
X1506670Y2845870D01*
X1518100Y2843330D01*
Y2896670D01*
G01Y2956360D02*
X1441900D01*
X1457140Y2941120D01*
G01X1518100D02*
Y2971600D01*
G01X1592700Y3005240D02*
X1599050Y2997620D01*
X1606670Y2992540D01*
X1615560Y2990000D01*
X1625720Y2992540D01*
X1633340Y2997620D01*
X1640960Y3005240D01*
X1643500Y3015400D01*
Y3066200D01*
G01X1701920Y2990000D02*
X1704460Y3006510D01*
X1708270Y3020480D01*
X1713350Y3033180D01*
X1719700Y3047150D01*
X1729860Y3066200D01*
X1679060D01*
G01X2418880Y2921900D02*
Y2998100D01*
X2444280D01*
X2454440Y2994290D01*
X2462060Y2989210D01*
X2468410Y2981590D01*
X2473490Y2972700D01*
X2474760Y2960000D01*
X2473490Y2947300D01*
X2468410Y2938410D01*
X2462060Y2930790D01*
X2454440Y2925710D01*
X2444280Y2921900D01*
X2418880D01*
G01X2505240Y2933330D02*
X2512860Y2926980D01*
X2521750Y2923170D01*
X2533180Y2921900D01*
X2544610Y2924440D01*
X2553500Y2929520D01*
X2559850Y2938410D01*
X2561120Y2948570D01*
X2558580Y2958730D01*
X2552230Y2965080D01*
X2543340Y2970160D01*
X2534450Y2971430D01*
X2525560Y2970160D01*
X2514130Y2965080D01*
X2517940Y2998100D01*
X2552230D01*
G01X3108240Y301900D02*
Y378100D01*
X3139990D01*
X3150150Y374290D01*
X3156500Y369210D01*
X3159040Y359050D01*
X3156500Y348890D01*
X3148880Y342540D01*
X3139990Y338730D01*
X3108240D01*
G01X3139990D02*
X3159040Y301900D01*
G01X3220000D02*
Y378100D01*
X3204760Y362860D01*
G01Y301900D02*
X3235240D01*
G01X3303820D02*
X3306360Y318410D01*
X3310170Y332380D01*
X3315250Y345080D01*
X3321600Y359050D01*
X3331760Y378100D01*
X3280960D01*
G01X2954760Y1821750D02*
X2947140Y1825560D01*
X2938250Y1828100D01*
X2928090D01*
X2916660Y1824290D01*
X2907770Y1817940D01*
X2901420Y1810320D01*
X2896340Y1797620D01*
X2895070Y1786190D01*
X2897610Y1774760D01*
X2901420Y1767140D01*
X2909040Y1759520D01*
X2917930Y1754440D01*
X2926820Y1751900D01*
X2935710D01*
X2944600Y1754440D01*
X2952220Y1758250D01*
X2958570Y1763330D01*
G01X2991590Y1760790D02*
X3000480Y1754440D01*
X3010640Y1751900D01*
X3020800Y1754440D01*
X3029690Y1762060D01*
X3036040Y1773490D01*
X3038580Y1784920D01*
Y1798890D01*
X3036040Y1810320D01*
X3029690Y1820480D01*
X3022070Y1825560D01*
X3013180Y1828100D01*
X3003020Y1825560D01*
X2995400Y1820480D01*
X2990320Y1812860D01*
X2987780Y1802700D01*
X2990320Y1793810D01*
X2996670Y1784920D01*
X3004290Y1779840D01*
X3013180Y1778570D01*
X3023340Y1781110D01*
X3030960Y1787460D01*
X3038580Y1798890D01*
G01X2961580Y2331750D02*
X2953960Y2335560D01*
X2945070Y2338100D01*
X2934910D01*
X2923480Y2334290D01*
X2914590Y2327940D01*
X2908240Y2320320D01*
X2903160Y2307620D01*
X2901890Y2296190D01*
X2904430Y2284760D01*
X2908240Y2277140D01*
X2915860Y2269520D01*
X2924750Y2264440D01*
X2933640Y2261900D01*
X2942530D01*
X2951420Y2264440D01*
X2959040Y2268250D01*
X2965390Y2273330D01*
G01X3020000Y2261900D02*
Y2338100D01*
X3004760Y2322860D01*
G01Y2261900D02*
X3035240D01*
G01X3078420Y2277140D02*
X3086040Y2268250D01*
X3096200Y2263170D01*
X3107630Y2261900D01*
X3117790Y2263170D01*
X3127950Y2269520D01*
X3134300Y2277140D01*
X3135570Y2284760D01*
X3133030Y2293650D01*
X3124140Y2300000D01*
X3115250Y2302540D01*
X3103820D01*
G01X3115250D02*
X3122870Y2306350D01*
X3129220Y2312700D01*
X3131760Y2320320D01*
X3129220Y2327940D01*
X3122870Y2334290D01*
X3111440Y2338100D01*
X3100010Y2336830D01*
X3088580Y2331750D01*
G01X3437970Y6163850D02*
X3362020D01*
Y6195490D01*
X3365820Y6205620D01*
X3370880Y6211950D01*
X3381010Y6214480D01*
X3391130Y6211950D01*
X3397460Y6204360D01*
X3401260Y6195490D01*
Y6163850D01*
G01Y6195490D02*
X3437970Y6214480D01*
G01X3374680Y6265950D02*
X3367080Y6273550D01*
X3363290Y6282410D01*
X3362020Y6292540D01*
X3364550Y6305200D01*
X3370880Y6314060D01*
X3378470Y6316590D01*
X3386070Y6315320D01*
X3392400Y6310260D01*
X3405060Y6284940D01*
X3413920Y6273550D01*
X3426580Y6265950D01*
X3437970Y6263420D01*
Y6316590D01*
G01X3406330Y6366790D02*
X3397460Y6375650D01*
X3392400Y6383250D01*
X3389870Y6393380D01*
X3392400Y6402240D01*
X3397460Y6408570D01*
X3405060Y6413630D01*
X3413920Y6414900D01*
X3421520Y6413630D01*
X3429110Y6408570D01*
X3435440Y6400970D01*
X3437970Y6392110D01*
X3435440Y6381980D01*
X3427850Y6373120D01*
X3416450Y6368060D01*
X3403790Y6366790D01*
X3387340Y6369320D01*
X3378470Y6373120D01*
X3369620Y6379450D01*
X3363290Y6388310D01*
X3362020Y6397170D01*
X3364550Y6406040D01*
X3370880Y6412370D01*
G01X3428880Y301900D02*
Y378100D01*
X3454280D01*
X3464440Y374290D01*
X3472060Y369210D01*
X3478410Y361590D01*
X3483490Y352700D01*
X3484760Y340000D01*
X3483490Y327300D01*
X3478410Y318410D01*
X3472060Y310790D01*
X3464440Y305710D01*
X3454280Y301900D01*
X3428880D01*
G01X3519050Y333650D02*
X3527940Y342540D01*
X3535560Y347620D01*
X3545720Y350160D01*
X3554610Y347620D01*
X3560960Y342540D01*
X3566040Y334920D01*
X3567310Y326030D01*
X3566040Y318410D01*
X3560960Y310790D01*
X3553340Y304440D01*
X3544450Y301900D01*
X3534290Y304440D01*
X3525400Y312060D01*
X3520320Y323490D01*
X3519050Y336190D01*
X3521590Y352700D01*
X3525400Y361590D01*
X3531750Y370480D01*
X3540640Y376830D01*
X3549530Y378100D01*
X3558420Y375560D01*
X3564770Y369210D01*
G01X3713800Y5925400D02*
Y6001600D01*
X3745550D01*
X3755710Y5997790D01*
X3762060Y5992710D01*
X3764600Y5982550D01*
X3762060Y5972390D01*
X3754440Y5966040D01*
X3745550Y5962230D01*
X3713800D01*
G01X3745550D02*
X3764600Y5925400D01*
G01X3825560D02*
X3834450Y5926670D01*
X3844610Y5930480D01*
X3850960Y5936830D01*
X3853500Y5945720D01*
X3850960Y5954610D01*
X3843340Y5962230D01*
X3831910Y5966040D01*
X3819210D01*
X3811590Y5968580D01*
X3805240Y5974930D01*
X3802700Y5983820D01*
X3806510Y5992710D01*
X3815400Y5999060D01*
X3825560Y6001600D01*
X3835720Y5999060D01*
X3844610Y5992710D01*
X3848420Y5983820D01*
X3845880Y5974930D01*
X3839530Y5968580D01*
X3831910Y5966040D01*
X3819210D01*
X3807780Y5962230D01*
X3800160Y5954610D01*
X3797620Y5945720D01*
X3800160Y5936830D01*
X3806510Y5930480D01*
X3816670Y5926670D01*
X3825560Y5925400D01*
G01X3993200D02*
Y6001600D01*
X4024950D01*
X4035110Y5997790D01*
X4041460Y5992710D01*
X4044000Y5982550D01*
X4041460Y5972390D01*
X4033840Y5966040D01*
X4024950Y5962230D01*
X3993200D01*
G01X4024950D02*
X4044000Y5925400D01*
G01X4104960D02*
Y6001600D01*
X4089720Y5986360D01*
G01Y5925400D02*
X4120200D01*
G01X4191320D02*
Y6001600D01*
X4176080Y5986360D01*
G01Y5925400D02*
X4206560D01*
G01X3584760Y6501750D02*
X3577140Y6505560D01*
X3568250Y6508100D01*
X3558090D01*
X3546660Y6504290D01*
X3537770Y6497940D01*
X3531420Y6490320D01*
X3526340Y6477620D01*
X3525070Y6466190D01*
X3527610Y6454760D01*
X3531420Y6447140D01*
X3539040Y6439520D01*
X3547930Y6434440D01*
X3556820Y6431900D01*
X3565710D01*
X3574600Y6434440D01*
X3582220Y6438250D01*
X3588570Y6443330D01*
G01X3619050Y6463650D02*
X3627940Y6472540D01*
X3635560Y6477620D01*
X3645720Y6480160D01*
X3654610Y6477620D01*
X3660960Y6472540D01*
X3666040Y6464920D01*
X3667310Y6456030D01*
X3666040Y6448410D01*
X3660960Y6440790D01*
X3653340Y6434440D01*
X3644450Y6431900D01*
X3634290Y6434440D01*
X3625400Y6442060D01*
X3620320Y6453490D01*
X3619050Y6466190D01*
X3621590Y6482700D01*
X3625400Y6491590D01*
X3631750Y6500480D01*
X3640640Y6506830D01*
X3649530Y6508100D01*
X3658420Y6505560D01*
X3664770Y6499210D01*
G01X3558100Y6161420D02*
X3481900D01*
Y6193170D01*
X3485710Y6203330D01*
X3490790Y6209680D01*
X3500950Y6212220D01*
X3511110Y6209680D01*
X3517460Y6202060D01*
X3521270Y6193170D01*
Y6161420D01*
G01Y6193170D02*
X3558100Y6212220D01*
G01X3549210Y6251590D02*
X3555560Y6260480D01*
X3558100Y6270640D01*
X3555560Y6280800D01*
X3547940Y6289690D01*
X3536510Y6296040D01*
X3525080Y6298580D01*
X3511110D01*
X3499680Y6296040D01*
X3489520Y6289690D01*
X3484440Y6282070D01*
X3481900Y6273180D01*
X3484440Y6263020D01*
X3489520Y6255400D01*
X3497140Y6250320D01*
X3507300Y6247780D01*
X3516190Y6250320D01*
X3525080Y6256670D01*
X3530160Y6264290D01*
X3531430Y6273180D01*
X3528890Y6283340D01*
X3522540Y6290960D01*
X3511110Y6298580D01*
G01X3758880Y6428100D02*
Y6373490D01*
X3763960Y6362060D01*
X3774120Y6354440D01*
X3786820Y6351900D01*
X3799520Y6354440D01*
X3809680Y6362060D01*
X3814760Y6373490D01*
Y6428100D01*
G01X3845240Y6367140D02*
X3852860Y6358250D01*
X3863020Y6353170D01*
X3874450Y6351900D01*
X3884610Y6353170D01*
X3894770Y6359520D01*
X3901120Y6367140D01*
X3902390Y6374760D01*
X3899850Y6383650D01*
X3890960Y6390000D01*
X3882070Y6392540D01*
X3870640D01*
G01X3882070D02*
X3889690Y6396350D01*
X3896040Y6402700D01*
X3898580Y6410320D01*
X3896040Y6417940D01*
X3889690Y6424290D01*
X3878260Y6428100D01*
X3866830Y6426830D01*
X3855400Y6421750D01*
G01X3858250Y7154760D02*
X3854440Y7147140D01*
X3851900Y7138250D01*
Y7128090D01*
X3855710Y7116660D01*
X3862060Y7107770D01*
X3869680Y7101420D01*
X3882380Y7096340D01*
X3893810Y7095070D01*
X3905240Y7097610D01*
X3912860Y7101420D01*
X3920480Y7109040D01*
X3925560Y7117930D01*
X3928100Y7126820D01*
Y7135710D01*
X3925560Y7144600D01*
X3921750Y7152220D01*
X3916670Y7158570D01*
G01X3928100Y7210640D02*
X3911590Y7213180D01*
X3897620Y7216990D01*
X3884920Y7222070D01*
X3870950Y7228420D01*
X3851900Y7238580D01*
Y7187780D01*
G01X4048100Y7088240D02*
X3971900D01*
Y7119990D01*
X3975710Y7130150D01*
X3980790Y7136500D01*
X3990950Y7139040D01*
X4001110Y7136500D01*
X4007460Y7128880D01*
X4011270Y7119990D01*
Y7088240D01*
G01Y7119990D02*
X4048100Y7139040D01*
G01Y7200000D02*
X3971900D01*
X3987140Y7184760D01*
G01X4048100D02*
Y7215240D01*
G01Y7301600D02*
X3971900D01*
X4026510Y7254610D01*
Y7318110D01*
G01X3528880Y7068100D02*
Y7013490D01*
X3533960Y7002060D01*
X3544120Y6994440D01*
X3556820Y6991900D01*
X3569520Y6994440D01*
X3579680Y7002060D01*
X3584760Y7013490D01*
Y7068100D01*
G01X3640640Y6991900D02*
X3643180Y7008410D01*
X3646990Y7022380D01*
X3652070Y7035080D01*
X3658420Y7049050D01*
X3668580Y7068100D01*
X3617780D01*
G01X4428880Y301900D02*
Y378100D01*
X4454280D01*
X4464440Y374290D01*
X4472060Y369210D01*
X4478410Y361590D01*
X4483490Y352700D01*
X4484760Y340000D01*
X4483490Y327300D01*
X4478410Y318410D01*
X4472060Y310790D01*
X4464440Y305710D01*
X4454280Y301900D01*
X4428880D01*
G01X4558420D02*
Y378100D01*
X4511430Y323490D01*
X4574930D01*
G01X4088240Y311900D02*
Y388100D01*
X4119990D01*
X4130150Y384290D01*
X4136500Y379210D01*
X4139040Y369050D01*
X4136500Y358890D01*
X4128880Y352540D01*
X4119990Y348730D01*
X4088240D01*
G01X4119990D02*
X4139040Y311900D01*
G01X4200000D02*
Y388100D01*
X4184760Y372860D01*
G01Y311900D02*
X4215240D01*
G01X4286360Y388100D02*
X4276200Y385560D01*
X4268580Y379210D01*
X4263500Y371590D01*
X4259690Y361430D01*
X4258420Y350000D01*
X4259690Y338570D01*
X4263500Y328410D01*
X4268580Y320790D01*
X4276200Y314440D01*
X4286360Y311900D01*
X4296520Y314440D01*
X4304140Y320790D01*
X4309220Y328410D01*
X4313030Y338570D01*
X4314300Y350000D01*
X4313030Y361430D01*
X4309220Y371590D01*
X4304140Y379210D01*
X4296520Y385560D01*
X4286360Y388100D01*
G01X4258240Y5841900D02*
Y5918100D01*
X4289990D01*
X4300150Y5914290D01*
X4306500Y5909210D01*
X4309040Y5899050D01*
X4306500Y5888890D01*
X4298880Y5882540D01*
X4289990Y5878730D01*
X4258240D01*
G01X4289990D02*
X4309040Y5841900D01*
G01X4370000D02*
Y5918100D01*
X4354760Y5902860D01*
G01Y5841900D02*
X4385240D01*
G01X4428420Y5857140D02*
X4436040Y5848250D01*
X4446200Y5843170D01*
X4457630Y5841900D01*
X4467790Y5843170D01*
X4477950Y5849520D01*
X4484300Y5857140D01*
X4485570Y5864760D01*
X4483030Y5873650D01*
X4474140Y5880000D01*
X4465250Y5882540D01*
X4453820D01*
G01X4465250D02*
X4472870Y5886350D01*
X4479220Y5892700D01*
X4481760Y5900320D01*
X4479220Y5907940D01*
X4472870Y5914290D01*
X4461440Y5918100D01*
X4450010Y5916830D01*
X4438580Y5911750D01*
G01X4158250Y6784760D02*
X4154440Y6777140D01*
X4151900Y6768250D01*
Y6758090D01*
X4155710Y6746660D01*
X4162060Y6737770D01*
X4169680Y6731420D01*
X4182380Y6726340D01*
X4193810Y6725070D01*
X4205240Y6727610D01*
X4212860Y6731420D01*
X4220480Y6739040D01*
X4225560Y6747930D01*
X4228100Y6756820D01*
Y6765710D01*
X4225560Y6774600D01*
X4221750Y6782220D01*
X4216670Y6788570D01*
G01X4228100Y6843180D02*
X4226830Y6852070D01*
X4223020Y6862230D01*
X4216670Y6868580D01*
X4207780Y6871120D01*
X4198890Y6868580D01*
X4191270Y6860960D01*
X4187460Y6849530D01*
Y6836830D01*
X4184920Y6829210D01*
X4178570Y6822860D01*
X4169680Y6820320D01*
X4160790Y6824130D01*
X4154440Y6833020D01*
X4151900Y6843180D01*
X4154440Y6853340D01*
X4160790Y6862230D01*
X4169680Y6866040D01*
X4178570Y6863500D01*
X4184920Y6857150D01*
X4187460Y6849530D01*
Y6836830D01*
X4191270Y6825400D01*
X4198890Y6817780D01*
X4207780Y6815240D01*
X4216670Y6817780D01*
X4223020Y6824130D01*
X4226830Y6834290D01*
X4228100Y6843180D01*
G01X4291420Y7227140D02*
X4297770Y7219520D01*
X4305390Y7214440D01*
X4314280Y7211900D01*
X4324440Y7214440D01*
X4332060Y7219520D01*
X4339680Y7227140D01*
X4342220Y7237300D01*
Y7288100D01*
G01X4379050Y7243650D02*
X4387940Y7252540D01*
X4395560Y7257620D01*
X4405720Y7260160D01*
X4414610Y7257620D01*
X4420960Y7252540D01*
X4426040Y7244920D01*
X4427310Y7236030D01*
X4426040Y7228410D01*
X4420960Y7220790D01*
X4413340Y7214440D01*
X4404450Y7211900D01*
X4394290Y7214440D01*
X4385400Y7222060D01*
X4380320Y7233490D01*
X4379050Y7246190D01*
X4381590Y7262700D01*
X4385400Y7271590D01*
X4391750Y7280480D01*
X4400640Y7286830D01*
X4409530Y7288100D01*
X4418420Y7285560D01*
X4424770Y7279210D01*
G01X5211420Y311900D02*
Y388100D01*
X5243170D01*
X5253330Y384290D01*
X5259680Y379210D01*
X5262220Y369050D01*
X5259680Y358890D01*
X5252060Y352540D01*
X5243170Y348730D01*
X5211420D01*
G01X5243170D02*
X5262220Y311900D01*
G01X5295240Y327140D02*
X5302860Y318250D01*
X5313020Y313170D01*
X5324450Y311900D01*
X5334610Y313170D01*
X5344770Y319520D01*
X5351120Y327140D01*
X5352390Y334760D01*
X5349850Y343650D01*
X5340960Y350000D01*
X5332070Y352540D01*
X5320640D01*
G01X5332070D02*
X5339690Y356350D01*
X5346040Y362700D01*
X5348580Y370320D01*
X5346040Y377940D01*
X5339690Y384290D01*
X5328260Y388100D01*
X5316830Y386830D01*
X5305400Y381750D01*
G01X5328880Y7121900D02*
Y7198100D01*
X5354280D01*
X5364440Y7194290D01*
X5372060Y7189210D01*
X5378410Y7181590D01*
X5383490Y7172700D01*
X5384760Y7160000D01*
X5383490Y7147300D01*
X5378410Y7138410D01*
X5372060Y7130790D01*
X5364440Y7125710D01*
X5354280Y7121900D01*
X5328880D01*
G01X5415240Y7137140D02*
X5422860Y7128250D01*
X5433020Y7123170D01*
X5444450Y7121900D01*
X5454610Y7123170D01*
X5464770Y7129520D01*
X5471120Y7137140D01*
X5472390Y7144760D01*
X5469850Y7153650D01*
X5460960Y7160000D01*
X5452070Y7162540D01*
X5440640D01*
G01X5452070D02*
X5459690Y7166350D01*
X5466040Y7172700D01*
X5468580Y7180320D01*
X5466040Y7187940D01*
X5459690Y7194290D01*
X5448260Y7198100D01*
X5436830Y7196830D01*
X5425400Y7191750D01*
G01X5528880Y311900D02*
Y388100D01*
X5554280D01*
X5564440Y384290D01*
X5572060Y379210D01*
X5578410Y371590D01*
X5583490Y362700D01*
X5584760Y350000D01*
X5583490Y337300D01*
X5578410Y328410D01*
X5572060Y320790D01*
X5564440Y315710D01*
X5554280Y311900D01*
X5528880D01*
G01X5619050Y375400D02*
X5626670Y383020D01*
X5635560Y386830D01*
X5645720Y388100D01*
X5658420Y385560D01*
X5667310Y379210D01*
X5669850Y371590D01*
X5668580Y363970D01*
X5663500Y357620D01*
X5638100Y344920D01*
X5626670Y336030D01*
X5619050Y323330D01*
X5616510Y311900D01*
X5669850D01*
G01X5994760Y2131750D02*
X5987140Y2135560D01*
X5978250Y2138100D01*
X5968090D01*
X5956660Y2134290D01*
X5947770Y2127940D01*
X5941420Y2120320D01*
X5936340Y2107620D01*
X5935070Y2096190D01*
X5937610Y2084760D01*
X5941420Y2077140D01*
X5949040Y2069520D01*
X5957930Y2064440D01*
X5966820Y2061900D01*
X5975710D01*
X5984600Y2064440D01*
X5992220Y2068250D01*
X5998570Y2073330D01*
G01X6053180Y2061900D02*
Y2138100D01*
X6037940Y2122860D01*
G01Y2061900D02*
X6068420D01*
G01X5928880Y2708100D02*
Y2653490D01*
X5933960Y2642060D01*
X5944120Y2634440D01*
X5956820Y2631900D01*
X5969520Y2634440D01*
X5979680Y2642060D01*
X5984760Y2653490D01*
Y2708100D01*
G01X6043180Y2631900D02*
X6052070Y2633170D01*
X6062230Y2636980D01*
X6068580Y2643330D01*
X6071120Y2652220D01*
X6068580Y2661110D01*
X6060960Y2668730D01*
X6049530Y2672540D01*
X6036830D01*
X6029210Y2675080D01*
X6022860Y2681430D01*
X6020320Y2690320D01*
X6024130Y2699210D01*
X6033020Y2705560D01*
X6043180Y2708100D01*
X6053340Y2705560D01*
X6062230Y2699210D01*
X6066040Y2690320D01*
X6063500Y2681430D01*
X6057150Y2675080D01*
X6049530Y2672540D01*
X6036830D01*
X6025400Y2668730D01*
X6017780Y2661110D01*
X6015240Y2652220D01*
X6017780Y2643330D01*
X6024130Y2636980D01*
X6034290Y2633170D01*
X6043180Y2631900D01*
G01X5474760Y6201750D02*
X5467140Y6205560D01*
X5458250Y6208100D01*
X5448090D01*
X5436660Y6204290D01*
X5427770Y6197940D01*
X5421420Y6190320D01*
X5416340Y6177620D01*
X5415070Y6166190D01*
X5417610Y6154760D01*
X5421420Y6147140D01*
X5429040Y6139520D01*
X5437930Y6134440D01*
X5446820Y6131900D01*
X5455710D01*
X5464600Y6134440D01*
X5472220Y6138250D01*
X5478570Y6143330D01*
G01X5505240D02*
X5512860Y6136980D01*
X5521750Y6133170D01*
X5533180Y6131900D01*
X5544610Y6134440D01*
X5553500Y6139520D01*
X5559850Y6148410D01*
X5561120Y6158570D01*
X5558580Y6168730D01*
X5552230Y6175080D01*
X5543340Y6180160D01*
X5534450Y6181430D01*
X5525560Y6180160D01*
X5514130Y6175080D01*
X5517940Y6208100D01*
X5552230D01*
G01X5461580Y6741750D02*
X5453960Y6745560D01*
X5445070Y6748100D01*
X5434910D01*
X5423480Y6744290D01*
X5414590Y6737940D01*
X5408240Y6730320D01*
X5403160Y6717620D01*
X5401890Y6706190D01*
X5404430Y6694760D01*
X5408240Y6687140D01*
X5415860Y6679520D01*
X5424750Y6674440D01*
X5433640Y6671900D01*
X5442530D01*
X5451420Y6674440D01*
X5459040Y6678250D01*
X5465390Y6683330D01*
G01X5520000Y6671900D02*
Y6748100D01*
X5504760Y6732860D01*
G01Y6671900D02*
X5535240D01*
G01X5621600D02*
Y6748100D01*
X5574610Y6693490D01*
X5638110D01*
G01X6173800Y1575400D02*
Y1651600D01*
X6205550D01*
X6215710Y1647790D01*
X6222060Y1642710D01*
X6224600Y1632550D01*
X6222060Y1622390D01*
X6214440Y1616040D01*
X6205550Y1612230D01*
X6173800D01*
G01X6205550D02*
X6224600Y1575400D01*
G01X6285560D02*
Y1651600D01*
X6270320Y1636360D01*
G01Y1575400D02*
X6300800D01*
G01X6638100Y1871420D02*
X6561900D01*
Y1903170D01*
X6565710Y1913330D01*
X6570790Y1919680D01*
X6580950Y1922220D01*
X6591110Y1919680D01*
X6597460Y1912060D01*
X6601270Y1903170D01*
Y1871420D01*
G01Y1903170D02*
X6638100Y1922220D01*
G01X6574600Y1959050D02*
X6566980Y1966670D01*
X6563170Y1975560D01*
X6561900Y1985720D01*
X6564440Y1998420D01*
X6570790Y2007310D01*
X6578410Y2009850D01*
X6586030Y2008580D01*
X6592380Y2003500D01*
X6605080Y1978100D01*
X6613970Y1966670D01*
X6626670Y1959050D01*
X6638100Y1956510D01*
Y2009850D01*
G01X6453200Y1575400D02*
Y1651600D01*
X6484950D01*
X6495110Y1647790D01*
X6501460Y1642710D01*
X6504000Y1632550D01*
X6501460Y1622390D01*
X6493840Y1616040D01*
X6484950Y1612230D01*
X6453200D01*
G01X6484950D02*
X6504000Y1575400D01*
G01X6580200D02*
Y1651600D01*
X6533210Y1596990D01*
X6596710D01*
G01X6528100Y1871420D02*
X6451900D01*
Y1903170D01*
X6455710Y1913330D01*
X6460790Y1919680D01*
X6470950Y1922220D01*
X6481110Y1919680D01*
X6487460Y1912060D01*
X6491270Y1903170D01*
Y1871420D01*
G01Y1903170D02*
X6528100Y1922220D01*
G01X6516670Y1955240D02*
X6523020Y1962860D01*
X6526830Y1971750D01*
X6528100Y1983180D01*
X6525560Y1994610D01*
X6520480Y2003500D01*
X6511590Y2009850D01*
X6501430Y2011120D01*
X6491270Y2008580D01*
X6484920Y2002230D01*
X6479840Y1993340D01*
X6478570Y1984450D01*
X6479840Y1975560D01*
X6484920Y1964130D01*
X6451900Y1967940D01*
Y2002230D01*
G01X6148880Y2078100D02*
Y2023490D01*
X6153960Y2012060D01*
X6164120Y2004440D01*
X6176820Y2001900D01*
X6189520Y2004440D01*
X6199680Y2012060D01*
X6204760Y2023490D01*
Y2078100D01*
G01X6263180Y2001900D02*
Y2078100D01*
X6247940Y2062860D01*
G01Y2001900D02*
X6278420D01*
G01X6228250Y2784760D02*
X6224440Y2777140D01*
X6221900Y2768250D01*
Y2758090D01*
X6225710Y2746660D01*
X6232060Y2737770D01*
X6239680Y2731420D01*
X6252380Y2726340D01*
X6263810Y2725070D01*
X6275240Y2727610D01*
X6282860Y2731420D01*
X6290480Y2739040D01*
X6295560Y2747930D01*
X6298100Y2756820D01*
Y2765710D01*
X6295560Y2774600D01*
X6291750Y2782220D01*
X6286670Y2788570D01*
G01X6282860Y2815240D02*
X6291750Y2822860D01*
X6296830Y2833020D01*
X6298100Y2844450D01*
X6296830Y2854610D01*
X6290480Y2864770D01*
X6282860Y2871120D01*
X6275240Y2872390D01*
X6266350Y2869850D01*
X6260000Y2860960D01*
X6257460Y2852070D01*
Y2840640D01*
G01Y2852070D02*
X6253650Y2859690D01*
X6247300Y2866040D01*
X6239680Y2868580D01*
X6232060Y2866040D01*
X6225710Y2859690D01*
X6221900Y2848260D01*
X6223170Y2836830D01*
X6228250Y2825400D01*
G01X6568250Y2414760D02*
X6564440Y2407140D01*
X6561900Y2398250D01*
Y2388090D01*
X6565710Y2376660D01*
X6572060Y2367770D01*
X6579680Y2361420D01*
X6592380Y2356340D01*
X6603810Y2355070D01*
X6615240Y2357610D01*
X6622860Y2361420D01*
X6630480Y2369040D01*
X6635560Y2377930D01*
X6638100Y2386820D01*
Y2395710D01*
X6635560Y2404600D01*
X6631750Y2412220D01*
X6626670Y2418570D01*
G01X6638100Y2488420D02*
X6561900D01*
X6616510Y2441430D01*
Y2504930D01*
G01X6418100Y2741420D02*
X6341900D01*
Y2773170D01*
X6345710Y2783330D01*
X6350790Y2789680D01*
X6360950Y2792220D01*
X6371110Y2789680D01*
X6377460Y2782060D01*
X6381270Y2773170D01*
Y2741420D01*
G01Y2773170D02*
X6418100Y2792220D01*
G01Y2850640D02*
X6401590Y2853180D01*
X6387620Y2856990D01*
X6374920Y2862070D01*
X6360950Y2868420D01*
X6341900Y2878580D01*
Y2827780D01*
G01X6471420Y2997140D02*
X6477770Y2989520D01*
X6485390Y2984440D01*
X6494280Y2981900D01*
X6504440Y2984440D01*
X6512060Y2989520D01*
X6519680Y2997140D01*
X6522220Y3007300D01*
Y3058100D01*
G01X6555240Y2993330D02*
X6562860Y2986980D01*
X6571750Y2983170D01*
X6583180Y2981900D01*
X6594610Y2984440D01*
X6603500Y2989520D01*
X6609850Y2998410D01*
X6611120Y3008570D01*
X6608580Y3018730D01*
X6602230Y3025080D01*
X6593340Y3030160D01*
X6584450Y3031430D01*
X6575560Y3030160D01*
X6564130Y3025080D01*
X6567940Y3058100D01*
X6602230D01*
G01X6671420Y1571900D02*
Y1648100D01*
X6703170D01*
X6713330Y1644290D01*
X6719680Y1639210D01*
X6722220Y1629050D01*
X6719680Y1618890D01*
X6712060Y1612540D01*
X6703170Y1608730D01*
X6671420D01*
G01X6703170D02*
X6722220Y1571900D01*
G01X6759050Y1603650D02*
X6767940Y1612540D01*
X6775560Y1617620D01*
X6785720Y1620160D01*
X6794610Y1617620D01*
X6800960Y1612540D01*
X6806040Y1604920D01*
X6807310Y1596030D01*
X6806040Y1588410D01*
X6800960Y1580790D01*
X6793340Y1574440D01*
X6784450Y1571900D01*
X6774290Y1574440D01*
X6765400Y1582060D01*
X6760320Y1593490D01*
X6759050Y1606190D01*
X6761590Y1622700D01*
X6765400Y1631590D01*
X6771750Y1640480D01*
X6780640Y1646830D01*
X6789530Y1648100D01*
X6798420Y1645560D01*
X6804770Y1639210D01*
G01X7864760Y1771750D02*
X7857140Y1775560D01*
X7848250Y1778100D01*
X7838090D01*
X7826660Y1774290D01*
X7817770Y1767940D01*
X7811420Y1760320D01*
X7806340Y1747620D01*
X7805070Y1736190D01*
X7807610Y1724760D01*
X7811420Y1717140D01*
X7819040Y1709520D01*
X7827930Y1704440D01*
X7836820Y1701900D01*
X7845710D01*
X7854600Y1704440D01*
X7862220Y1708250D01*
X7868570Y1713330D01*
G01X7899050Y1765400D02*
X7906670Y1773020D01*
X7915560Y1776830D01*
X7925720Y1778100D01*
X7938420Y1775560D01*
X7947310Y1769210D01*
X7949850Y1761590D01*
X7948580Y1753970D01*
X7943500Y1747620D01*
X7918100Y1734920D01*
X7906670Y1726030D01*
X7899050Y1713330D01*
X7896510Y1701900D01*
X7949850D01*
G01X7861580Y2301750D02*
X7853960Y2305560D01*
X7845070Y2308100D01*
X7834910D01*
X7823480Y2304290D01*
X7814590Y2297940D01*
X7808240Y2290320D01*
X7803160Y2277620D01*
X7801890Y2266190D01*
X7804430Y2254760D01*
X7808240Y2247140D01*
X7815860Y2239520D01*
X7824750Y2234440D01*
X7833640Y2231900D01*
X7842530D01*
X7851420Y2234440D01*
X7859040Y2238250D01*
X7865390Y2243330D01*
G01X7920000Y2231900D02*
Y2308100D01*
X7904760Y2292860D01*
G01Y2231900D02*
X7935240D01*
G01X7978420Y2243330D02*
X7986040Y2236980D01*
X7994930Y2233170D01*
X8006360Y2231900D01*
X8017790Y2234440D01*
X8026680Y2239520D01*
X8033030Y2248410D01*
X8034300Y2258570D01*
X8031760Y2268730D01*
X8025410Y2275080D01*
X8016520Y2280160D01*
X8007630Y2281430D01*
X7998740Y2280160D01*
X7987310Y2275080D01*
X7991120Y2308100D01*
X8025410D01*
G01X7348880Y2901900D02*
Y2978100D01*
X7374280D01*
X7384440Y2974290D01*
X7392060Y2969210D01*
X7398410Y2961590D01*
X7403490Y2952700D01*
X7404760Y2940000D01*
X7403490Y2927300D01*
X7398410Y2918410D01*
X7392060Y2910790D01*
X7384440Y2905710D01*
X7374280Y2901900D01*
X7348880D01*
G01X7463180D02*
Y2978100D01*
X7447940Y2962860D01*
G01Y2901900D02*
X7478420D01*
G01X7351420Y7997140D02*
X7357770Y7989520D01*
X7365390Y7984440D01*
X7374280Y7981900D01*
X7384440Y7984440D01*
X7392060Y7989520D01*
X7399680Y7997140D01*
X7402220Y8007300D01*
Y8058100D01*
G01X7463180Y7981900D02*
X7472070Y7983170D01*
X7482230Y7986980D01*
X7488580Y7993330D01*
X7491120Y8002220D01*
X7488580Y8011110D01*
X7480960Y8018730D01*
X7469530Y8022540D01*
X7456830D01*
X7449210Y8025080D01*
X7442860Y8031430D01*
X7440320Y8040320D01*
X7444130Y8049210D01*
X7453020Y8055560D01*
X7463180Y8058100D01*
X7473340Y8055560D01*
X7482230Y8049210D01*
X7486040Y8040320D01*
X7483500Y8031430D01*
X7477150Y8025080D01*
X7469530Y8022540D01*
X7456830D01*
X7445400Y8018730D01*
X7437780Y8011110D01*
X7435240Y8002220D01*
X7437780Y7993330D01*
X7444130Y7986980D01*
X7454290Y7983170D01*
X7463180Y7981900D01*
G54D16*
G01X1178400Y1819700D02*
X1292700D01*
G01X1307940Y1784140D02*
Y1725720D01*
G01X1325720Y1784140D02*
Y1725720D01*
G01X1292700Y1692700D02*
X1178400D01*
Y1819700D01*
G01X1343500D02*
X1457800D01*
Y1692700D01*
X1343500D01*
G01X1241900Y2188000D02*
X1127600D01*
G01X1112360Y2223560D02*
Y2281980D01*
G01X1094580Y2223560D02*
Y2281980D01*
G01X1127600Y2315000D02*
X1241900D01*
Y2188000D01*
G01X1076800D02*
X962500D01*
Y2315000D01*
X1076800D01*
G01X1325000Y2434800D02*
Y2549100D01*
G01X1360560Y2564340D02*
X1418980D01*
G01X1360560Y2582120D02*
X1418980D01*
G01X1452000Y2549100D02*
Y2434800D01*
X1325000D01*
G01Y2599900D02*
Y2714200D01*
X1452000D01*
Y2599900D01*
G01X2017500Y2064100D02*
Y1949800D01*
X1890500D01*
Y2064100D01*
G01X1457800Y1819700D02*
X1572100D01*
G01X1587340Y1784140D02*
Y1725720D01*
G01X1605120Y1784140D02*
Y1725720D01*
G01X1572100Y1692700D02*
X1457800D01*
Y1819700D01*
G01X1622900D02*
X1737200D01*
Y1692700D01*
X1622900D01*
G01X1737200Y1819700D02*
X1851500D01*
G01X1866740Y1784140D02*
Y1725720D01*
G01X1884520Y1784140D02*
Y1725720D01*
G01X1851500Y1692700D02*
X1737200D01*
Y1819700D01*
G01X1902300D02*
X2016600D01*
Y1692700D01*
X1902300D01*
G01X1883500Y2064600D02*
Y1950300D01*
X1756500D01*
Y2064600D01*
G01X1750500Y2279800D02*
Y2394100D01*
G01X1786060Y2409340D02*
X1844480D01*
G01X1786060Y2427120D02*
X1844480D01*
G01X1877500Y2394100D02*
Y2279800D01*
X1750500D01*
G01Y2444900D02*
Y2559200D01*
X1877500D01*
Y2444900D01*
G01X2017500Y2229200D02*
Y2114900D01*
G01X1981940Y2099660D02*
X1923520D01*
G01X1981940Y2081880D02*
X1923520D01*
G01X1890500Y2114900D02*
Y2229200D01*
X2017500D01*
G01X1455000Y2434800D02*
Y2549100D01*
G01X1490560Y2564340D02*
X1548980D01*
G01X1490560Y2582120D02*
X1548980D01*
G01X1582000Y2549100D02*
Y2434800D01*
X1455000D01*
G01Y2599900D02*
Y2714200D01*
X1582000D01*
Y2599900D01*
G01X1883500Y2229700D02*
Y2115400D01*
G01X1847940Y2100160D02*
X1789520D01*
G01X1847940Y2082380D02*
X1789520D01*
G01X1756500Y2115400D02*
Y2229700D01*
X1883500D01*
G01X2096650Y1639620D02*
Y1562010D01*
G01Y2036990D02*
Y1959380D01*
G01X2871350Y2036990D02*
X2096650D01*
G01Y1562010D02*
X2871350D01*
G01X2096650Y2139620D02*
Y2062010D01*
G01D02*
X2871350D01*
G01X2096650Y2536990D02*
Y2459380D01*
G01X2871350Y2536990D02*
X2096650D01*
G01X3360300Y273500D02*
X3474600D01*
G01Y146500D02*
X3360300D01*
Y273500D01*
G01X3060300D02*
X3174600D01*
G01X3189840Y237940D02*
Y179520D01*
G01X3207620Y237940D02*
Y179520D01*
G01X3174600Y146500D02*
X3060300D01*
Y273500D01*
G01X3225400D02*
X3339700D01*
Y146500D01*
X3225400D01*
G01X2871350Y1959380D02*
Y2036990D01*
G01Y1562010D02*
Y1639620D01*
G01Y2062010D02*
Y2139620D01*
G01Y2459380D02*
Y2536990D01*
G01X3639700Y273500D02*
X3665100D01*
Y146500D01*
X3639700D01*
G01X3525400Y273500D02*
X3639700D01*
Y146500D01*
X3525400D01*
G01X3751900Y6538000D02*
X3637600D01*
G01X3622360Y6573560D02*
Y6631980D01*
G01X3604580Y6573560D02*
Y6631980D01*
G01X3637600Y6665000D02*
X3751900D01*
Y6538000D01*
G01X3586800D02*
X3472500D01*
Y6665000D01*
X3586800D01*
G01X3688400Y6169700D02*
X3802700D01*
G01X3817940Y6134140D02*
Y6075720D01*
G01X3835720Y6134140D02*
Y6075720D01*
G01X3802700Y6042700D02*
X3688400D01*
Y6169700D01*
G01X3853500D02*
X3967800D01*
Y6042700D01*
X3853500D01*
G01X3967800Y6169700D02*
X4082100D01*
G01Y6042700D02*
X3967800D01*
Y6169700D01*
G01X3835000Y6784800D02*
Y6899100D01*
G01X3870560Y6914340D02*
X3928980D01*
G01X3870560Y6932120D02*
X3928980D01*
G01X3962000Y6899100D02*
Y6784800D01*
X3835000D01*
G01Y6949900D02*
Y7064200D01*
X3962000D01*
Y6949900D01*
G01X3965000Y6784800D02*
Y6899100D01*
G01X4000560Y6914340D02*
X4058980D01*
G01X4000560Y6932120D02*
X4058980D01*
G01X4092000Y6899100D02*
Y6784800D01*
X3965000D01*
G01Y6949900D02*
Y7064200D01*
X4092000D01*
Y6949900D01*
G01X4639700Y273500D02*
X4665100D01*
Y146500D01*
X4639700D01*
G01X4360300Y273500D02*
X4474600D01*
G01Y146500D02*
X4360300D01*
Y273500D01*
G01X4525400D02*
X4639700D01*
Y146500D01*
X4525400D01*
G01X4060300Y273500D02*
X4174600D01*
G01X4189840Y237940D02*
Y179520D01*
G01X4207620Y237940D02*
Y179520D01*
G01X4174600Y146500D02*
X4060300D01*
Y273500D01*
G01X4225400D02*
X4339700D01*
Y146500D01*
X4225400D01*
G01X4606650Y6049620D02*
Y5972010D01*
G01D02*
X5381350D01*
G01X4260500Y6629800D02*
Y6744100D01*
G01X4387500D02*
Y6629800D01*
X4260500D01*
G01X4606650Y6446990D02*
Y6369380D01*
G01X5381350Y6446990D02*
X4606650D01*
G01Y6549620D02*
Y6472010D01*
G01D02*
X5381350D01*
G01X4527500Y6579200D02*
Y6464900D01*
G01X4491940Y6449660D02*
X4433520D01*
G01X4491940Y6431880D02*
X4433520D01*
G01X4400500Y6464900D02*
Y6579200D01*
X4527500D01*
G01Y6414100D02*
Y6299800D01*
X4400500D01*
Y6414100D01*
G01X4097340Y6134140D02*
Y6075720D01*
G01X4115120Y6134140D02*
Y6075720D01*
G01X4132900Y6169700D02*
X4247200D01*
Y6042700D01*
X4132900D01*
G01X4247200Y6169700D02*
X4361500D01*
G01X4376740Y6134140D02*
Y6075720D01*
G01X4394520Y6134140D02*
Y6075720D01*
G01X4361500Y6042700D02*
X4247200D01*
Y6169700D01*
G01X4412300D02*
X4526600D01*
Y6042700D01*
X4412300D01*
G01X4393500Y6579700D02*
Y6465400D01*
G01X4357940Y6450160D02*
X4299520D01*
G01X4357940Y6432380D02*
X4299520D01*
G01X4266500Y6465400D02*
Y6579700D01*
X4393500D01*
G01Y6414600D02*
Y6300300D01*
X4266500D01*
Y6414600D01*
G01X4296060Y6759340D02*
X4354480D01*
G01X4296060Y6777120D02*
X4354480D01*
G01X4260500Y6794900D02*
Y6909200D01*
X4387500D01*
Y6794900D01*
G01X4606650Y6946990D02*
Y6869380D01*
G01X5381350Y6946990D02*
X4606650D01*
G01X5140300Y273500D02*
X5254600D01*
G01X5269840Y237940D02*
Y179520D01*
G01X5287620Y237940D02*
Y179520D01*
G01X5254600Y146500D02*
X5140300D01*
Y273500D01*
G01X5305400D02*
X5419700D01*
Y146500D01*
X5305400D01*
G01X5719700Y273500D02*
X5745100D01*
Y146500D01*
X5719700D01*
G01X5440300Y273500D02*
X5554600D01*
G01Y146500D02*
X5440300D01*
Y273500D01*
G01X5605400D02*
X5719700D01*
Y146500D01*
X5605400D01*
G01X5986800Y2178000D02*
X5872500D01*
Y2305000D01*
X5986800D01*
G01X5381350Y5972010D02*
Y6049620D01*
G01Y6369380D02*
Y6446990D01*
G01Y6472010D02*
Y6549620D01*
G01Y6869380D02*
Y6946990D01*
G01X7549000Y8106000D02*
X5771000D01*
Y8614000D01*
X7549000D01*
Y8106000D01*
G01X6088400Y1809700D02*
X6202700D01*
G01X6217940Y1774140D02*
Y1715720D01*
G01X6235720Y1774140D02*
Y1715720D01*
G01X6202700Y1682700D02*
X6088400D01*
Y1809700D01*
G01X6253500D02*
X6367800D01*
Y1682700D01*
X6253500D01*
G01X6367800Y1809700D02*
X6482100D01*
G01X6497340Y1774140D02*
Y1715720D01*
G01X6515120Y1774140D02*
Y1715720D01*
G01X6482100Y1682700D02*
X6367800D01*
Y1809700D01*
G01X6532900D02*
X6647200D01*
Y1682700D01*
X6532900D01*
G01X6647200Y1809700D02*
X6761500D01*
G01Y1682700D02*
X6647200D01*
Y1809700D01*
G01X6151900Y2178000D02*
X6037600D01*
G01X6022360Y2213560D02*
Y2271980D01*
G01X6004580Y2213560D02*
Y2271980D01*
G01X6037600Y2305000D02*
X6151900D01*
Y2178000D01*
G01X6230500Y2429800D02*
Y2544100D01*
G01X6266060Y2559340D02*
X6324480D01*
G01X6266060Y2577120D02*
X6324480D01*
G01X6357500Y2544100D02*
Y2429800D01*
X6230500D01*
G01Y2594900D02*
Y2709200D01*
X6357500D01*
Y2594900D01*
G01X6360500Y2429800D02*
Y2544100D01*
G01X6396060Y2559340D02*
X6454480D01*
G01X6396060Y2577120D02*
X6454480D01*
G01X6487500Y2544100D02*
Y2429800D01*
X6360500D01*
G01Y2594900D02*
Y2709200D01*
X6487500D01*
Y2594900D01*
G01X7006650Y1629620D02*
Y1552010D01*
G01Y2026990D02*
Y1949380D01*
G01X7781350Y2026990D02*
X7006650D01*
G01Y1552010D02*
X7781350D01*
G01X7006650Y2129620D02*
Y2052010D01*
G01D02*
X7781350D01*
G01X6927500Y2054100D02*
Y1939800D01*
X6800500D01*
Y2054100D01*
G01X6797500D02*
Y1939800D01*
X6670500D01*
Y2054100D01*
G01X6776740Y1774140D02*
Y1715720D01*
G01X6794520Y1774140D02*
Y1715720D01*
G01X6812300Y1809700D02*
X6926600D01*
Y1682700D01*
X6812300D01*
G01X6660500Y2269800D02*
Y2384100D01*
G01X6696060Y2399340D02*
X6754480D01*
G01X6696060Y2417120D02*
X6754480D01*
G01X6787500Y2384100D02*
Y2269800D01*
X6660500D01*
G01Y2434900D02*
Y2549200D01*
X6787500D01*
Y2434900D01*
G01X7006650Y2526990D02*
Y2449380D01*
G01X7781350Y2526990D02*
X7006650D01*
G01X6927500Y2219200D02*
Y2104900D01*
G01X6891940Y2089660D02*
X6833520D01*
G01X6891940Y2071880D02*
X6833520D01*
G01X6800500Y2104900D02*
Y2219200D01*
X6927500D01*
G01X6797500D02*
Y2104900D01*
G01X6761940Y2089660D02*
X6703520D01*
G01X6761940Y2071880D02*
X6703520D01*
G01X6670500Y2104900D02*
Y2219200D01*
X6797500D01*
G01X7781350Y1949380D02*
Y2026990D01*
G01Y1552010D02*
Y1629620D01*
G01Y2052010D02*
Y2129620D01*
G01Y2449380D02*
Y2526990D01*
G01X0Y100000D02*
Y3700000D01*
G02X100000Y3800000I100000J0D01*
G01X900000D01*
G03X1000000Y3900000I0J100000D01*
G01Y4900000D01*
G03X900000Y5000000I-100000J0D01*
G01X100000D01*
G02X0Y5100000I0J100000D01*
G01Y8700000D01*
G02X100000Y8800000I100000J0D01*
G01X3700000D01*
G02X3800000Y8700000I0J-100000D01*
G01Y7900000D01*
G03X3900000Y7800000I100000J0D01*
G01X4900000D01*
G03X5000000Y7900000I0J100000D01*
G01Y8700000D01*
G02X5100000Y8800000I100000J0D01*
G01X8700000D01*
G02X8800000Y8700000I0J-100000D01*
G01Y5100000D01*
G02X8700000Y5000000I-100000J0D01*
G01X7900000D01*
G03X7800000Y4900000I0J-100000D01*
G01Y3900000D01*
G03X7900000Y3800000I100000J0D01*
G01X8700000D01*
G02X8800000Y3700000I0J-100000D01*
G01Y100000D01*
G02X8700000Y0I-100000J0D01*
G01X7800000D01*
G02X7700000Y100000I0J100000D01*
G01Y900000D01*
G03X7600000Y1000000I-100000J0D01*
G01X6400000D01*
G03X6300000Y900000I0J-100000D01*
G01Y100000D01*
G02X6200000Y0I-100000J0D01*
G01X2600000D01*
G02X2500000Y100000I0J100000D01*
G01Y900000D01*
G03X2400000Y1000000I-100000J0D01*
G01X1200000D01*
G03X1100000Y900000I0J-100000D01*
G01Y100000D01*
G02X1000000Y0I-100000J0D01*
G01X100000D01*
G02X0Y100000I0J100000D01*
G01X656640Y7800000D02*
G03I-56640J0D01*
G01X856640Y840000D02*
G03I-56640J0D01*
G01X7956640Y300000D02*
G03I-56640J0D01*
G01X8416640Y7760000D02*
G03I-56640J0D01*
G54D17*
G01X2172010Y2879430D02*
G02I-12510J0D01*
G01X4682010Y7279430D02*
G02I-12510J0D01*
G01X7082010Y2859430D02*
G02I-12510J0D01*
G54D18*
G01X2204490Y2645190D02*
Y2635690D01*
X2735510D01*
Y2645190D01*
G01X2204490Y2874810D02*
Y2884310D01*
X2735510D01*
Y2874810D01*
G01X4714490Y7274810D02*
Y7284310D01*
X5245510D01*
Y7274810D01*
G01X4714490Y7045190D02*
Y7035690D01*
X5245510D01*
Y7045190D01*
G01X7114490Y2625190D02*
Y2615690D01*
X7645510D01*
Y2625190D01*
G01X7114490Y2854810D02*
Y2864310D01*
X7645510D01*
Y2854810D01*
M02*
