G04 ================== begin FILE IDENTIFICATION RECORD ==================*
G04 Layout Name:  Adaptor_V111.brd*
G04 Film Name:    ADAPTOR_ver1.1.1_ASSY_BOTTOM.art*
G04 File Format:  Gerber RS274X*
G04 File Origin:  Cadence Allegro 17.2-S052*
G04 Origin Date:  Fri Mar 21 16:16:00 2025*
G04 *
G04 Layer:  BOARD GEOMETRY/DESIGN_OUTLINE*
G04 Layer:  REF DES/ASSEMBLY_BOTTOM*
G04 Layer:  PACKAGE GEOMETRY/ASSEMBLY_BOTTOM*
G04 *
G04 Offset:    (0.0000 0.0000)*
G04 Mirror:    Yes*
G04 Mode:      Positive*
G04 Rotation:  0*
G04 FullContactRelief:  No*
G04 UndefLineWidth:     0.1016*
G04 ================== end FILE IDENTIFICATION RECORD ====================*
%FSLAX25Y25*MOMM*%
%IR0*IPPOS*OFA0.00000B0.00000*MIA1B0*SFA1.00000B1.00000*%
%ADD10C,.2032*%
%ADD11C,.1524*%
%ADD12C,.1016*%
G75*
%LPD*%
G75*
G54D10*
G01X923670Y811900D02*
Y888100D01*
X875410D01*
G01X893190Y851270D02*
X923670D01*
G01X828420Y888100D02*
X797940D01*
G01X813180D02*
Y811900D01*
G01X828420D02*
X797940D01*
G01X754760D02*
Y888100D01*
X729360D01*
X719200Y884290D01*
X711580Y879210D01*
X705230Y871590D01*
X700150Y862700D01*
X698880Y850000D01*
X700150Y837300D01*
X705230Y828410D01*
X711580Y820790D01*
X719200Y815710D01*
X729360Y811900D01*
X754760D01*
G01X643000D02*
X640460Y828410D01*
X636650Y842380D01*
X631570Y855080D01*
X625220Y869050D01*
X615060Y888100D01*
X665860D01*
G01X587260Y6658200D02*
Y6582000D01*
G01X616470Y6658200D02*
X558050D01*
G01X526300Y6582000D02*
Y6658200D01*
X495820D01*
X485660Y6654390D01*
X478040Y6645500D01*
X475500Y6635340D01*
X478040Y6625180D01*
X484390Y6617560D01*
X495820Y6613750D01*
X526300D01*
G01X414540Y6582000D02*
Y6658200D01*
X429780Y6642960D01*
G01Y6582000D02*
X399300D01*
G01X753670Y7761900D02*
Y7838100D01*
X705410D01*
G01X723190Y7801270D02*
X753670D01*
G01X658420Y7838100D02*
X627940D01*
G01X643180D02*
Y7761900D01*
G01X658420D02*
X627940D01*
G01X584760D02*
Y7838100D01*
X559360D01*
X549200Y7834290D01*
X541580Y7829210D01*
X535230Y7821590D01*
X530150Y7812700D01*
X528880Y7800000D01*
X530150Y7787300D01*
X535230Y7778410D01*
X541580Y7770790D01*
X549200Y7765710D01*
X559360Y7761900D01*
X584760D01*
G01X498400Y7773330D02*
X490780Y7766980D01*
X481890Y7763170D01*
X470460Y7761900D01*
X459030Y7764440D01*
X450140Y7769520D01*
X443790Y7778410D01*
X442520Y7788570D01*
X445060Y7798730D01*
X451410Y7805080D01*
X460300Y7810160D01*
X469190Y7811430D01*
X478080Y7810160D01*
X489510Y7805080D01*
X485700Y7838100D01*
X451410D01*
G01X2876000Y3053300D02*
X5924000D01*
G03X6178000Y3307300I0J254000D01*
G01Y3586700D01*
G03X5924000Y3840700I-254000J0D01*
G01X2876000D01*
G03X2622000Y3586700I0J-254000D01*
G01Y3307300D01*
G03X2876000Y3053300I254000J0D01*
G01Y4006300D02*
X5924000D01*
G03X6178000Y4260300I0J254000D01*
G01Y4539700D01*
G03X5924000Y4793700I-254000J0D01*
G01X2876000D01*
G03X2622000Y4539700I0J-254000D01*
G01Y4260300D01*
G03X2876000Y4006300I254000J0D01*
G01Y5276300D02*
X5924000D01*
G03X6178000Y5530300I0J254000D01*
G01Y5809700D01*
G03X5924000Y6063700I-254000J0D01*
G01X2876000D01*
G03X2622000Y5809700I0J-254000D01*
G01Y5530300D01*
G03X2876000Y5276300I254000J0D01*
G01X3528580Y3347140D02*
X3522230Y3339520D01*
X3514610Y3334440D01*
X3505720Y3331900D01*
X3495560Y3334440D01*
X3487940Y3339520D01*
X3480320Y3347140D01*
X3477780Y3357300D01*
Y3408100D01*
G01X3416820Y3331900D02*
Y3408100D01*
X3432060Y3392860D01*
G01Y3331900D02*
X3401580D01*
G01X3538580Y4297140D02*
X3532230Y4289520D01*
X3524610Y4284440D01*
X3515720Y4281900D01*
X3505560Y4284440D01*
X3497940Y4289520D01*
X3490320Y4297140D01*
X3487780Y4307300D01*
Y4358100D01*
G01X3411580Y4281900D02*
Y4358100D01*
X3458570Y4303490D01*
X3395070D01*
G01X3538580Y5437140D02*
X3532230Y5429520D01*
X3524610Y5424440D01*
X3515720Y5421900D01*
X3505560Y5424440D01*
X3497940Y5429520D01*
X3490320Y5437140D01*
X3487780Y5447300D01*
Y5498100D01*
G01X3454760Y5437140D02*
X3447140Y5428250D01*
X3436980Y5423170D01*
X3425550Y5421900D01*
X3415390Y5423170D01*
X3405230Y5429520D01*
X3398880Y5437140D01*
X3397610Y5444760D01*
X3400150Y5453650D01*
X3409040Y5460000D01*
X3417930Y5462540D01*
X3429360D01*
G01X3417930D02*
X3410310Y5466350D01*
X3403960Y5472700D01*
X3401420Y5480320D01*
X3403960Y5487940D01*
X3410310Y5494290D01*
X3421740Y5498100D01*
X3433170Y5496830D01*
X3444600Y5491750D01*
G01X8013670Y271900D02*
Y348100D01*
X7965410D01*
G01X7983190Y311270D02*
X8013670D01*
G01X7918420Y348100D02*
X7887940D01*
G01X7903180D02*
Y271900D01*
G01X7918420D02*
X7887940D01*
G01X7844760D02*
Y348100D01*
X7819360D01*
X7809200Y344290D01*
X7801580Y339210D01*
X7795230Y331590D01*
X7790150Y322700D01*
X7788880Y310000D01*
X7790150Y297300D01*
X7795230Y288410D01*
X7801580Y280790D01*
X7809200Y275710D01*
X7819360Y271900D01*
X7844760D01*
G01X7730460D02*
X7721570Y273170D01*
X7711410Y276980D01*
X7705060Y283330D01*
X7702520Y292220D01*
X7705060Y301110D01*
X7712680Y308730D01*
X7724110Y312540D01*
X7736810D01*
X7744430Y315080D01*
X7750780Y321430D01*
X7753320Y330320D01*
X7749510Y339210D01*
X7740620Y345560D01*
X7730460Y348100D01*
X7720300Y345560D01*
X7711410Y339210D01*
X7707600Y330320D01*
X7710140Y321430D01*
X7716490Y315080D01*
X7724110Y312540D01*
X7736810D01*
X7748240Y308730D01*
X7755860Y301110D01*
X7758400Y292220D01*
X7755860Y283330D01*
X7749510Y276980D01*
X7739350Y273170D01*
X7730460Y271900D01*
G01X8473670Y7711900D02*
Y7788100D01*
X8425410D01*
G01X8443190Y7751270D02*
X8473670D01*
G01X8378420Y7788100D02*
X8347940D01*
G01X8363180D02*
Y7711900D01*
G01X8378420D02*
X8347940D01*
G01X8304760D02*
Y7788100D01*
X8279360D01*
X8269200Y7784290D01*
X8261580Y7779210D01*
X8255230Y7771590D01*
X8250150Y7762700D01*
X8248880Y7750000D01*
X8250150Y7737300D01*
X8255230Y7728410D01*
X8261580Y7720790D01*
X8269200Y7715710D01*
X8279360Y7711900D01*
X8304760D01*
G01X8214590Y7743650D02*
X8205700Y7752540D01*
X8198080Y7757620D01*
X8187920Y7760160D01*
X8179030Y7757620D01*
X8172680Y7752540D01*
X8167600Y7744920D01*
X8166330Y7736030D01*
X8167600Y7728410D01*
X8172680Y7720790D01*
X8180300Y7714440D01*
X8189190Y7711900D01*
X8199350Y7714440D01*
X8208240Y7722060D01*
X8213320Y7733490D01*
X8214590Y7746190D01*
X8212050Y7762700D01*
X8208240Y7771590D01*
X8201890Y7780480D01*
X8193000Y7786830D01*
X8184110Y7788100D01*
X8175220Y7785560D01*
X8168870Y7779210D01*
G54D11*
G01X587610Y408000D02*
G03I-179610J0D01*
G01X679610Y6640000D02*
G03I-179610J0D01*
G01X977610Y8392000D02*
G03I-179610J0D01*
G01X8317610D02*
G03I-179610J0D01*
G01X8588610Y408000D02*
G03I-179610J0D01*
G54D12*
G01X0Y100000D02*
Y3700000D01*
G02X100000Y3800000I100000J0D01*
G01X900000D01*
G03X1000000Y3900000I0J100000D01*
G01Y4900000D01*
G03X900000Y5000000I-100000J0D01*
G01X100000D01*
G02X0Y5100000I0J100000D01*
G01Y8700000D01*
G02X100000Y8800000I100000J0D01*
G01X3700000D01*
G02X3800000Y8700000I0J-100000D01*
G01Y7900000D01*
G03X3900000Y7800000I100000J0D01*
G01X4900000D01*
G03X5000000Y7900000I0J100000D01*
G01Y8700000D01*
G02X5100000Y8800000I100000J0D01*
G01X8700000D01*
G02X8800000Y8700000I0J-100000D01*
G01Y5100000D01*
G02X8700000Y5000000I-100000J0D01*
G01X7900000D01*
G03X7800000Y4900000I0J-100000D01*
G01Y3900000D01*
G03X7900000Y3800000I100000J0D01*
G01X8700000D01*
G02X8800000Y3700000I0J-100000D01*
G01Y100000D01*
G02X8700000Y0I-100000J0D01*
G01X7800000D01*
G02X7700000Y100000I0J100000D01*
G01Y900000D01*
G03X7600000Y1000000I-100000J0D01*
G01X6400000D01*
G03X6300000Y900000I0J-100000D01*
G01Y100000D01*
G02X6200000Y0I-100000J0D01*
G01X2600000D01*
G02X2500000Y100000I0J100000D01*
G01Y900000D01*
G03X2400000Y1000000I-100000J0D01*
G01X1200000D01*
G03X1100000Y900000I0J-100000D01*
G01Y100000D01*
G02X1000000Y0I-100000J0D01*
G01X100000D01*
G02X0Y100000I0J100000D01*
G01X653850Y7800000D02*
G03I-53850J0D01*
G01X853850Y840000D02*
G03I-53850J0D01*
G01X7953850Y300000D02*
G03I-53850J0D01*
G01X8413850Y7760000D02*
G03I-53850J0D01*
M02*
