G04 ================== begin FILE IDENTIFICATION RECORD ==================*
G04 Layout Name:  Adaptor_V120.brd*
G04 Film Name:    ADAPTOR_ver120_SILK_BOTTOM.art*
G04 File Format:  Gerber RS274X*
G04 File Origin:  Cadence Allegro 17.2-S052*
G04 Origin Date:  Thu Apr 10 18:36:39 2025*
G04 *
G04 Layer:  BOARD GEOMETRY/DESIGN_OUTLINE*
G04 Layer:  REF DES/SILKSCREEN_BOTTOM*
G04 Layer:  PACKAGE GEOMETRY/SILKSCREEN_BOTTOM*
G04 Layer:  BOARD GEOMETRY/SILKSCREEN_BOTTOM*
G04 *
G04 Offset:    (0.0000 0.0000)*
G04 Mirror:    No*
G04 Mode:      Positive*
G04 Rotation:  0*
G04 FullContactRelief:  No*
G04 UndefLineWidth:     0.1524*
G04 ================== end FILE IDENTIFICATION RECORD ====================*
%FSLAX25Y25*MOMM*%
%IR0*IPPOS*OFA0.00000B0.00000*MIA0B0*SFA1.00000B1.00000*%
%ADD10C,.4*%
%ADD11C,.2032*%
%ADD12C,.1524*%
G75*
%LPD*%
G75*
G36*
G01X1784760Y7581180D02*
G03X1774340Y7583460I-22081J-75965D01*
G03X1758340Y7584730I-20334J-154756D01*
G03X1735230Y7585240I-26145J-660851D01*
G01X1684680D01*
Y7359430D01*
X1665120Y7374420D01*
G03X1639980Y7390680I-122217J-161398D01*
G03X1615080Y7401340I-66169J-120148D01*
G03X1587400Y7407440I-46362J-144527D01*
G03X1553870Y7409470I-34440J-290923D01*
G03X1516790Y7406680I-1022J-234216D01*
G03X1485040Y7397790I22592J-141828D01*
G03X1458620Y7383060I43844J-109698D01*
G03X1437790Y7362480I63269J-84869D01*
G03X1420520Y7332760I114591J-86466D01*
G03X1411380Y7301010I113280J-49801D01*
G03X1407310Y7251990I385447J-56682D01*
G03X1406300Y7145060I6791893J-117622D01*
G01X1406040Y6992150D01*
X1458110Y6993930D01*
X1509930Y6995450D01*
X1512720Y7131850D01*
G02X1515520Y7225070I6344501J-143914D01*
G02X1519830Y7264180I276553J-10684D01*
G02X1528220Y7286790I65910J-11596D01*
G02X1543710Y7303300I46594J-28194D01*
G02X1562760Y7311170I26838J-37973D01*
G02X1589180Y7312700I20529J-125619D01*
G02X1616350Y7308630I-6163J-133864D01*
G02X1637440Y7299240I-16220J-64810D01*
G02X1661310Y7276630I-56868J-83942D01*
G02X1674520Y7248940I-61380J-46278D01*
G02X1680870Y7205000I-214694J-53455D01*
G02X1683660Y7115340I-2997365J-138144D01*
G01X1685440Y6992150D01*
X1737000Y6993930D01*
X1788310Y6995450D01*
X1789840Y7282980D01*
X1790340Y7393720D01*
X1790090Y7488210D01*
X1789840Y7571780D01*
G03X1788570Y7577870I-17362J-443D01*
G03X1784760Y7581180I-5192J-2129D01*
G37*
G36*
G01X2030880Y7410490D02*
G03X1996590Y7409470I-6625J-354163D01*
G03X1962300Y7405410I24888J-357034D01*
G03X1932840Y7398040I36677J-209174D01*
G03X1906680Y7386100I40372J-123081D01*
G03X1881780Y7368320I82925J-142457D01*
G03X1859940Y7345210I117952J-133345D01*
G03X1842160Y7318290I147060J-116461D01*
G03X1832000Y7298730I694386J-373102D01*
G03X1829210Y7290600I24887J-13084D01*
G03X1830480Y7284760I7983J-1322D01*
G03X1835810Y7279420I17917J12553D01*
G03X1841910Y7275870I17921J23779D01*
G03X1852570Y7271800I75329J181305D01*
G03X1865530Y7267740I75526J218373D01*
G03X1878480Y7264440I64656J226664D01*
G01X1910740Y7257070D01*
X1930810Y7278920D01*
G02X1948840Y7295680I117787J-108634D01*
G02X1965860Y7305840I43788J-54017D01*
G02X1985670Y7310920I28638J-70510D01*
G02X2012590Y7312440I25813J-218026D01*
G02X2052980Y7305330I-140J-119070D01*
G02X2084730Y7285010I-29819J-81557D01*
G02X2106070Y7251990I-67716J-67169D01*
G02X2116230Y7208560I-145730J-56995D01*
G02X2111650Y7158010I-149384J-11948D01*
G02X2090320Y7117120I-100199J26260D01*
G02X2054250Y7090700I-73339J62294D01*
G02X2007510Y7081560I-46190J112128D01*
G02X1985160Y7083590I-263J121158D01*
G02X1965600Y7089690I15260J83343D01*
G02X1948330Y7100350I34554J75300D01*
G02X1932840Y7115590I69077J85702D01*
G03X1926740Y7122450I-165570J-141085D01*
G03X1920650Y7128800I-146895J-134785D01*
G03X1915310Y7133880I-120612J-121438D01*
G03X1911760Y7136680I-16602J-17398D01*
G03X1899560Y7138960I-8980J-14272D01*
G03X1865020Y7130830I134538J-649016D01*
G03X1830980Y7121180I178432J-694276D01*
G03X1823110Y7113820I3674J-11816D01*
G03X1824630Y7093500I21668J-8596D01*
G03X1848000Y7060730I226689J136946D01*
G03X1879500Y7027960I219194J179175D01*
G03X1912520Y7005360I112631J129138D01*
G03X1932080Y6996470I86041J163346D01*
G03X1948840Y6992150I28510J75939D01*
G03X1970940Y6990120I26262J164593D01*
G03X2013610Y6989610I44398J1929361D01*
G03X2055010Y6990120I-1026J1763860D01*
G03X2077870Y6991900I-3419J191589D01*
G03X2095140Y6996210I-14155J93472D01*
G03X2114190Y7004090I-53180J155529D01*
G03X2141630Y7020850I-79849J161574D01*
G03X2167280Y7042950I-134678J182247D01*
G03X2189630Y7068860I-162049J162378D01*
G03X2206400Y7096290I-146889J108645D01*
G03X2214270Y7115340I-149677J72986D01*
G03X2218590Y7132610I-87847J31150D01*
G03X2220620Y7155470I-187214J28145D01*
G03X2221130Y7197130I-1784790J42682D01*
G03X2220620Y7237770I-1723714J-1308D01*
G03X2218590Y7260630I-200980J-6327D01*
G03X2214780Y7277900I-96207J-12169D01*
G03X2207410Y7295680I-129342J-43196D01*
G03X2180740Y7337080I-203810J-102004D01*
G03X2146960Y7370100I-152019J-121729D01*
G03X2106320Y7393720I-116050J-152901D01*
G03X2060090Y7407440I-83101J-195266D01*
G03X2030880Y7410490I-34542J-189416D01*
G37*
G36*
G01X2454810D02*
G03X2420260Y7408710I-1842J-300441D01*
G03X2386740Y7403120I31541J-292431D01*
G03X2358540Y7394230I34979J-160129D01*
G03X2316380Y7366550I56086J-131373D01*
G03X2282340Y7323870I132983J-140977D01*
G03X2259990Y7270530I188670J-110407D01*
G03X2251610Y7211860I231258J-62965D01*
G01X2250590Y7167410D01*
X2394860Y7165890D01*
X2538880Y7164110D01*
X2534820Y7150900D01*
G02X2507640Y7104930I-111178J34714D01*
G02X2464710Y7080030I-64353J61493D01*
G02X2414170Y7081560I-22557J90368D01*
G02X2366160Y7108990I38958J123917D01*
G01X2342790Y7130070D01*
X2304190Y7117120D01*
G03X2289200Y7111780I139108J-414202D01*
G03X2275990Y7106450I97775J-261362D01*
G03X2265320Y7101620I127658J-296211D01*
G03X2262280Y7099080I2803J-6444D01*
G03X2263290Y7079780I14680J-8908D01*
G03X2292500Y7046250I235631J175784D01*
G03X2330350Y7014500I211943J214227D01*
G03X2366420Y6996720I76690J110103D01*
G03X2400450Y6989360I53450J164784D01*
G03X2443380Y6986820I44814J393372D01*
G03X2486050Y6989100I383J393263D01*
G03X2518560Y6996210I-15879J150486D01*
G03X2560980Y7016790I-60299J178299D01*
G03X2596790Y7047270I-100781J154680D01*
G03X2623970Y7086130I-139827J126735D01*
G03X2641500Y7131600I-185259J97537D01*
G03X2649370Y7226850I-271027J70344D01*
G03X2622700Y7311680I-209375J-19219D01*
G03X2565300Y7374170I-164836J-93803D01*
G03X2484780Y7407440I-117859J-171170D01*
G03X2454810Y7410490I-32817J-173692D01*
G37*
G36*
G01X3028090Y7571020D02*
X2959000Y7572290D01*
G03X2881020Y7573050I-114455J-7742732D01*
G01X2789070Y7573300D01*
X2550060D01*
Y7472970D01*
X2643280Y7471190D01*
X2736750Y7469670D01*
X2739800Y6992660D01*
X2846220D01*
Y7472720D01*
X3035960D01*
Y7518950D01*
G03X3035710Y7537230I-576441J1258D01*
G03X3034690Y7552980I-338763J-14031D01*
G03X3033670Y7566190I-463601J-29152D01*
G03X3031900Y7569490I-5567J-861D01*
G03X3028090Y7571020I-3799J-3950D01*
G37*
G36*
G01X3126130Y7410740D02*
G03X3080660Y7405660I-2726J-181634D01*
G03X3039770Y7389660I39626J-161520D01*
G03X3008530Y7364510I56370J-101997D01*
G03X2988970Y7335560I101001J-89324D01*
G03X2979060Y7304060I98283J-48229D01*
G03X2974750Y7255040I345626J-55088D01*
G03X2973730Y7146580I6372856J-114168D01*
G01Y6995450D01*
X3025550Y6993930D01*
X3077360Y6992150D01*
X3077620Y7112290D01*
G02X3078630Y7202970I4290576J-2443D01*
G02X3082700Y7247930I325442J-6796D01*
G02X3091590Y7275870I99455J-16260D01*
G02X3107590Y7296950I61777J-30278D01*
G02X3119530Y7306350I83343J-93580D01*
G02X3128920Y7310920I17764J-24568D01*
G02X3140610Y7312190I10403J-41316D01*
G02X3161180Y7311430I-2747J-353111D01*
G02X3179980Y7309400I-17345J-248701D01*
G02X3192930Y7306090I-9142J-62756D01*
G02X3203350Y7300510I-16791J-43874D01*
G02X3214270Y7291620I-54040J-77532D01*
G02X3233060Y7269260I-89559J-94335D01*
G02X3242210Y7246910I-53510J-34955D01*
G02X3246530Y7211610I-209103J-43504D01*
G02X3249320Y7122960I-5897507J-229976D01*
G01X3252370Y6995450D01*
X3304180Y6993930D01*
X3356000Y6992150D01*
Y7402110D01*
X3307230Y7400330D01*
X3258210Y7398550D01*
X3255160Y7375440D01*
G02X3253380Y7361470I-462181J51791D01*
G02X3251350Y7357400I-8120J1509D01*
G02X3248810I-1270J1274D01*
G02X3243990Y7362230I26092J30858D01*
G03X3230780Y7375440I-72180J-58970D01*
G03X3214010Y7386870I-81721J-101882D01*
G03X3193950Y7396520I-77726J-135899D01*
G03X3171340Y7404390I-81101J-196585D01*
G03X3126130Y7410740I-47151J-171584D01*
G37*
G36*
G01X3705760Y7401600D02*
X3598820D01*
X3600350Y7198400D01*
X3601870Y6995450D01*
X3702710D01*
X3704230Y7198400D01*
X3705760Y7401600D01*
G37*
G36*
G01X3527200Y7397530D02*
G03X3516780Y7399820I-21765J-74182D01*
G03X3501030Y7401090I-20092J-150875D01*
G03X3477670Y7401600I-26353J-671809D01*
G01X3427120D01*
Y6992150D01*
X3478940Y6993930D01*
X3530750Y6995450D01*
X3532280Y7191030D01*
X3532780Y7266470D01*
G03Y7331240I-7363138J32385D01*
G01X3532280Y7388140D01*
G03X3531010Y7393980I-16786J-592D01*
G03X3527200Y7397530I-5457J-2037D01*
G37*
G36*
G01X3907690Y7605560D02*
G03X3878220Y7599460I-508J-71784D01*
G03X3857900Y7582950I20574J-46081D01*
G03X3849010Y7558820I38988J-28067D01*
G03X3852060Y7534690I57130J-5037D01*
G03X3865270Y7510820I82638J30143D01*
G03X3890420Y7484150I142290J108988D01*
G03X3932330Y7450370I511628J591876D01*
G02X3977280Y7413790I-445670J-593553D01*
G02X4017920Y7374930I-430122J-490505D01*
G02X4052470Y7335560I-411076J-395593D01*
G02X4078880Y7297200I-280475J-221372D01*
G02X4097170Y7262910I-291525J-177520D01*
G02X4112410Y7224810I-390790J-178414D01*
G02X4122830Y7188240I-366171J-124104D01*
G02X4126380Y7160040I-121479J-29616D01*
G02X4125620Y7145060I-143786J-214D01*
G02X4122830Y7136930I-17882J1593D01*
G02X4116220Y7130580I-17642J11749D01*
G02X4101240Y7121940I-119684J190201D01*
G02X4067960Y7110510I-55617J107770D01*
G02X4024530Y7105940I-51026J276269D01*
G02X3973980Y7107970I-10481J369415D01*
G02X3919370Y7116610I56071J531309D01*
G03X3848510Y7129310I-215260J-997019D01*
G03X3807360Y7128290I-17540J-122954D01*
G03X3785510Y7114580I6990J-35407D01*
G03X3776880Y7088920I33925J-25691D01*
G03X3790340Y7042440I85547J-416D01*
G03X3828690Y7003580I113115J73277D01*
G03X3886610Y6977670I105028J157090D01*
G03X3956200Y6968780I69888J270259D01*
G03X4024270Y6978180I85J250551D01*
G03X4074060Y7006120I-33721J118426D01*
G03X4115710Y7060220I-134017J146258D01*
G03X4159400Y7155470I-913432J476625D01*
G03X4175660Y7197890I-1631664J649759D01*
G03X4183280Y7222780I-201830J75401D01*
G03X4186580Y7244880I-133408J31217D01*
G03X4187600Y7274090I-387705J28161D01*
G03X4180230Y7335810I-268466J-758D01*
G03X4158640Y7396770I-303272J-73106D01*
G03X4122830Y7456210I-328514J-157408D01*
G03X4073040Y7514370I-427971J-315988D01*
G03X4038240Y7547140I-440888J-433337D01*
G03X4005990Y7571520I-209168J-243169D01*
G03X3974740Y7589300I-137240J-204860D01*
G03X3943250Y7600990I-81935J-172455D01*
G03X3907690Y7605560I-35042J-132036D01*
G37*
G36*
G01X3664100Y7588540D02*
G03X3653180Y7590320I-11083J-33607D01*
G03X3642260Y7588800I-616J-35563D01*
G03X3626000Y7582700I60255J-185334D01*
G03X3610510Y7574060I27355J-67248D01*
G03X3600350Y7562630I23238J-30887D01*
G03X3594760Y7547650I38330J-22836D01*
G03X3592980Y7526820I120323J-20773D01*
G03X3597550Y7505480I53660J332D01*
G03X3610000Y7487960I46581J19918D01*
G03X3629560Y7476530I37678J42026D01*
G03X3653180Y7472720I23265J69107D01*
G03X3689760Y7485420I290J58196D01*
G03X3710580Y7518440I-38303J47225D01*
G03X3706770Y7556540I-55917J13649D01*
G03X3680100Y7582450I-47681J-22399D01*
G03X3664100Y7588540I-74407J-171423D01*
G37*
G36*
G01X3474360Y7589560D02*
G03X3446170Y7580160I5138J-62379D01*
G03X3425850Y7559080I31633J-50826D01*
G03X3418480Y7531390I48590J-27759D01*
G03X3419500Y7517930I99946J805D01*
G03X3422290Y7508280I32561J4186D01*
G03X3428140Y7499390I33396J15606D01*
G03X3438550Y7489230I97883J89879D01*
G03X3450490Y7479320I105162J114556D01*
G03X3459630Y7474750I18514J25603D01*
G03X3469790Y7473230I9776J30626D01*
G03X3485540Y7474240I-2664J164855D01*
G03X3499000Y7476530I-12888J116457D01*
G03X3509670Y7480340I-13259J53978D01*
G03X3518310Y7485670I-18836J40201D01*
G03X3526180Y7493040I-33113J43247D01*
G03X3538370Y7517170I-42529J36629D01*
G03X3538120Y7544600I-58765J13181D01*
G03X3525930Y7568980I-58239J-13882D01*
G03X3504080Y7584990I-43217J-36066D01*
G03X3474360Y7589560I-24414J-59848D01*
G37*
G36*
G01X4529730Y7411250D02*
G03X4486050Y7407190I1268J-250637D01*
G03X4444900Y7395500I44386J-234516D01*
G03X4411880Y7377720I50352J-133063D01*
G03X4378100Y7346230I106212J-147799D01*
G03X4353200Y7306860I143207J-118132D01*
G03X4337710Y7260120I189965J-88892D01*
G03X4331870Y7206780I292016J-58962D01*
G01X4330850Y7167410D01*
X4474620Y7165890D01*
G02X4536850Y7164870I-56503J-5346048D01*
G02X4581300Y7163090I-36215J-1460256D01*
G02X4615590Y7161060I-147134J-2775949D01*
G02X4618380Y7158270I-99J-2889D01*
G02X4617870Y7154460I-11179J-443D01*
G02X4614820Y7146840I-188777J71140D01*
G02X4611010Y7137950I-188036J75325D01*
G02X4606190Y7128290I-256162J121783D01*
G02X4576980Y7094770I-81893J41876D01*
G02X4535070Y7078760I-52972J75808D01*
G02X4488590Y7083840I-12395J101771D01*
G02X4446420Y7108990I41687J117827D01*
G01X4423050Y7130070D01*
X4384450Y7117120D01*
G03X4369460Y7111780I137715J-410292D01*
G03X4356250Y7106450I96960J-259343D01*
G03X4345580Y7101620I125829J-292171D01*
G03X4342540Y7098830I3242J-6584D01*
G03X4342790Y7083590I11944J-7426D01*
G03X4365140Y7054890I226050J152983D01*
G03X4394860Y7025930I209119J184877D01*
G03X4425340Y7005360I112190J133372D01*
G03X4444640Y6996720I85165J164364D01*
G03X4461410Y6992150I29922J76746D01*
G03X4483000Y6990120I25709J157598D01*
G03X4523640Y6989610I41524J1689430D01*
G03X4562750Y6990120I-434J1533126D01*
G03X4585110Y6992150I-5577J185592D01*
G03X4602380Y6996210I-13210J94954D01*
G03X4620920Y7004090I-53414J151423D01*
G03X4648860Y7020850I-79316J163894D01*
G03X4674010Y7042950I-121226J163317D01*
G03X4695600Y7069370I-150713J145192D01*
G03X4712360Y7098320I-163730J114114D01*
G03X4721000Y7119400I-208752J97871D01*
G03X4725310Y7137180I-95371J32531D01*
G03X4727600Y7159030I-167746J28626D01*
G03X4728110Y7197130I-1333172J36899D01*
G03X4727600Y7234720I-1315903J945D01*
G03X4725570Y7256820I-174296J-4867D01*
G03X4721000Y7274600I-100573J-16373D01*
G03X4712610Y7295170I-205251J-71721D01*
G03X4687470Y7336570I-209073J-98626D01*
G03X4655720Y7369090I-143363J-108209D01*
G03X4616860Y7392450I-111044J-140723D01*
G03X4570630Y7407190I-93112J-212167D01*
G03X4529730Y7411250I-39438J-189253D01*
G37*
G36*
G01X5435500Y7410740D02*
G03X5393840Y7406680I-2282J-192349D01*
G03X5355740Y7393980I36378J-172635D01*
G03X5323990Y7373660I57434J-124706D01*
G01X5300620Y7353850D01*
X5297070Y7398550D01*
X5248050Y7400330D01*
X5199280Y7402110D01*
Y6992150D01*
X5248050Y6993930D01*
X5297070Y6995450D01*
X5300620Y7040660D01*
X5320440Y7023140D01*
G03X5345580Y7005360I99876J114556D01*
G03X5372760Y6993930I61966J109322D01*
G03X5404260Y6988090I43601J147303D01*
G03X5443120Y6987580I23739J328111D01*
G03X5481730Y6991900I-13464J295034D01*
G03X5513980Y7001040I-28846J163248D01*
G03X5541420Y7015770I-52349J130443D01*
G03X5565800Y7036350I-87365J128227D01*
G03X5607710Y7104420I-135922J130623D01*
G03X5623460Y7192050I-269074J93592D01*
G03X5611520Y7279930I-283503J6232D01*
G03X5572910Y7349780I-179529J-53640D01*
G03X5552590Y7369590I-142190J-125524D01*
G03X5530490Y7385340I-103743J-122189D01*
G03X5505600Y7397280I-83401J-141943D01*
G03X5477920Y7405660I-72710J-190262D01*
G03X5435500Y7410740I-45619J-201285D01*
G37*
G36*
G01X4957980Y7410490D02*
G03X4923690Y7409470I-6915J-344420D01*
G03X4888890Y7404900I28855J-354508D01*
G03X4858660Y7397280I40643J-225014D01*
G03X4830470Y7383560I32473J-102541D01*
G03X4800240Y7358930I144832J-208628D01*
G03X4774590Y7330480I171633J-180529D01*
G03X4760870Y7304570I68981J-53115D01*
G03X4758330Y7295930I175864J-56394D01*
G03X4756300Y7288060I106769J-31737D01*
G03X4755290Y7281710I117341J-21919D01*
G03X4756050Y7279680I2408J-256D01*
G03X4758080Y7278410I3617J3524D01*
G03X4769510Y7274850I339513J1069938D01*
G03X4782720Y7271040I168277J558642D01*
G03X4798210Y7266720I282816J984149D01*
G01X4838090Y7256310D01*
X4857140Y7278410D01*
G02X4874410Y7295170I101396J-87204D01*
G02X4891940Y7305330I43348J-54590D01*
G02X4912770Y7310920I31421J-75481D01*
G02X4940960Y7312700I28518J-227533D01*
G02X4986170Y7301780I-465J-100974D01*
G02X5021480Y7272060I-43577J-87609D01*
G02X5041290Y7226850I-92062J-67285D01*
G02X5042560Y7173250I-154382J-30473D01*
G02X5031380Y7137690I-122556J18994D01*
G02X5010810Y7109500I-85827J41028D01*
G02X4981600Y7090960I-64018J68581D01*
G02X4945530Y7082570I-45041J111910D01*
G02X4916580Y7083590I-9556J140123D01*
G02X4890410Y7090450I13974J106657D01*
G02X4869590Y7102640I32264J78980D01*
G02X4855870Y7119150I32935J41325D01*
G03X4846730Y7131600I-47630J-25387D01*
G03X4836310Y7136930I-13626J-13789D01*
G03X4820820Y7137180I-8458J-44023D01*
G03X4790340Y7131090I97989J-569749D01*
G03X4759860Y7122710I79872J-350133D01*
G03X4750210Y7114070I4757J-15022D01*
G03X4750710Y7101370I13690J-5821D01*
G03X4765700Y7074950I282364J142743D01*
G03X4786020Y7048030I168462J106031D01*
G03X4811170Y7024660I155356J141971D01*
G03X4838600Y7006120I123144J152631D01*
G03X4866540Y6994690I65546J120359D01*
G03X4906920Y6987580I52465J179747D01*
G03X4957470Y6987320I27438J420367D01*
G03X5006490Y6993170I-24172J410854D01*
G03X5041800Y7004600I-24101J134710D01*
G03X5069740Y7021360I-77770J161317D01*
G03X5094880Y7043200I-116905J159958D01*
G03X5116220Y7069110I-144907J141091D01*
G03X5133240Y7098320I-165850J116201D01*
G03X5141620Y7119400I-208752J95192D01*
G03X5146190Y7137180I-95167J33938D01*
G03X5148220Y7159280I-169960J26755D01*
G03X5148730Y7197130I-1329152J36838D01*
G03X5148220Y7237510I-1459142J1764D01*
G03X5145940Y7258850I-137438J-3892D01*
G03X5140600Y7276880I-90394J-16967D01*
G03X5129170Y7302030I-371532J-153679D01*
G03X5104280Y7341150I-184298J-89781D01*
G03X5072020Y7371880I-139465J-114110D01*
G03X5032650Y7394230I-110203J-148274D01*
G03X4987440Y7407440I-83431J-201567D01*
G03X4957980Y7410490I-34299J-187497D01*
G37*
G36*
G01X5834530Y7411250D02*
G03X5789830Y7404140I13406J-228348D01*
G03X5746900Y7388140I59372J-224897D01*
G03X5712610Y7365530I66515J-138182D01*
G03X5664610Y7296440I116825J-132382D01*
G03X5646320Y7203730I255363J-98538D01*
G03X5660540Y7109750I277313J-6106D01*
G03X5705750Y7036850I177470J59592D01*
G03X5732170Y7014250I160829J161271D01*
G03X5758080Y6999770I70648J95995D01*
G03X5788050Y6991640I50200J125751D01*
G03X5827930Y6987830I54603J360923D01*
G03X5856120Y6987070I31810J656721D01*
G03X5874920Y6988340I-200J142748D01*
G03X5891170Y6991900I-13181J99033D01*
G03X5908950Y6998500I-52483J168635D01*
G03X5921400Y7004340I-74449J174905D01*
G03X5933590Y7011200I-94499J182182D01*
G03X5943750Y7017800I-90320J150158D01*
G03X5950100Y7023390I-22120J31529D01*
G02X5955690Y7024660I3670J-3217D01*
G02X5959750Y7019330I-2814J-6355D01*
G02X5961530Y6998250I-187558J-26453D01*
G01X5963820Y6929410D01*
X5966610Y6823750D01*
X6018680Y6821970D01*
X6070500Y6820190D01*
Y7402110D01*
X6021480Y7400330D01*
X5972710Y7398550D01*
X5970680Y7375940D01*
X5968900Y7353590D01*
X5947820Y7371880D01*
G03X5931310Y7385090I-131100J-146928D01*
G03X5915300Y7394490I-67820J-97176D01*
G03X5897270Y7401600I-56780J-117571D01*
G03X5874920Y7407950I-86230J-260996D01*
G03X5834530Y7411250I-31867J-141209D01*
G37*
G36*
G01X6326020Y7584730D02*
G03X6265820Y7578380I-2677J-263153D01*
G03X6210960Y7559080I53343J-239245D01*
G03X6168290Y7528850I69754J-143688D01*
G03X6150760Y7507010I101695J-99581D01*
G03X6133240Y7477540I262115J-175771D01*
G03X6119770Y7448840I321456J-168383D01*
G03X6119520Y7434870I17399J-7299D01*
G03X6123080Y7431570I5666J2542D01*
G03X6136030Y7426490I98410J231822D01*
G03X6152540Y7421160I82171J226295D01*
G03X6171590Y7416330I106601J380463D01*
G03X6203090Y7409220I481260J2058830D01*
G03X6214770Y7407950I11992J55948D01*
G03X6221630Y7410230I-157J11933D01*
G03X6226960Y7416080I-10646J15053D01*
G02X6240420Y7435380I132384J-77982D01*
G02X6256430Y7452650I122533J-97537D01*
G02X6273700Y7465860I90835J-100859D01*
G02X6289700Y7473230I33316J-51276D01*
G02X6330090Y7477540I31706J-105721D01*
G02X6368440Y7466880I-8033J-103212D01*
G02X6394090Y7445030I-31462J-62914D01*
G02X6399940Y7417850I-28401J-20332D01*
G02X6394350Y7402360I-56821J11752D01*
G02X6384440Y7387120I-78608J40274D01*
G02X6370730Y7373400I-76208J62442D01*
G02X6354720Y7362990I-58530J72499D01*
G02X6345580Y7358930I-44477J87810D01*
G02X6326020Y7351050I-575438J1400156D01*
G02X6302650Y7342420I-552074J1459055D01*
G02X6277760Y7333530I-673128J1845320D01*
G03X6252110Y7324380I299045J-878833D01*
G03X6226710Y7314220I339651J-885957D01*
G03X6204610Y7304570I327702J-780619D01*
G03X6191400Y7297710I56625J-125188D01*
G03X6130190Y7237010I87384J-149330D01*
G03X6106820Y7154710I143150J-85117D01*
G03X6127390Y7072920I161382J-2895D01*
G03X6186320Y7012720I140406J78501D01*
G03X6247030Y6988590I109729J187637D01*
G03X6316620Y6981230I64776J279792D01*
G03X6385710Y6990880I-4615J285193D01*
G03X6444640Y7016790I-53592J201861D01*
G03X6465720Y7032540I-105963J163805D01*
G03X6483500Y7050060I-102434J121736D01*
G03X6499250Y7071400I-138676J118832D01*
G03X6514490Y7098320I-285439J179367D01*
G03X6524650Y7122710I-168366J84446D01*
G03X6524900Y7137950I-23076J8001D01*
G03X6516270Y7148360I-16893J-5223D01*
G03X6496200Y7155980I-42595J-81948D01*
G03X6453780Y7166140I-501472J-2000108D01*
G03X6437020Y7167920I-15208J-63401D01*
G03X6427620Y7163850I602J-14281D01*
G03X6420510Y7153440I21245J-22144D01*
G02X6403240Y7126520I-85172J35641D01*
G02X6377330Y7105430I-82927J75419D01*
G02X6344560Y7091970I-63838J108801D01*
G02X6307990Y7087650I-35216J141167D01*
G02X6267600Y7093500I111J143120D01*
G02X6237630Y7110770I20971J71032D01*
G02X6223150Y7136680I35788J37002D01*
G02X6224420Y7167410I55898J13081D01*
G02X6235600Y7186710I52844J-17723D01*
G02X6255160Y7203730I72580J-63663D01*
G02X6285890Y7219990I106716J-164515D01*
G02X6333640Y7238780I342325J-799864D01*
G03X6381650Y7256820I-506487J1420823D01*
G03X6414160Y7271550I-133434J337738D01*
G03X6439050Y7286790I-102423J195222D01*
G03X6462170Y7305080I-132662J191452D01*
G03X6486040Y7330220I-143301J159964D01*
G03X6501030Y7355120I-85438J68397D01*
G03X6509160Y7383560I-104539J45266D01*
G03X6511700Y7419380I-240701J35068D01*
G03X6509160Y7453920I-242821J-493D01*
G03X6501540Y7481860I-116620J-16796D01*
G03X6487820Y7505990I-99238J-40460D01*
G03X6466480Y7529360I-141425J-107712D01*
G03X6446160Y7546630I-211080J-227769D01*
G03X6427620Y7558820I-93843J-122534D01*
G03X6407560Y7568220I-74105J-132039D01*
G03X6383170Y7576350I-99571J-258063D01*
G03X6326020Y7584730I-60305J-212202D01*
G37*
G36*
G01X7133230Y7548660D02*
G03X7111640Y7552220I-54701J-264490D01*
G03X7087510Y7554510I-43667J-331850D01*
G03X7059830Y7555270I-29298J-562624D01*
G03X6978040Y7546890I-2191J-381949D01*
G03X6918600Y7520220I32203J-151344D01*
G03X6871360Y7469160I109359J-148561D01*
G03X6826660Y7383820I552215J-343620D01*
G03X6797950Y7315490I2942207J-1276414D01*
G03X6780680Y7268250I658632J-267560D01*
G03X6770520Y7230910I360800J-118224D01*
G03X6765440Y7196370I248940J-54257D01*
G03X6776360Y7093240I287372J-21715D01*
G03X6823350Y6984280I470251J138188D01*
G03X6899050Y6882930I478351J278343D01*
G03X6994800Y6803430I378110J357986D01*
G03X7048650Y6775490I176041J273428D01*
G03X7099710Y6762530I71298J173837D01*
G03X7142890Y6765840I12375J121868D01*
G03X7173870Y6784380I-14919J60083D01*
G03X7189110Y6820190I-45143J40360D01*
G03X7180480Y6859820I-71130J5265D01*
G03X7144410Y6905790I-156552J-85701D01*
G03X7077100Y6960910I-551738J-605099D01*
G02X6987690Y7038890I426006J578696D01*
G02X6914790Y7128550I459893J448393D01*
G02X6864760Y7221510I449655J301942D01*
G02X6842660Y7309900I278360J116556D01*
G01X6839360Y7346230D01*
X6859930Y7358930D01*
G02X6906160Y7378990I92130J-149022D01*
G02X6960510Y7387370I64207J-235987D01*
G02X7028590Y7384330I16261J-399678D01*
G02X7117490Y7369090I-160430J-1202752D01*
G03X7177430Y7357910I290760J1392601D01*
G03X7216800Y7354610I42071J265420D01*
G03X7244490Y7357400I2129J117678D01*
G03X7264550Y7366800I-10755J49056D01*
G03X7273700Y7375440I-47500J59469D01*
G03X7277760Y7383060I-14400J12564D01*
G03X7279280Y7393470I-32910J10121D01*
G03X7278270Y7414300I-431085J-10463D01*
G03X7276240Y7432590I-215081J-14614D01*
G03X7272680Y7446300I-74549J-12040D01*
G03X7266840Y7458240I-60476J-22181D01*
G03X7257690Y7470940I-105553J-66402D01*
G03X7235600Y7494820I-177528J-142064D01*
G03X7210450Y7515140I-152184J-162634D01*
G03X7182760Y7531390I-124578J-180563D01*
G03X7153300Y7543330I-93583J-188587D01*
G03X7133230Y7548660I-64159J-201137D01*
G37*
G36*
G01X7325260Y7794540D02*
G03X7292490Y7797840I-43402J-266636D01*
G03X7261500Y7797330I-11214J-260359D01*
G03X7241950Y7792000I3442J-51144D01*
G03X7223150Y7777260I29394J-56849D01*
G03X7211720Y7757200I43778J-38231D01*
G03X7208420Y7733320I60396J-20514D01*
G03X7213750Y7707670I85875J4466D01*
G03X7225690Y7687090I72072J28061D01*
G03X7247280Y7662960I206293J162855D01*
G03X7279540Y7634260I324133J331859D01*
G03X7324750Y7598960I896611J1101721D01*
G02X7352440Y7577620I-579826J-780995D01*
G02X7380630Y7554000I-749664J-923341D01*
G02X7405780Y7531900I-695067J-816353D01*
G02X7422290Y7515640I-174923J-194124D01*
G02X7475370Y7448330I-429159J-393015D01*
G02X7519060Y7372900I-514246J-348226D01*
G02X7548270Y7298980I-480321J-232534D01*
G02X7557920Y7237510I-196977J-62415D01*
G02X7557160Y7222020I-129276J-1421D01*
G02X7553600Y7213890I-16168J2235D01*
G02X7545980Y7207540I-19470J15617D01*
G02X7526170Y7197130I-226710J407370D01*
G02X7477910Y7180360I-92854J189386D01*
G02X7423810Y7174270I-57637J268671D01*
G02X7358530Y7178590I-5342J414666D01*
G02X7276490Y7193830I157700J1077370D01*
G03X7226960Y7202970I-144600J-644819D01*
G03X7186570Y7205760I-39403J-276671D01*
G03X7155330Y7202970I-566J-169961D01*
G03X7135010Y7193570I8990J-46097D01*
G03X7127140Y7186210I36121J-46512D01*
G03X7122570Y7178590I20051J-17206D01*
G03X7120030Y7169190I31573J-13575D01*
G03X7119520Y7154960I143614J-12271D01*
G03X7155330Y7073430I110818J45D01*
G03X7252360Y7017550I171348J185347D01*
G03X7376060Y7005100I93223J305493D01*
G03X7482480Y7043970I-21452J223848D01*
G03X7505090Y7064290I-68750J99237D01*
G03X7527950Y7094510I-218028J188684D01*
G03X7551320Y7134390I-358149J236666D01*
G03X7575450Y7185190I-816915J419165D01*
G03X7611260Y7273580I-1493020J656326D01*
G03X7629300Y7337840I-382667J142090D01*
G03X7633870Y7392960I-250376J48508D01*
G03X7626760Y7450110I-299131J-8197D01*
G03X7615830Y7488210I-326805J-73135D01*
G03X7599320Y7530380I-540103J-187139D01*
G03X7579000Y7571780I-538204J-238475D01*
G03X7556910Y7607850I-362171J-197002D01*
G03X7514740Y7660680I-363042J-246542D01*
G03X7458610Y7715030I-568569J-531031D01*
G03X7400190Y7761010I-485064J-556196D01*
G03X7351930Y7787170I-130316J-182812D01*
G03X7325260Y7794540I-48933J-125133D01*
G37*
%LPC*%
G75*
G36*
G01X2414680Y7311430D02*
G02X2435500Y7315490I33518J-116469D01*
G02X2457350Y7316000I13892J-126857D01*
G02X2476650Y7312440I-5804J-85559D01*
G02X2493920Y7303550I-15916J-52139D01*
G02X2512720Y7286540I-94179J-122984D01*
G02X2527710Y7267490I-111529J-103182D01*
G02X2532280Y7253260I-21014J-14597D01*
G02X2528720Y7246660I-8048J81D01*
G02X2519830Y7243100I-11923J16893D01*
G02X2499770Y7241830I-20205J160090D01*
G02X2445920Y7241580I-53499J5723885D01*
G01X2359560D01*
X2363620Y7254790D01*
G02X2369210Y7269520I92061J-26511D01*
G02X2377340Y7283230I87030J-42343D01*
G02X2387500Y7294920I73759J-53845D01*
G02X2398670Y7304060I50838J-50734D01*
G02X2414680Y7311430I32353J-49206D01*
G37*
G36*
G01X4524910Y7317270D02*
G02X4558690Y7311170I1427J-88682D01*
G02X4588150Y7292890I-32683J-85551D01*
G02X4610000Y7263930I-72981J-77786D01*
G02X4613300Y7257580I-204379J-110245D01*
G02X4615840Y7251740I-141563J-65043D01*
G02X4617870Y7246660I-161599J-67521D01*
G02X4618380Y7244630I-5072J-2353D01*
G02X4617110Y7243360I-1297J27D01*
G02X4593230Y7242340I-193404J4247877D01*
G02X4565290Y7241830I-35502J1179383D01*
G02X4532530Y7241580I-33980J2306169D01*
G02X4481470Y7241830I-2317J4741051D01*
G02X4460390Y7243100I1061J193185D01*
G02X4449980Y7246150I3725J32005D01*
G02X4446420Y7251740I2703J5650D01*
G02X4449980Y7266980I35020J-145D01*
G02X4460900Y7284760I94515J-45805D01*
G02X4475630Y7300510I87416J-66992D01*
G02X4490870Y7309900I36081J-41498D01*
G02X4524910Y7317270I36457J-86089D01*
G37*
G36*
G01X5394860Y7312700D02*
G02X5441590Y7306860I9316J-115337D01*
G02X5481730Y7282980I-36567J-107141D01*
G02X5506870Y7245640I-66731J-72061D01*
G02X5511950Y7224310I-77437J-29713D01*
G02X5512970Y7195860I-240576J-22869D01*
G02X5510680Y7167160I-244238J5047D01*
G02X5504840Y7145820I-84759J11726D01*
G02X5473340Y7104420I-95722J40148D01*
G02X5425340Y7083080I-66520J84970D01*
G02X5372510Y7086640I-19305J107297D01*
G02X5328560Y7114830I32903J99653D01*
G02X5314850Y7132360I89032J83757D01*
G02X5306210Y7150390I69098J44197D01*
G02X5301390Y7171730I95821J32857D01*
G02X5299860Y7199410I253602J27900D01*
G02X5303420Y7231160I150311J-779D01*
G02X5313320Y7259100I112491J-24135D01*
G02X5329330Y7282220I90992J-45907D01*
G02X5350660Y7299240I65973J-60804D01*
G02X5394860Y7312700I52327J-92529D01*
G37*
G36*
G01X5839870Y7311940D02*
G02X5867810Y7312440I16954J-166482D01*
G02X5896510Y7308130I-11571J-174762D01*
G02X5918860Y7299240I-20010J-82846D01*
G02X5941970Y7280950I-48761J-85357D01*
G02X5958230Y7256820I-65893J-61945D01*
G02X5966870Y7226850I-98315J-44574D01*
G02X5968640Y7190520I-192883J-27605D01*
G02X5964070Y7156230I-201334J9383D01*
G02X5953660Y7129560I-93583J21161D01*
G02X5936890Y7108990I-69608J39628D01*
G02X5913020Y7093240I-71070J81747D01*
G02X5857390Y7081300I-51900J106246D01*
G02X5805830Y7097810I3081J98386D01*
G02X5769760Y7139720I57995J86390D01*
G02X5756550Y7197890I123533J58638D01*
G02X5760360Y7231930I140169J1544D01*
G02X5772810Y7262150I110413J-27813D01*
G02X5792620Y7287040I93789J-54319D01*
G02X5819550Y7305840I81920J-88658D01*
G02X5839870Y7311940I26207J-50404D01*
G37*
%LPD*%
G75*
G54D10*
G01X6990000Y6230000D02*
X6940000Y6380000D01*
X6890000Y6230000D01*
G01X6908000Y6282500D02*
X6972000D01*
G01X6844000Y6230000D02*
Y6380000D01*
X6804000D01*
X6788000Y6372500D01*
X6776000Y6362500D01*
X6766000Y6347500D01*
X6758000Y6330000D01*
X6756000Y6305000D01*
X6758000Y6280000D01*
X6766000Y6262500D01*
X6776000Y6247500D01*
X6788000Y6237500D01*
X6804000Y6230000D01*
X6844000D01*
G01X6710000D02*
X6660000Y6380000D01*
X6610000Y6230000D01*
G01X6628000Y6282500D02*
X6692000D01*
G01X6560000Y6230000D02*
Y6380000D01*
X6512000D01*
X6496000Y6372500D01*
X6484000Y6355000D01*
X6480000Y6335000D01*
X6484000Y6315000D01*
X6494000Y6300000D01*
X6512000Y6292500D01*
X6560000D01*
G01X6380000Y6380000D02*
Y6230000D01*
G01X6426000Y6380000D02*
X6334000D01*
G01X6240000Y6230000D02*
X6256000Y6232500D01*
X6270000Y6242500D01*
X6282000Y6257500D01*
X6290000Y6275000D01*
X6294000Y6295000D01*
Y6315000D01*
X6290000Y6335000D01*
X6282000Y6352500D01*
X6270000Y6367500D01*
X6256000Y6377500D01*
X6240000Y6380000D01*
X6224000Y6377500D01*
X6210000Y6367500D01*
X6198000Y6352500D01*
X6190000Y6335000D01*
X6186000Y6315000D01*
Y6295000D01*
X6190000Y6275000D01*
X6198000Y6257500D01*
X6210000Y6242500D01*
X6224000Y6232500D01*
X6240000Y6230000D01*
G01X6140000D02*
Y6380000D01*
X6090000D01*
X6074000Y6372500D01*
X6064000Y6362500D01*
X6060000Y6342500D01*
X6064000Y6322500D01*
X6076000Y6310000D01*
X6090000Y6302500D01*
X6140000D01*
G01X6090000D02*
X6060000Y6230000D01*
G01X5870000Y6380000D02*
X5820000Y6230000D01*
X5770000Y6380000D01*
G01X5680000Y6230000D02*
Y6380000D01*
X5704000Y6350000D01*
G01Y6230000D02*
X5656000D01*
G01X5540000Y6225000D02*
X5544000Y6227500D01*
Y6232500D01*
X5540000Y6235000D01*
X5536000Y6232500D01*
Y6227500D01*
X5540000Y6225000D01*
G01X5400000Y6230000D02*
Y6380000D01*
X5424000Y6350000D01*
G01Y6230000D02*
X5376000D01*
G01X5260000Y6225000D02*
X5264000Y6227500D01*
Y6232500D01*
X5260000Y6235000D01*
X5256000Y6232500D01*
Y6227500D01*
X5260000Y6225000D01*
G01X5120000Y6230000D02*
Y6380000D01*
X5144000Y6350000D01*
G01Y6230000D02*
X5096000D01*
G01X7000000Y6505000D02*
Y6655000D01*
X6952000D01*
X6936000Y6647500D01*
X6924000Y6630000D01*
X6920000Y6610000D01*
X6924000Y6590000D01*
X6934000Y6575000D01*
X6952000Y6567500D01*
X7000000D01*
G01X6860000Y6505000D02*
Y6655000D01*
X6810000D01*
X6794000Y6647500D01*
X6784000Y6637500D01*
X6780000Y6617500D01*
X6784000Y6597500D01*
X6796000Y6585000D01*
X6810000Y6577500D01*
X6860000D01*
G01X6810000D02*
X6780000Y6505000D01*
G01X6680000D02*
X6696000Y6507500D01*
X6710000Y6517500D01*
X6722000Y6532500D01*
X6730000Y6550000D01*
X6734000Y6570000D01*
Y6590000D01*
X6730000Y6610000D01*
X6722000Y6627500D01*
X6710000Y6642500D01*
X6696000Y6652500D01*
X6680000Y6655000D01*
X6664000Y6652500D01*
X6650000Y6642500D01*
X6638000Y6627500D01*
X6630000Y6610000D01*
X6626000Y6590000D01*
Y6570000D01*
X6630000Y6550000D01*
X6638000Y6532500D01*
X6650000Y6517500D01*
X6664000Y6507500D01*
X6680000Y6505000D01*
G01X6580000Y6535000D02*
X6570000Y6520000D01*
X6558000Y6510000D01*
X6544000Y6505000D01*
X6528000Y6510000D01*
X6516000Y6520000D01*
X6504000Y6535000D01*
X6500000Y6555000D01*
Y6655000D01*
G01X6360000Y6505000D02*
X6440000D01*
Y6655000D01*
X6360000D01*
G01X6392000Y6582500D02*
X6440000D01*
G01X6216000Y6642500D02*
X6228000Y6650000D01*
X6242000Y6655000D01*
X6258000D01*
X6276000Y6647500D01*
X6290000Y6635000D01*
X6300000Y6620000D01*
X6308000Y6595000D01*
X6310000Y6572500D01*
X6306000Y6550000D01*
X6300000Y6535000D01*
X6288000Y6520000D01*
X6274000Y6510000D01*
X6260000Y6505000D01*
X6246000D01*
X6232000Y6510000D01*
X6220000Y6517500D01*
X6210000Y6527500D01*
G01X6120000Y6655000D02*
Y6505000D01*
G01X6166000Y6655000D02*
X6074000D01*
G01X5824000Y6585000D02*
X5816000Y6592500D01*
X5810000Y6605000D01*
X5806000Y6622500D01*
X5810000Y6637500D01*
X5818000Y6647500D01*
X5832000Y6655000D01*
X5886000D01*
Y6505000D01*
X5820000D01*
X5806000Y6515000D01*
X5798000Y6530000D01*
X5794000Y6547500D01*
X5798000Y6565000D01*
X5810000Y6580000D01*
X5824000Y6585000D01*
X5886000D01*
G01X5660000Y6505000D02*
X5740000D01*
Y6655000D01*
X5660000D01*
G01X5692000Y6582500D02*
X5740000D01*
G01X5520000Y6505000D02*
X5600000D01*
Y6655000D01*
X5520000D01*
G01X5552000Y6582500D02*
X5600000D01*
G01X5446000Y6555000D02*
X5394000D01*
G01X5320000Y6505000D02*
Y6655000D01*
X5272000D01*
X5256000Y6647500D01*
X5244000Y6630000D01*
X5240000Y6610000D01*
X5244000Y6590000D01*
X5254000Y6575000D01*
X5272000Y6567500D01*
X5320000D01*
G01X5096000Y6642500D02*
X5108000Y6650000D01*
X5122000Y6655000D01*
X5138000D01*
X5156000Y6647500D01*
X5170000Y6635000D01*
X5180000Y6620000D01*
X5188000Y6595000D01*
X5190000Y6572500D01*
X5186000Y6550000D01*
X5180000Y6535000D01*
X5168000Y6520000D01*
X5154000Y6510000D01*
X5140000Y6505000D01*
X5126000D01*
X5112000Y6510000D01*
X5100000Y6517500D01*
X5090000Y6527500D01*
G01X5000000Y6505000D02*
Y6655000D01*
X5024000Y6625000D01*
G01Y6505000D02*
X4976000D01*
G54D11*
G01X2876000Y3053300D02*
X5924000D01*
G03X6178000Y3307300I0J254000D01*
G01Y3586700D01*
G03X5924000Y3840700I-254000J0D01*
G01X2876000D01*
G03X2622000Y3586700I0J-254000D01*
G01Y3307300D01*
G03X2876000Y3053300I254000J0D01*
G01Y4006300D02*
X5924000D01*
G03X6178000Y4260300I0J254000D01*
G01Y4539700D01*
G03X5924000Y4793700I-254000J0D01*
G01X2876000D01*
G03X2622000Y4539700I0J-254000D01*
G01Y4260300D01*
G03X2876000Y4006300I254000J0D01*
G01Y5276300D02*
X5924000D01*
G03X6178000Y5530300I0J254000D01*
G01Y5809700D01*
G03X5924000Y6063700I-254000J0D01*
G01X2876000D01*
G03X2622000Y5809700I0J-254000D01*
G01Y5530300D01*
G03X2876000Y5276300I254000J0D01*
G01X3128580Y3897140D02*
X3122230Y3889520D01*
X3114610Y3884440D01*
X3105720Y3881900D01*
X3095560Y3884440D01*
X3087940Y3889520D01*
X3080320Y3897140D01*
X3077780Y3907300D01*
Y3958100D01*
G01X3016820Y3881900D02*
Y3958100D01*
X3032060Y3942860D01*
G01Y3881900D02*
X3001580D01*
G01X3128580Y4847140D02*
X3122230Y4839520D01*
X3114610Y4834440D01*
X3105720Y4831900D01*
X3095560Y4834440D01*
X3087940Y4839520D01*
X3080320Y4847140D01*
X3077780Y4857300D01*
Y4908100D01*
G01X3001580Y4831900D02*
Y4908100D01*
X3048570Y4853490D01*
X2985070D01*
G01X3198580Y6127140D02*
X3192230Y6119520D01*
X3184610Y6114440D01*
X3175720Y6111900D01*
X3165560Y6114440D01*
X3157940Y6119520D01*
X3150320Y6127140D01*
X3147780Y6137300D01*
Y6188100D01*
G01X3114760Y6127140D02*
X3107140Y6118250D01*
X3096980Y6113170D01*
X3085550Y6111900D01*
X3075390Y6113170D01*
X3065230Y6119520D01*
X3058880Y6127140D01*
X3057610Y6134760D01*
X3060150Y6143650D01*
X3069040Y6150000D01*
X3077930Y6152540D01*
X3089360D01*
G01X3077930D02*
X3070310Y6156350D01*
X3063960Y6162700D01*
X3061420Y6170320D01*
X3063960Y6177940D01*
X3070310Y6184290D01*
X3081740Y6188100D01*
X3093170Y6186830D01*
X3104600Y6181750D01*
G54D12*
G01X0Y100000D02*
Y3700000D01*
G02X100000Y3800000I100000J0D01*
G01X900000D01*
G03X1000000Y3900000I0J100000D01*
G01Y4900000D01*
G03X900000Y5000000I-100000J0D01*
G01X100000D01*
G02X0Y5100000I0J100000D01*
G01Y8700000D01*
G02X100000Y8800000I100000J0D01*
G01X3700000D01*
G02X3800000Y8700000I0J-100000D01*
G01Y7900000D01*
G03X3900000Y7800000I100000J0D01*
G01X4900000D01*
G03X5000000Y7900000I0J100000D01*
G01Y8700000D01*
G02X5100000Y8800000I100000J0D01*
G01X8700000D01*
G02X8800000Y8700000I0J-100000D01*
G01Y5100000D01*
G02X8700000Y5000000I-100000J0D01*
G01X7900000D01*
G03X7800000Y4900000I0J-100000D01*
G01Y3900000D01*
G03X7900000Y3800000I100000J0D01*
G01X8700000D01*
G02X8800000Y3700000I0J-100000D01*
G01Y100000D01*
G02X8700000Y0I-100000J0D01*
G01X7800000D01*
G02X7700000Y100000I0J100000D01*
G01Y900000D01*
G03X7600000Y1000000I-100000J0D01*
G01X6400000D01*
G03X6300000Y900000I0J-100000D01*
G01Y100000D01*
G02X6200000Y0I-100000J0D01*
G01X2600000D01*
G02X2500000Y100000I0J100000D01*
G01Y900000D01*
G03X2400000Y1000000I-100000J0D01*
G01X1200000D01*
G03X1100000Y900000I0J-100000D01*
G01Y100000D01*
G02X1000000Y0I-100000J0D01*
G01X100000D01*
G02X0Y100000I0J100000D01*
G01X656640Y7800000D02*
G03I-56640J0D01*
G01X856640Y840000D02*
G03I-56640J0D01*
G01X7956640Y300000D02*
G03I-56640J0D01*
G01X8416640Y7760000D02*
G03I-56640J0D01*
M02*
