G04 ================== begin FILE IDENTIFICATION RECORD ==================*
G04 Layout Name:  Adaptor_V111.brd*
G04 Film Name:    ADAPTOR_ver1.1.1_PANEL.art*
G04 File Format:  Gerber RS274X*
G04 File Origin:  Cadence Allegro 17.2-S052*
G04 Origin Date:  Fri Mar 21 16:16:00 2025*
G04 *
G04 Layer:  BOARD GEOMETRY/DESIGN_OUTLINE*
G04 Layer:  DRAWING FORMAT/OUTLINE*
G04 *
G04 Offset:    (0.0000 0.0000)*
G04 Mirror:    No*
G04 Mode:      Positive*
G04 Rotation:  0*
G04 FullContactRelief:  No*
G04 UndefLineWidth:     0.1270*
G04 ================== end FILE IDENTIFICATION RECORD ====================*
%FSLAX25Y25*MOMM*%
%IR0*IPPOS*OFA0.00000B0.00000*MIA0B0*SFA1.00000B1.00000*%
%ADD10C,.127*%
G75*
%LPD*%
G75*
G54D10*
G01X0Y100000D02*
Y3700000D01*
G02X100000Y3800000I100000J0D01*
G01X900000D01*
G03X1000000Y3900000I0J100000D01*
G01Y4900000D01*
G03X900000Y5000000I-100000J0D01*
G01X100000D01*
G02X0Y5100000I0J100000D01*
G01Y8700000D01*
G02X100000Y8800000I100000J0D01*
G01X3700000D01*
G02X3800000Y8700000I0J-100000D01*
G01Y7900000D01*
G03X3900000Y7800000I100000J0D01*
G01X4900000D01*
G03X5000000Y7900000I0J100000D01*
G01Y8700000D01*
G02X5100000Y8800000I100000J0D01*
G01X8700000D01*
G02X8800000Y8700000I0J-100000D01*
G01Y5100000D01*
G02X8700000Y5000000I-100000J0D01*
G01X7900000D01*
G03X7800000Y4900000I0J-100000D01*
G01Y3900000D01*
G03X7900000Y3800000I100000J0D01*
G01X8700000D01*
G02X8800000Y3700000I0J-100000D01*
G01Y100000D01*
G02X8700000Y0I-100000J0D01*
G01X7800000D01*
G02X7700000Y100000I0J100000D01*
G01Y900000D01*
G03X7600000Y1000000I-100000J0D01*
G01X6400000D01*
G03X6300000Y900000I0J-100000D01*
G01Y100000D01*
G02X6200000Y0I-100000J0D01*
G01X2600000D01*
G02X2500000Y100000I0J100000D01*
G01Y900000D01*
G03X2400000Y1000000I-100000J0D01*
G01X1200000D01*
G03X1100000Y900000I0J-100000D01*
G01Y100000D01*
G02X1000000Y0I-100000J0D01*
G01X100000D01*
G02X0Y100000I0J100000D01*
M02*
